<!-- icon666.com - MILLIONS vector ICONS FREE -->
<svg id="Layer_1" viewBox="0 0 512 512" xmlns="http://www.w3.org/2000/svg" data-name="Layer 1" fill="#fff">
	<path d="m264.5 144.529 111.823-64.539v129.084l-111.823 64.544zm-17.055 129.089-111.767-64.544v-129.084l111.767 64.539zm-124.6-52.22a8.607 8.607 0 0 1 -4.278-7.4v-117.572h-84.995v260.21h444.856v-260.21h-85.046v117.574a8.5 8.5 0 0 1 -4.277 7.4l-128.828 74.4a8.8 8.8 0 0 1 -4.277 1.138 8.521 8.521 0 0 1 -4.278-1.142l-128.877-74.396zm133.155-220.737-111.818 64.544 111.818 64.539 111.767-64.539zm156.1 499.869v10.809h-312.253v-10.809a10.816 10.816 0 0 1 10.82-10.8h290.666a10.8 10.8 0 0 1 10.769 10.8zm-52.134-27.869h-207.984c14.745-20.979 23.3-42.211 26.37-65.39h155.3c3.019 23.179 11.574 44.411 26.319 65.39zm152.026-82.454v-327.362h-118.962a7.472 7.472 0 0 1 .352 2.36v14.156h93.551a8.536 8.536 0 0 1 8.555 8.53v277.28a8.541 8.541 0 0 1 -8.555 8.535h-461.916a8.529 8.529 0 0 1 -8.5-8.535v-277.28a8.524 8.524 0 0 1 8.5-8.53h93.55v-14.156a9.244 9.244 0 0 1 .353-2.36h-118.914v327.362z" fill-rule="evenodd">
	</path>
</svg>
