<!-- icon666.com - MILLIONS vector ICONS FREE -->
<svg viewBox="0 0 64 64" xmlns="http://www.w3.org/2000/svg" fill="#fff">
	<g id="Price_Tag_Discount" data-name="Price Tag Discount">
		<circle cx="46" cy="18" r="3">
		</circle>
		<path d="m26.707 33.707a1 1 0 1 0 -1.414 0 1.0012 1.0012 0 0 0 1.414 0z">
		</path>
		<path d="m26 42.001a.999.999 0 1 0 .707.292.9956.9956 0 0 0 -.707-.292z">
		</path>
		<path d="m57 6h-21a.9993.9993 0 0 0 -.707.293l-29 29a.9994.9994 0 0 0 0 1.414l21 21a.9994.9994 0 0 0 1.414 0l29-29a.9993.9993 0 0 0 .293-.707v-21a1 1 0 0 0 -1-1zm-33.1211 24.8789a2.998 2.998 0 1 1 0 4.2422 3.0025 3.0025 0 0 1 0-4.2422zm4.2422 14.2422a3 3 0 1 1 0-4.2422 2.9888 2.9888 0 0 1 0 4.2422zm5.8789-6.1211h-16v-2h16zm12-16a5 5 0 1 1 5-5 5.0059 5.0059 0 0 1 -5 5z">
		</path>
	</g>
</svg>
