<!-- icon666.com - MILLIONS vector ICONS FREE --><svg xmlns="http://www.w3.org/2000/svg" viewBox="0 0 64 64"><g id="Battery_Accumulator" data-name="Battery Accumulator"><path d="M63,14H57V10a1,1,0,0,0-1-1H55V5a1,1,0,0,0-1-1H48a1,1,0,0,0-1,1V9H46a1,1,0,0,0-1,1v4H41.6182l-1.7237-3.4473A1,1,0,0,0,39,10H25a1,1,0,0,0-.8945.5527L22.3818,14H19V10a1,1,0,0,0-1-1H17V5a1,1,0,0,0-1-1H10A1,1,0,0,0,9,5V9H8a1,1,0,0,0-1,1v4H1a1,1,0,0,0-1,1v8a1,1,0,0,0,1,1H4V59a1,1,0,0,0,1,1H59a1,1,0,0,0,1-1V24h3a1,1,0,0,0,1-1V15A1,1,0,0,0,63,14ZM49,6h4V9H49Zm-2,5h8v3H47ZM25.6182,12H38.3818l1,2H24.6182ZM11,6h4V9H11ZM9,11h8v3H9ZM58,58H6V24H58Zm4-36H2V16H62Z"></path><path d="M22,44h7v8a1,1,0,0,0,1.7349.6787l12-13A1,1,0,0,0,42,38H35V30a1,1,0,0,0-1.7349-.6787l-12,13A1,1,0,0,0,22,44ZM33,32.5576V39a1,1,0,0,0,1,1h5.7158L31,49.4424V43a1,1,0,0,0-1-1H24.2842Z"></path><path d="M49,30h1v1a1,1,0,0,0,2,0V30h1a1,1,0,0,0,0-2H52V27a1,1,0,0,0-2,0v1H49a1,1,0,0,0,0,2Z"></path><path d="M11,30h4a1,1,0,0,0,0-2H11a1,1,0,0,0,0,2Z"></path></g></svg>