<svg xmlns="http://www.w3.org/2000/svg" viewBox="0 0 512.002 512.002" style="enable-background:new 0 0 512.002 512.002" xml:space="preserve"><path d="M448.262 102.116c-41.103-41.103-95.753-63.74-153.882-63.74-58.129 0-112.779 22.637-153.882 63.74-41.103 41.103-63.74 95.753-63.74 153.882 0 22.468 3.412 44.549 10.136 65.764L5 369.043a9.997 9.997 0 0 0-3.66 13.66l36.79 63.721c.057.098.127.182.186.277l.152.264c2.296 3.978 4.67 8.093 7.204 11.325 7.871 10.038 17.503 15.336 27.392 15.336 3.137 0 6.3-.534 9.439-1.618 18.24-6.299 31.769-30.598 33.292-58.877l17.949-10.363c41.231 45.122 99.296 70.851 160.636 70.851 58.129 0 112.779-22.637 153.882-63.74 41.103-41.103 63.74-95.753 63.74-153.882s-22.637-112.778-63.74-153.881zM75.976 453.104c-4.678 1.616-9.577-.793-14.565-7.155-.237-.302-.483-.64-.733-.994l33.174-19.153c-3.511 14.57-10.893 24.89-17.876 27.302zM50.45 427.765l-26.79-46.401 94.82-54.744 26.805 46.393-94.835 54.752zm243.93-266.189c52.064 0 94.423 42.357 94.423 94.422 0 52.064-42.358 94.422-94.423 94.422a94.653 94.653 0 0 1-47.631-12.895l92.73-53.538c4.783-2.761 6.422-8.877 3.66-13.66l-36.789-63.722a9.997 9.997 0 0 0-13.66-3.66l-92.731 53.538-.001-.486c0-52.063 42.357-94.421 94.422-94.421zm-83.411-3.131c20.081-17.195 45.508-28.315 73.411-30.474v14.047c-24.05 2.093-45.991 11.654-63.487 26.35l-9.924-9.923zm93.411-16.427v-14.047c27.903 2.159 53.33 13.279 73.411 30.473l-9.924 9.924c-17.496-14.696-39.438-24.257-63.487-26.35zm103.981 103.98c-2.094-24.05-11.654-45.991-26.352-63.487l9.924-9.924c17.195 20.08 28.315 45.508 30.475 73.411h-14.047zm14.048 20c-2.161 27.903-13.281 53.331-30.475 73.412l-9.924-9.924c14.697-17.496 24.258-39.438 26.352-63.488h14.047zm-44.618 87.553c-20.08 17.195-45.508 28.315-73.411 30.474v-14.047c24.05-2.093 45.991-11.654 63.487-26.351l9.924 9.924zm-93.411 16.425v14.048c-25.776-1.977-50.064-11.575-70.176-27.709l13.165-7.601a114.692 114.692 0 0 0 57.011 21.262zM180.4 245.997h-14.047c2.159-27.902 13.28-53.329 30.473-73.41l9.924 9.923c-14.696 17.496-24.258 39.437-26.35 63.487zm.178 21.677-13.172 7.604a129.595 129.595 0 0 1-1.05-9.28h14.051c.049.56.113 1.117.171 1.676zm113.453-42.408 26.789 46.401-158.214 91.344-26.804-46.392 158.229-91.353zm.349 228.354c-54.222 0-105.641-22.131-142.874-61.106l12.436-7.181.009-.004a.036.036 0 0 0 .01-.007l31.844-18.385c27.197 24.221 61.908 37.475 98.575 37.475 40.475 0 77.211-16.293 104.013-42.656.322-.251.637-.517.933-.814.297-.297.564-.611.815-.934 26.361-26.802 42.654-63.537 42.654-104.011s-16.292-77.209-42.654-104.01a10.214 10.214 0 0 0-.815-.935 10.075 10.075 0 0 0-.935-.816c-26.802-26.361-63.536-42.653-104.01-42.653-40.473 0-77.207 16.291-104.008 42.652-.324.252-.64.519-.938.817a9.973 9.973 0 0 0-.817.938c-26.36 26.801-42.651 63.535-42.651 104.007 0 10.075 1.031 20.1 3.038 29.905l-44.339 25.599c-5.251-17.963-7.907-36.58-7.907-55.504 0-108.969 88.653-197.622 197.622-197.622s197.622 88.653 197.622 197.622S403.349 453.62 294.38 453.62z"/><path d="M185.859 116.153c-3.578-4.209-9.889-4.72-14.097-1.144l-.171.148c-4.184 3.581-4.686 9.874-1.116 14.074a9.977 9.977 0 0 0 7.624 3.524 9.962 9.962 0 0 0 6.617-2.506c4.208-3.577 4.72-9.888 1.143-14.096zM446.719 346.311c-4.595-3.063-10.821-1.795-13.885 2.8-3.122 4.556-1.959 10.78 2.597 13.902a9.951 9.951 0 0 0 5.644 1.751 9.989 9.989 0 0 0 8.258-4.349l.178-.263c3.062-4.595 1.803-10.777-2.792-13.841zM165.273 134.723c-4.231-3.547-10.54-2.995-14.088 1.239a187.16 187.16 0 0 0-18.623 26.61c-2.762 4.783-1.123 10.899 3.66 13.66a9.997 9.997 0 0 0 13.66-3.66 167.3 167.3 0 0 1 16.629-23.761c3.55-4.232 2.995-10.54-1.238-14.088zM467.794 292.111c-5.337-1.429-10.818 1.737-12.248 7.071a167.32 167.32 0 0 1-9.913 27.256c-2.331 5.007-.163 10.956 4.844 13.287a9.964 9.964 0 0 0 4.215.937c3.768 0 7.377-2.14 9.072-5.781a187.506 187.506 0 0 0 11.101-30.523c1.429-5.334-1.737-10.817-7.071-12.247z"/></svg>