<svg width="101" height="101" fill="none" xmlns="http://www.w3.org/2000/svg"><path d="M63.72 7.004H35.661c-15.514 0-28.135 19.289-28.135 42.998C7.526 73.71 20.147 93 35.661 93H63.72c15.514 0 28.136-19.29 28.136-42.998 0-23.71-12.623-42.998-28.136-42.998Zm-28.059 3h17.754c-4.232 2.555-7.962 6.632-10.904 11.79l-16.68 7.888-8.433-7.12c4.586-7.724 11.075-12.558 18.263-12.558Zm.107 35.152L22.797 53.02l-12.121-7.348c.521-7.66 2.408-14.671 5.261-20.417l8.697 7.342a1.501 1.501 0 0 0 1.609.21l14.083-6.66c-2.436 5.562-4.043 12.036-4.558 19.009Zm-25.228 3.94 11.479 6.959a1.494 1.494 0 0 0 1.555.001l12.031-7.294c-.008.413-.021.823-.021 1.239 0 7.585 1.297 14.713 3.562 20.906l-9.114 7.087-15.961-7.93c-.053-.025-.109-.041-.163-.061-2.147-5.89-3.383-12.72-3.383-20.003.001-.301.011-.601.015-.903ZM35.661 90c-8.145 0-15.395-6.202-19.991-15.79l13.872 6.892a1.51 1.51 0 0 0 1.588-.16l9.174-7.133c3.167 7.25 7.736 12.946 13.11 16.19H35.661Zm28.059 0c-8.964 0-16.841-7.511-21.292-18.78a1.472 1.472 0 0 0-.267-.681c-2.268-6.007-3.576-13.033-3.576-20.537 0-22.055 11.275-39.998 25.135-39.998 13.86 0 25.136 17.943 25.136 39.998C88.855 72.057 77.58 90 63.72 90Z" fill="#000" stroke="#000" stroke-width="2.2"/><path d="M63.72 23.984c-7.985 0-14.24 11.43-14.24 26.018 0 14.59 6.254 26.02 14.24 26.02 7.986 0 14.24-11.43 14.24-26.02 0-14.589-6.255-26.018-14.24-26.018Zm0 49.036c-6.093 0-11.24-10.54-11.24-23.019 0-12.477 5.147-23.018 11.24-23.018s11.24 10.541 11.24 23.018c0 12.478-5.148 23.02-11.24 23.02Z" fill="#000" stroke="#000" stroke-width="2.2"/></svg>