<!-- icon666.com - MILLIONS vector ICONS FREE --><svg version="1.1" id="Capa_1" xmlns="http://www.w3.org/2000/svg" xmlns:xlink="http://www.w3.org/1999/xlink" x="0px" y="0px" viewBox="0 0 512 512" style="enable-background:new 0 0 512 512;" xml:space="preserve"><g><g><g><rect x="87.405" y="474.063" width="21.868" height="14.995"></rect><path d="M48.324,489.057h29.71v-14.995h-29.71c-4.89,0-8.869-4.413-8.869-9.839v-10.265H24.461v10.265 C24.461,477.917,35.166,489.057,48.324,489.057z"></path><rect x="295.285" y="146.749" width="16.936" height="14.995"></rect><rect x="262.546" y="146.749" width="16.936" height="14.995"></rect><path d="M504.663,185.462L366.909,61.025c-4.34-4.089-10.01-6.341-15.975-6.341h-8.986V0H211.889v54.894 c-11.394,1.513-20.217,11.286-20.217,23.088v125.73h-9.417v-50.893H72.205v50.893H28.143c-15.466,0-28.05,12.582-28.05,28.049 v44.084v165.271v42.835c0,15.466,12.583,28.05,28.05,28.05h198.174h262.291c12.847,0,23.298-10.451,23.298-23.297V202.346 C511.907,195.993,509.267,189.84,504.663,185.462z M226.883,14.995h100.069v12.347H226.883V14.995z M226.883,42.336h100.069 v12.347H226.883V42.336z M160.046,167.813h7.215v35.899h-7.215V167.813z M134.727,167.813h10.324v35.899h-10.324V167.813z M109.409,167.813h10.323v35.899h-10.323V167.813z M87.2,167.813h7.215v35.899H87.2V167.813z M239.371,463.694v14.995v5.261 c0,7.198-5.856,13.055-13.054,13.055H28.143v0.001c-7.198,0-13.055-5.856-13.055-13.055v-42.835h224.283V463.694z M239.372,426.121H15.089V290.839h224.283V426.121z M239.372,275.845H15.089v-44.084c0-7.198,5.856-13.054,13.055-13.054h44.062 h110.051h9.417h34.644c0.481,0,1.024,0.042,1.71,0.132c6.468,0.845,11.344,6.4,11.344,12.922V275.845z M250.439,217.496 c-0.31-0.521-0.636-1.031-0.978-1.529c-0.064-0.093-0.129-0.184-0.193-0.276c-0.358-0.509-0.727-1.009-1.117-1.492 c-0.015-0.019-0.031-0.036-0.046-0.055c-0.385-0.475-0.788-0.935-1.203-1.383c-0.065-0.071-0.129-0.143-0.195-0.213 c-0.417-0.442-0.849-0.87-1.294-1.285c-0.08-0.075-0.162-0.148-0.243-0.223c-0.46-0.42-0.931-0.828-1.419-1.217 c-0.024-0.019-0.048-0.036-0.072-0.055c-0.479-0.379-0.974-0.74-1.477-1.089c-0.075-0.052-0.149-0.106-0.225-0.157 c-0.507-0.343-1.028-0.668-1.557-0.979c-0.097-0.057-0.195-0.112-0.292-0.167c-0.545-0.31-1.098-0.606-1.664-0.879 c-0.037-0.018-0.075-0.034-0.112-0.051c-0.551-0.263-1.114-0.505-1.684-0.733c-0.057-0.023-0.112-0.051-0.169-0.073v-90.341 c0-2.875,2.339-5.214,5.215-5.214h104.998c1.345,0,2.62,0.51,3.593,1.434l115.183,106.523c0.76,0.734,1.277,1.685,1.487,2.71 c0.07,0.341,0.107,0.691,0.107,1.043v236.684c0,2.875-2.339,5.215-5.215,5.215H254.366v-22.579V275.845v-44.084 c0-0.661-0.031-1.316-0.077-1.967c-0.008-0.119-0.015-0.237-0.025-0.355c-0.052-0.624-0.125-1.242-0.217-1.854 c-0.018-0.119-0.039-0.236-0.058-0.354c-0.104-0.632-0.222-1.259-0.368-1.876c-0.002-0.01-0.005-0.02-0.008-0.03 c-0.146-0.614-0.317-1.218-0.503-1.816c-0.033-0.107-0.064-0.214-0.099-0.32c-0.188-0.581-0.395-1.154-0.619-1.718 c-0.043-0.108-0.088-0.214-0.132-0.321c-0.239-0.579-0.49-1.151-0.766-1.71c-0.009-0.018-0.019-0.035-0.027-0.053 c-0.273-0.552-0.568-1.09-0.875-1.62C250.542,217.675,250.492,217.585,250.439,217.496z M488.608,497.005h-237.47 c0.054-0.102,0.1-0.209,0.153-0.312c0.158-0.309,0.313-0.621,0.459-0.936c0.079-0.169,0.156-0.339,0.231-0.51 c0.137-0.309,0.267-0.622,0.393-0.937c0.067-0.168,0.136-0.335,0.199-0.505c0.139-0.368,0.267-0.741,0.391-1.116 c0.038-0.116,0.081-0.229,0.117-0.346c0.154-0.489,0.294-0.984,0.421-1.483c0.035-0.136,0.063-0.275,0.095-0.412 c0.088-0.371,0.172-0.744,0.245-1.12c0.036-0.184,0.067-0.37,0.1-0.556c0.059-0.34,0.113-0.681,0.159-1.025 c0.026-0.193,0.052-0.386,0.074-0.58c0.042-0.362,0.074-0.727,0.102-1.094c0.013-0.17,0.029-0.338,0.039-0.509 c0.031-0.536,0.05-1.075,0.05-1.617v-5.261h207.501c11.143,0,20.21-9.066,20.21-20.21V221.796c0-5.51-2.29-10.848-6.283-14.645 L360.595,100.617c-2.825-2.672-6.305-4.444-10.056-5.163c-1.251-0.24-2.532-0.362-3.83-0.362H241.712 c-11.143,0-20.21,9.066-20.21,20.209v88.411h-14.836V77.981c0-4.578,3.725-8.303,8.303-8.303h126.977h8.986 c2.139,0,4.171,0.813,5.722,2.286l137.735,124.42c1.603,1.556,2.521,3.724,2.521,5.96v286.357h0.001 C496.912,493.28,493.186,497.005,488.608,497.005z"></path><path d="M351.789,371.384c24.755,0,44.894-20.14,44.894-44.895c0-27.315-34.257-97.938-38.163-105.901l-6.703-13.666 l-6.748,13.645c-3.908,7.901-38.174,78.002-38.174,105.922C306.895,351.244,327.034,371.384,351.789,371.384z M351.767,241.347 c12.019,26.085,29.921,68.52,29.921,85.142c0,16.487-13.413,29.9-29.899,29.9c-16.487,0-29.9-13.413-29.9-29.9 C321.889,309.491,339.751,267.279,351.767,241.347z"></path><rect x="268.852" y="402.067" width="165.875" height="14.995"></rect><rect x="68.658" y="229.653" width="117.145" height="14.995"></rect><rect x="268.852" y="430.441" width="165.875" height="14.994"></rect><path d="M127.23,414.075c16.711,0,30.305-13.595,30.305-30.306c0-17.319-21.161-60.958-23.574-65.877l-6.704-13.666 l-6.748,13.645c-2.414,4.881-23.585,48.205-23.585,65.898C96.925,400.48,110.52,414.075,127.23,414.075z M127.21,338.88 c7.5,16.819,15.331,36.938,15.331,44.89c0,8.443-6.868,15.311-15.31,15.311s-15.31-6.868-15.31-15.311 C111.919,375.639,119.725,355.596,127.21,338.88z"></path></g></g></g></svg>