<!-- icon666.com - MILLIONS vector ICONS FREE --><svg version="1.1" id="Capa_1" xmlns="http://www.w3.org/2000/svg" xmlns:xlink="http://www.w3.org/1999/xlink" x="0px" y="0px" viewBox="0 0 512 512" style="enable-background:new 0 0 512 512;" xml:space="preserve"><g><g><path d="M291.676,177.784c-2.756-3.76-8.196-4.214-11.492-0.918l-0.002,0.002c-2.633,2.633-2.97,6.795-0.768,9.797 c14.477,19.728,23.038,44.054,23.038,70.344c0.001,65.978-53.772,119.483-119.75,119.164 c-66.751-0.323-120.703-55.811-118.513-123.117c2.022-62.139,52.233-112.693,114.358-115.116 c26.294-1.025,50.813,6.52,70.987,20.062c2.99,2.008,6.987,1.597,9.534-0.95c3.349-3.349,2.862-8.955-1.068-11.596 c-22.345-15.016-49.425-23.506-78.49-22.703c-71.233,1.966-128.938,60.016-130.498,131.26 c-1.674,76.432,60.858,138.959,137.291,137.277c71.127-1.565,129.124-59.096,131.239-130.209 C318.468,229.917,308.712,201.024,291.676,177.784z"></path></g></g><g><g><path d="M183.29,150.469c-58.747,0-106.54,47.794-106.54,106.54s47.794,106.54,106.54,106.54 c58.747,0,106.54-47.794,106.54-106.54S242.037,150.469,183.29,150.469z M183.29,348.402c-50.394,0-91.392-40.998-91.392-91.392 c0-50.394,40.998-91.393,91.392-91.393c50.394,0,91.393,40.998,91.393,91.393C274.682,307.404,233.684,348.402,183.29,348.402z"></path></g></g><g><g><path d="M183.29,219.14c-20.882,0-37.87,16.988-37.87,37.87c0,20.882,16.988,37.87,37.87,37.87c20.882,0,37.87-16.988,37.87-37.87 C221.16,236.128,204.172,219.14,183.29,219.14z M183.29,279.732c-12.529,0-22.722-10.194-22.722-22.722 c0-12.528,10.193-22.722,22.722-22.722s22.722,10.194,22.722,22.722C206.012,269.538,195.819,279.732,183.29,279.732z"></path></g></g><g><g><path d="M484.169,60.087H347.957c-15.346,0-27.831,12.484-27.831,27.831v47.172c-2.245-2.514-4.555-4.969-6.935-7.356 c-0.098-0.11-0.191-0.222-0.296-0.327c-0.159-0.159-0.325-0.305-0.494-0.446c-13.339-13.227-28.679-24.44-45.328-33.01 c-26.074-13.424-54.262-20.23-83.784-20.23c-50.113,0-95.587,20.224-128.708,52.928c-0.312,0.228-0.616,0.475-0.898,0.757 c-0.282,0.282-0.528,0.585-0.756,0.897C20.222,161.423,0,206.896,0,257.01c0,50.113,20.222,95.586,52.928,128.708 c0.228,0.312,0.475,0.615,0.756,0.897s0.585,0.528,0.897,0.756C87.702,420.076,133.177,440.3,183.29,440.3 c29.323,0,58.487-7.094,84.341-20.515c16.416-8.523,31.537-19.615,44.713-32.67c0.19-0.156,0.376-0.322,0.552-0.5 c0.147-0.147,0.282-0.302,0.414-0.458c2.338-2.35,4.608-4.766,6.816-7.238v45.164c0,15.346,12.485,27.831,27.831,27.831h136.213 c15.346,0,27.831-12.484,27.831-27.831V87.918C512,72.571,499.515,60.087,484.169,60.087z M320.127,355.012 c-0.367,0.335-0.705,0.709-1.008,1.124c-3.655,4.999-7.576,9.753-11.718,14.273l-3.074-3.074 c-2.959-2.957-7.754-2.958-10.712,0.001c-2.958,2.958-2.957,7.754,0,10.711l3.058,3.058 c-28.885,26.306-66.393,42.058-105.809,43.856v-4.354c0-4.184-3.391-7.574-7.574-7.574c-4.183,0-7.574,3.39-7.574,7.574v4.366 c-40.66-1.812-77.61-18.127-105.786-43.893l3.035-3.034c2.958-2.958,2.958-7.754,0-10.711c-2.959-2.959-7.754-2.958-10.712-0.001 l-3.035,3.035c-25.765-28.176-42.08-65.126-43.892-105.786h4.366c4.183,0,7.574-3.39,7.574-7.574c0-4.184-3.391-7.574-7.574-7.574 h-4.366c1.812-40.66,18.127-77.61,43.893-105.786l3.035,3.035c1.479,1.478,3.417,2.218,5.355,2.218s3.877-0.739,5.356-2.219 c2.958-2.958,2.957-7.754,0-10.711l-3.035-3.034c28.175-25.767,65.125-42.081,105.785-43.893v4.366 c0,4.184,3.391,7.574,7.574,7.574c4.183,0,7.574-3.39,7.574-7.574V89.06c39.37,1.802,76.91,17.567,105.803,43.861l-3.052,3.052 c-2.958,2.958-2.958,7.754,0,10.711c1.479,1.479,3.417,2.219,5.356,2.219s3.877-0.739,5.355-2.218l3.072-3.072 c3.89,4.242,7.587,8.688,11.046,13.351c0.484,0.653,1.055,1.203,1.682,1.651V355.012z M356.481,436.765h-8.524 c-6.993,0-12.683-5.69-12.683-12.683V87.918c0-6.993,5.69-12.683,12.683-12.683h8.524V436.765z M460.497,436.765h-88.868v-76.792 l39.406,29.345c1.342,0.999,2.933,1.499,4.523,1.499c1.596,0,3.19-0.503,4.534-1.507l40.405-30.198V436.765z M460.497,340.457 c-0.522,0.228-1.028,0.512-1.505,0.867l-43.443,32.467l-42.931-31.97c-0.317-0.236-0.65-0.435-0.989-0.614v-13.549l39.406,29.345 c1.342,0.999,2.933,1.499,4.523,1.499c1.596,0,3.19-0.503,4.534-1.507l40.405-30.198V340.457z M460.497,308.141 c-0.522,0.228-1.028,0.512-1.505,0.867l-43.443,32.467l-42.931-31.97c-0.317-0.236-0.65-0.435-0.989-0.614v-40.816l39.406,29.345 c1.342,0.999,2.933,1.499,4.523,1.499c1.596,0,3.19-0.503,4.534-1.507l40.405-30.198V308.141z M460.497,248.559 c-0.522,0.228-1.028,0.513-1.505,0.868l-43.443,32.467l-42.931-31.97c-0.317-0.236-0.65-0.435-0.989-0.614v-13.55l39.406,29.345 c1.342,0.999,2.933,1.499,4.523,1.499c1.596,0,3.19-0.503,4.534-1.507l40.405-30.198V248.559z M460.497,216.245 c-0.522,0.228-1.028,0.512-1.505,0.867l-43.443,32.467l-42.931-31.97c-0.317-0.236-0.65-0.435-0.989-0.614v-40.817l39.406,29.345 c1.342,0.999,2.933,1.499,4.523,1.499c1.596,0,3.19-0.503,4.534-1.507l40.405-30.198V216.245z M460.497,156.662 c-0.522,0.228-1.028,0.513-1.505,0.868l-43.443,32.467l-42.931-31.97c-0.317-0.236-0.65-0.435-0.989-0.614v-13.55l39.406,29.345 c1.342,0.999,2.933,1.499,4.523,1.499c1.596,0,3.19-0.503,4.534-1.507l40.405-30.198V156.662z M460.497,124.347 c-0.522,0.228-1.028,0.512-1.505,0.867l-43.443,32.467l-42.931-31.97c-0.317-0.236-0.65-0.434-0.989-0.614V75.235h88.868V124.347z M496.852,424.082c0,6.993-5.69,12.683-12.683,12.683h-8.524V75.235h8.524c6.993,0,12.683,5.69,12.683,12.683V424.082z"></path></g></g><g><g><path d="M193.389,172.686h-20.197c-11.416,0-20.702,9.287-20.702,20.702s9.287,20.702,20.702,20.702h20.197 c11.415,0,20.702-9.287,20.702-20.702S204.804,172.686,193.389,172.686z M193.389,198.943h-20.197 c-3.063,0-5.554-2.492-5.554-5.554s2.491-5.554,5.554-5.554h20.197c3.063,0,5.554,2.492,5.554,5.554 S196.451,198.943,193.389,198.943z"></path></g></g><g><g><path d="M246.911,226.209c-11.415,0-20.702,9.287-20.702,20.702v20.197c0,11.415,9.287,20.702,20.702,20.702 s20.702-9.287,20.702-20.702v-20.197C267.613,235.496,258.327,226.209,246.911,226.209z M252.466,267.108 c0,3.062-2.491,5.554-5.554,5.554s-5.554-2.492-5.554-5.554v-20.197c0-3.062,2.491-5.554,5.554-5.554s5.554,2.492,5.554,5.554 V267.108z"></path></g></g><g><g><path d="M193.389,299.929h-20.197c-11.416,0-20.702,9.287-20.702,20.702s9.287,20.702,20.702,20.702h20.197 c11.415,0,20.702-9.287,20.702-20.702S204.804,299.929,193.389,299.929z M193.389,326.185h-20.197 c-3.063,0-5.554-2.492-5.554-5.554s2.491-5.554,5.554-5.554h20.197c3.063,0,5.554,2.492,5.554,5.554 S196.451,326.185,193.389,326.185z"></path></g></g><g><g><path d="M119.669,226.209c-11.415,0-20.702,9.287-20.702,20.702v20.197c0,11.415,9.287,20.702,20.702,20.702 s20.702-9.287,20.702-20.702v-20.197C140.371,235.496,131.084,226.209,119.669,226.209z M125.223,267.108 c0,3.062-2.491,5.554-5.554,5.554s-5.554-2.492-5.554-5.554v-20.197c0-3.062,2.491-5.554,5.554-5.554s5.554,2.492,5.554,5.554 V267.108z"></path></g></g></svg>