<!-- icon666.com - MILLIONS vector ICONS FREE --><svg version="1.1" id="Capa_1" xmlns="http://www.w3.org/2000/svg" xmlns:xlink="http://www.w3.org/1999/xlink" x="0px" y="0px" viewBox="0 0 511.999 511.999" style="enable-background:new 0 0 511.999 511.999;" xml:space="preserve"><g><g><path d="M318.99,62.989H193.009C86.583,62.989,0,149.574,0,255.999s86.584,193.01,193.009,193.01H318.99 c106.426,0,193.009-86.584,193.009-193.01S425.416,62.989,318.99,62.989z M193.009,419.008 c-89.883,0-163.008-73.125-163.008-163.009S103.127,92.991,193.009,92.991h22.743c-53.918,34.269-89.771,94.527-89.771,163.009 s35.854,128.74,89.771,163.009H193.009z M318.99,419.008c-89.883,0-163.008-73.125-163.008-163.009S229.108,92.991,318.99,92.991 s163.008,73.125,163.008,163.009S408.873,419.008,318.99,419.008z"></path></g></g><g><g><path d="M318.99,193.678c-34.365,0-62.322,27.957-62.322,62.322s27.958,62.322,62.322,62.322 c34.365,0,62.323-27.957,62.323-62.322S353.355,193.678,318.99,193.678z M318.99,288.32c-17.822,0-32.32-14.499-32.32-32.32 s14.5-32.32,32.32-32.32c17.822,0,32.322,14.499,32.322,32.32S336.812,288.32,318.99,288.32z"></path></g></g></svg>