<svg xmlns="http://www.w3.org/2000/svg" version="1.1" xlink="http://www.w3.org/1999/xlink" xmlns:svgjs="http://svgjs.com/svgjs" width="100%" height="100%" viewBox="1.2999999523162842 -30.780000686645508 340.5299987792969 31.520000457763672"><g fill="#242424"><path d="M18.38 -29.96C17.02 -30.5 15.48 -30.78 13.74 -30.78C11.31 -30.78 9.17 -30.18 7.3 -28.98C5.44 -27.78 3.97 -26 2.9 -23.65C1.84 -21.29 1.3 -18.44 1.3 -15.09C1.3 -11.65 1.82 -8.74 2.86 -6.37C3.9 -4 5.35 -2.23 7.22 -1.04C9.08 0.14 11.27 0.74 13.79 0.74C15.58 0.74 17.22 0.38 18.71 -0.35C20.19 -1.07 21.47 -1.99 22.54 -3.12L19.42 -6.94C18.47 -6.18 17.61 -5.61 16.84 -5.22C16.08 -4.83 15.2 -4.64 14.22 -4.64C10.43 -4.64 8.54 -8.12 8.54 -15.09C8.54 -22.11 10.42 -25.62 14.18 -25.62C15.04 -25.62 15.86 -25.45 16.62 -25.12C17.39 -24.79 18.16 -24.29 18.94 -23.63L22.24 -27.48C21.02 -28.58 19.74 -29.41 18.38 -29.96Z M63.81 -26.77C61.67 -29.44 58.62 -30.78 54.66 -30.78C50.73 -30.78 47.69 -29.42 45.53 -26.7C43.38 -23.99 42.3 -20.1 42.3 -15.04C42.3 -9.9 43.38 -5.98 45.53 -3.29C47.69 -0.61 50.73 0.74 54.66 0.74C58.59 0.74 61.63 -0.62 63.79 -3.34C65.94 -6.05 67.01 -9.96 67.01 -15.04C67.01 -20.19 65.95 -24.1 63.81 -26.77ZM50.78 -23.24C51.6 -24.88 52.9 -25.71 54.66 -25.71C56.42 -25.71 57.72 -24.88 58.54 -23.24C59.36 -21.59 59.78 -18.86 59.78 -15.04C59.78 -11.17 59.36 -8.42 58.54 -6.78C57.72 -5.15 56.42 -4.34 54.66 -4.34C52.93 -4.34 51.64 -5.15 50.8 -6.78C49.96 -8.42 49.54 -11.17 49.54 -15.04C49.54 -18.86 49.96 -21.59 50.78 -23.24Z M109.88 -30.04L92.11 -30.04L90.51 -14.74C90.22 -11.99 89.93 -9.97 89.66 -8.67C89.39 -7.37 89.02 -6.39 88.58 -5.74C88.13 -5.09 87.47 -4.57 86.6 -4.16L88.25 0.74C90.27 0.19 91.83 -0.61 92.93 -1.65C94.03 -2.69 94.88 -4.18 95.49 -6.11C96.1 -8.05 96.59 -10.79 96.96 -14.35L98.05 -24.75L102.95 -24.75L102.95 0L109.88 0Z M154.23 -26.77C152.09 -29.44 149.04 -30.78 145.08 -30.78C141.15 -30.78 138.11 -29.42 135.95 -26.7C133.8 -23.99 132.72 -20.1 132.72 -15.04C132.72 -9.9 133.8 -5.98 135.95 -3.29C138.11 -0.61 141.15 0.74 145.08 0.74C149.01 0.74 152.05 -0.62 154.2 -3.34C156.36 -6.05 157.43 -9.96 157.43 -15.04C157.43 -20.19 156.36 -24.1 154.23 -26.77ZM141.2 -23.24C142.02 -24.88 143.32 -25.71 145.08 -25.71C146.84 -25.71 148.13 -24.88 148.96 -23.24C149.78 -21.59 150.19 -18.86 150.19 -15.04C150.19 -11.17 149.78 -8.42 148.96 -6.78C148.13 -5.15 146.84 -4.34 145.08 -4.34C143.34 -4.34 142.06 -5.15 141.22 -6.78C140.38 -8.42 139.96 -11.17 139.96 -15.04C139.96 -18.86 140.38 -21.59 141.2 -23.24Z M201.6 -30.04L180.27 -30.04L180.27 0L187.21 0L187.21 -24.71L194.62 -24.71L194.62 0L201.6 0Z M242.93 -27.57C240.87 -29.22 237.91 -30.04 234.07 -30.04L225.48 -30.04L225.48 0L232.42 0L232.42 -10.06L234.72 -10.06C238.24 -10.06 241.01 -10.92 243.02 -12.64C245.03 -14.36 246.03 -16.91 246.03 -20.29C246.03 -23.5 245 -25.92 242.93 -27.57ZM237.75 -16.28C236.97 -15.48 235.77 -15.09 234.15 -15.09L232.42 -15.09L232.42 -25.1L234.15 -25.1C235.8 -25.1 237.01 -24.7 237.77 -23.91C238.54 -23.11 238.92 -21.89 238.92 -20.24C238.92 -18.4 238.53 -17.07 237.75 -16.28Z M288.64 -26.77C286.5 -29.44 283.45 -30.78 279.49 -30.78C275.56 -30.78 272.52 -29.42 270.37 -26.7C268.21 -23.99 267.14 -20.1 267.14 -15.04C267.14 -9.9 268.21 -5.98 270.37 -3.29C272.52 -0.61 275.56 0.74 279.49 0.74C283.42 0.74 286.47 -0.62 288.62 -3.34C290.77 -6.05 291.85 -9.96 291.85 -15.04C291.85 -20.19 290.78 -24.1 288.64 -26.77ZM275.61 -23.24C276.44 -24.88 277.73 -25.71 279.49 -25.71C281.26 -25.71 282.55 -24.88 283.37 -23.24C284.2 -21.59 284.61 -18.86 284.61 -15.04C284.61 -11.17 284.2 -8.42 283.37 -6.78C282.55 -5.15 281.26 -4.34 279.49 -4.34C277.76 -4.34 276.47 -5.15 275.63 -6.78C274.8 -8.42 274.38 -11.17 274.38 -15.04C274.38 -18.86 274.79 -21.59 275.61 -23.24Z M341.83 0L339.83 -30.04L331.12 -30.04L327.65 -9.58L323.88 -30.04L315.21 -30.04L313.21 0L319.8 0L320.19 -11.75C320.25 -14.18 320.28 -15.94 320.28 -17.04C320.28 -19.49 320.22 -21.82 320.11 -24.02L324.27 -3.16L330.77 -3.16L334.72 -24.02C334.66 -23.06 334.63 -21.57 334.63 -19.55C334.63 -17.9 334.69 -15.35 334.8 -11.88L335.19 0Z"></path></g></svg>