<svg xmlns="http://www.w3.org/2000/svg" version="1.1" xlink="http://www.w3.org/1999/xlink" xmlns:svgjs="http://svgjs.com/svgjs" width="100%" height="100%" viewBox="1.2000000476837158 -13.649999618530273 340.5199890136719 17.40999984741211"><g fill="#3b3b3b"><path d="M9.29 0L9.29 -11.98L6.59 -11.98L3.09 -2.31C3.18 -3.12 3.25 -3.83 3.3 -4.46C3.36 -5.08 3.38 -5.86 3.38 -6.78L3.38 -11.98L1.2 -11.98L1.2 0L3.94 0L7.4 -9.68C7.21 -8.21 7.11 -6.7 7.11 -5.15L7.11 0Z M16.42 0L18.59 0L18.59 -9.17L16.42 -9.17L16.42 -5.5L13.8 -5.5L13.8 -9.17L11.64 -9.17L11.64 0L13.8 0L13.8 -3.85L16.42 -3.85Z M27.09 -9.17L19.79 -9.17L19.79 -7.53L22.3 -7.53L22.3 0L24.47 0L24.47 -7.53L26.81 -7.53Z M34.65 -3.92C34.68 -4.4 34.7 -4.7 34.7 -4.8C34.7 -6.29 34.37 -7.44 33.73 -8.24C33.08 -9.03 32.18 -9.43 31.02 -9.43C29.83 -9.43 28.9 -8.99 28.24 -8.09C27.57 -7.19 27.24 -6.01 27.24 -4.53C27.24 -3.02 27.59 -1.85 28.28 -1.01C28.98 -0.16 29.96 0.26 31.25 0.26C32.43 0.26 33.47 -0.14 34.39 -0.94L33.48 -2.17C33.11 -1.9 32.77 -1.71 32.44 -1.58C32.12 -1.45 31.77 -1.39 31.4 -1.39C30.83 -1.39 30.37 -1.58 30.05 -1.96C29.73 -2.34 29.53 -2.99 29.46 -3.92ZM32.56 -5.43L32.56 -5.32L29.46 -5.32C29.51 -6.25 29.66 -6.91 29.92 -7.31C30.18 -7.71 30.55 -7.91 31.04 -7.91C31.57 -7.91 31.96 -7.7 32.2 -7.29C32.44 -6.88 32.56 -6.26 32.56 -5.43Z M43.15 -8.18C42.65 -9.01 41.89 -9.43 40.87 -9.43C39.89 -9.43 39.07 -8.98 38.43 -8.06L38.32 -9.17L36.41 -9.17L36.41 3.76L38.58 3.52L38.58 -0.73C39.11 -0.07 39.8 0.26 40.65 0.26C41.66 0.26 42.46 -0.18 43.04 -1.07C43.62 -1.95 43.91 -3.13 43.91 -4.61C43.91 -6.15 43.65 -7.34 43.15 -8.18ZM41.23 -2.16C40.96 -1.66 40.56 -1.4 40.04 -1.4C39.46 -1.4 38.97 -1.71 38.58 -2.32L38.58 -6.59C39.03 -7.39 39.57 -7.79 40.19 -7.79C40.68 -7.79 41.04 -7.54 41.29 -7.06C41.53 -6.57 41.65 -5.75 41.65 -4.6C41.65 -3.47 41.51 -2.66 41.23 -2.16Z M50.55 0L52.71 0L52.71 -9.17L50.55 -9.17L50.55 -5.5L47.93 -5.5L47.93 -9.17L45.76 -9.17L45.76 0L47.93 0L47.93 -3.85L50.55 -3.85Z M61.92 -3.92C61.96 -4.4 61.97 -4.7 61.97 -4.8C61.97 -6.29 61.65 -7.44 61 -8.24C60.36 -9.03 59.45 -9.43 58.3 -9.43C57.11 -9.43 56.18 -8.99 55.51 -8.09C54.85 -7.19 54.52 -6.01 54.52 -4.53C54.52 -3.02 54.86 -1.85 55.56 -1.01C56.25 -0.16 57.24 0.26 58.52 0.26C59.7 0.26 60.75 -0.14 61.66 -0.94L60.76 -2.17C60.39 -1.9 60.04 -1.71 59.72 -1.58C59.4 -1.45 59.05 -1.39 58.68 -1.39C58.1 -1.39 57.65 -1.58 57.33 -1.96C57 -2.34 56.81 -2.99 56.74 -3.92ZM59.84 -5.43L59.84 -5.32L56.74 -5.32C56.78 -6.25 56.94 -6.91 57.2 -7.31C57.46 -7.71 57.83 -7.91 58.32 -7.91C58.85 -7.91 59.23 -7.7 59.48 -7.29C59.72 -6.88 59.84 -6.26 59.84 -5.43Z M69.5 -9.17L62.2 -9.17L62.2 -7.53L64.71 -7.53L64.71 0L66.88 0L66.88 -7.53L69.22 -7.53Z M69.9 -4.56L74.7 -4.56L74.7 -6.29L69.9 -6.29Z M85.49 0L84.76 -9.17L82.12 -9.17L80.77 -2.93L79.49 -9.17L76.89 -9.17L76.18 0L78.22 0L78.41 -3.83C78.44 -4.21 78.45 -4.77 78.45 -5.5C78.45 -6.24 78.44 -6.8 78.41 -7.2L79.85 -0.97L81.69 -0.97L83.2 -7.21C83.16 -6.55 83.15 -5.94 83.15 -5.38C83.15 -4.89 83.16 -4.38 83.2 -3.83L83.42 0Z M93.71 -1.59C93.61 -1.74 93.57 -1.98 93.57 -2.31L93.57 -6.33C93.57 -8.4 92.48 -9.43 90.31 -9.43C89.31 -9.43 88.29 -9.21 87.24 -8.77L87.74 -7.33C88.62 -7.65 89.36 -7.8 89.96 -7.8C90.48 -7.8 90.86 -7.68 91.09 -7.44C91.32 -7.2 91.43 -6.79 91.43 -6.21L91.43 -5.64L90.52 -5.64C89.27 -5.64 88.31 -5.37 87.65 -4.85C87 -4.32 86.67 -3.56 86.67 -2.57C86.67 -1.72 86.91 -1.04 87.39 -0.52C87.88 0 88.53 0.26 89.35 0.26C90.43 0.26 91.25 -0.18 91.82 -1.08C91.97 -0.66 92.19 -0.35 92.5 -0.16C92.81 0.04 93.21 0.17 93.71 0.23L94.16 -1.21C93.95 -1.31 93.8 -1.43 93.71 -1.59ZM91.43 -2.44C91.08 -1.69 90.58 -1.32 89.94 -1.32C89.6 -1.32 89.33 -1.44 89.13 -1.67C88.93 -1.91 88.83 -2.26 88.83 -2.72C88.83 -3.81 89.47 -4.35 90.74 -4.35L91.43 -4.35Z M98.04 0L98.04 -7.49L101.27 -7.49L101.53 -9.17L95.87 -9.17L95.87 0Z M108.45 -1.59C108.35 -1.74 108.31 -1.98 108.31 -2.31L108.31 -6.33C108.31 -8.4 107.22 -9.43 105.05 -9.43C104.05 -9.43 103.03 -9.21 101.98 -8.77L102.48 -7.33C103.36 -7.65 104.1 -7.8 104.7 -7.8C105.22 -7.8 105.6 -7.68 105.83 -7.44C106.06 -7.2 106.17 -6.79 106.17 -6.21L106.17 -5.64L105.25 -5.64C104.01 -5.64 103.05 -5.37 102.39 -4.85C101.73 -4.32 101.41 -3.56 101.41 -2.57C101.41 -1.72 101.65 -1.04 102.13 -0.52C102.62 0 103.27 0.26 104.09 0.26C105.17 0.26 105.99 -0.18 106.56 -1.08C106.71 -0.66 106.93 -0.35 107.24 -0.16C107.55 0.04 107.95 0.17 108.45 0.23L108.9 -1.21C108.69 -1.31 108.54 -1.43 108.45 -1.59ZM106.17 -2.44C105.82 -1.69 105.32 -1.32 104.68 -1.32C104.34 -1.32 104.06 -1.44 103.87 -1.67C103.67 -1.91 103.57 -2.26 103.57 -2.72C103.57 -3.81 104.21 -4.35 105.48 -4.35L106.17 -4.35Z M115.3 -8.75C114.7 -9.2 113.95 -9.43 113.06 -9.43C112.4 -9.43 111.81 -9.35 111.29 -9.17C110.77 -9 110.28 -8.73 109.83 -8.38L110.84 -7.21C111.16 -7.43 111.47 -7.6 111.76 -7.7C112.05 -7.8 112.37 -7.86 112.73 -7.86C113.12 -7.86 113.43 -7.77 113.66 -7.59C113.9 -7.41 114.01 -7.13 114.01 -6.75C114.01 -5.91 113.49 -5.5 112.45 -5.5L111.62 -5.5L111.5 -4.01L112.62 -4.01C113.2 -4.01 113.64 -3.91 113.93 -3.72C114.21 -3.53 114.36 -3.2 114.36 -2.74C114.36 -1.81 113.83 -1.35 112.78 -1.35C112.36 -1.35 111.99 -1.41 111.67 -1.53C111.35 -1.64 110.99 -1.83 110.61 -2.1L109.57 -0.87C110.5 -0.12 111.6 0.26 112.88 0.26C114.01 0.26 114.91 0.01 115.6 -0.49C116.29 -1 116.63 -1.72 116.63 -2.67C116.63 -3.33 116.44 -3.84 116.07 -4.19C115.69 -4.54 115.12 -4.78 114.36 -4.91C114.99 -5.08 115.46 -5.33 115.76 -5.65C116.06 -5.98 116.21 -6.4 116.21 -6.92C116.21 -7.68 115.91 -8.29 115.3 -8.75Z M125.46 0L125.46 -9.17L123.17 -9.17L120.17 -2.22C120.26 -2.55 120.34 -3.01 120.39 -3.57C120.45 -4.14 120.48 -4.76 120.48 -5.44L120.48 -9.17L118.43 -9.17L118.43 0L120.71 0L123.74 -6.97C123.53 -6.03 123.43 -4.95 123.43 -3.73L123.43 0Z M132.53 0L134.7 0L134.7 -9.17L132.53 -9.17L132.53 -5.5L129.91 -5.5L129.91 -9.17L127.75 -9.17L127.75 0L129.91 0L129.91 -3.85L132.53 -3.85Z M145.51 -8.75C144.9 -9.2 144.15 -9.43 143.26 -9.43C142.61 -9.43 142.02 -9.35 141.5 -9.17C140.98 -9 140.49 -8.73 140.04 -8.38L141.05 -7.21C141.37 -7.43 141.68 -7.6 141.96 -7.7C142.25 -7.8 142.58 -7.86 142.94 -7.86C143.33 -7.86 143.64 -7.77 143.87 -7.59C144.1 -7.41 144.22 -7.13 144.22 -6.75C144.22 -5.91 143.7 -5.5 142.66 -5.5L141.83 -5.5L141.7 -4.01L142.83 -4.01C143.41 -4.01 143.84 -3.91 144.13 -3.72C144.42 -3.53 144.57 -3.2 144.57 -2.74C144.57 -1.81 144.04 -1.35 142.99 -1.35C142.57 -1.35 142.2 -1.41 141.88 -1.53C141.55 -1.64 141.2 -1.83 140.82 -2.1L139.78 -0.87C140.7 -0.12 141.81 0.26 143.09 0.26C144.21 0.26 145.12 0.01 145.81 -0.49C146.49 -1 146.84 -1.72 146.84 -2.67C146.84 -3.33 146.65 -3.84 146.27 -4.19C145.9 -4.54 145.33 -4.78 144.57 -4.91C145.2 -5.08 145.67 -5.33 145.97 -5.65C146.27 -5.98 146.42 -6.4 146.42 -6.92C146.42 -7.68 146.12 -8.29 145.51 -8.75Z M154.88 -1.59C154.79 -1.74 154.74 -1.98 154.74 -2.31L154.74 -6.33C154.74 -8.4 153.66 -9.43 151.48 -9.43C150.49 -9.43 149.47 -9.21 148.41 -8.77L148.92 -7.33C149.8 -7.65 150.54 -7.8 151.14 -7.8C151.66 -7.8 152.03 -7.68 152.26 -7.44C152.5 -7.2 152.61 -6.79 152.61 -6.21L152.61 -5.64L151.69 -5.64C150.44 -5.64 149.49 -5.37 148.83 -4.85C148.17 -4.32 147.84 -3.56 147.84 -2.57C147.84 -1.72 148.09 -1.04 148.57 -0.52C149.06 0 149.71 0.26 150.53 0.26C151.61 0.26 152.43 -0.18 152.99 -1.08C153.14 -0.66 153.37 -0.35 153.68 -0.16C153.98 0.04 154.39 0.17 154.88 0.23L155.33 -1.21C155.13 -1.31 154.98 -1.43 154.88 -1.59ZM152.61 -2.44C152.25 -1.69 151.76 -1.32 151.12 -1.32C150.77 -1.32 150.5 -1.44 150.3 -1.67C150.11 -1.91 150.01 -2.26 150.01 -2.72C150.01 -3.81 150.65 -4.35 151.92 -4.35L152.61 -4.35Z M161.78 0L163.95 0L163.95 -9.17L157.05 -9.17L157.05 0L159.22 0L159.22 -7.53L161.78 -7.53Z M172.6 -9.17L170.44 -9.17L170.44 -5.12C170.25 -4.88 170.01 -4.7 169.71 -4.55C169.41 -4.41 169.12 -4.34 168.84 -4.34C168.51 -4.34 168.26 -4.43 168.1 -4.61C167.93 -4.8 167.85 -5.1 167.85 -5.53L167.85 -9.17L165.69 -9.17L165.69 -5.31C165.69 -4.49 165.89 -3.84 166.31 -3.38C166.73 -2.92 167.33 -2.69 168.11 -2.69C169.03 -2.69 169.8 -3.01 170.44 -3.64L170.44 0L172.6 0Z M181.31 -1.59C181.22 -1.74 181.17 -1.98 181.17 -2.31L181.17 -6.33C181.17 -8.4 180.08 -9.43 177.91 -9.43C176.92 -9.43 175.89 -9.21 174.84 -8.77L175.34 -7.33C176.22 -7.65 176.96 -7.8 177.56 -7.8C178.08 -7.8 178.46 -7.68 178.69 -7.44C178.92 -7.2 179.04 -6.79 179.04 -6.21L179.04 -5.64L178.12 -5.64C176.87 -5.64 175.92 -5.37 175.26 -4.85C174.6 -4.32 174.27 -3.56 174.27 -2.57C174.27 -1.72 174.51 -1.04 175 -0.52C175.48 0 176.14 0.26 176.96 0.26C178.03 0.26 178.85 -0.18 179.42 -1.08C179.57 -0.66 179.8 -0.35 180.1 -0.16C180.41 0.04 180.81 0.17 181.31 0.23L181.76 -1.21C181.55 -1.31 181.4 -1.43 181.31 -1.59ZM179.04 -2.44C178.68 -1.69 178.18 -1.32 177.55 -1.32C177.2 -1.32 176.93 -1.44 176.73 -1.67C176.53 -1.91 176.44 -2.26 176.44 -2.72C176.44 -3.81 177.07 -4.35 178.34 -4.35L179.04 -4.35Z M188.42 -9.17C187.98 -9.35 187.49 -9.43 186.94 -9.43C186.15 -9.43 185.45 -9.23 184.86 -8.83C184.26 -8.44 183.8 -7.86 183.48 -7.12C183.15 -6.37 182.99 -5.5 182.99 -4.51C182.99 -2.98 183.34 -1.81 184.05 -0.98C184.75 -0.15 185.73 0.26 186.98 0.26C187.97 0.26 188.87 -0.09 189.67 -0.8L188.7 -2.1C188.4 -1.89 188.12 -1.74 187.88 -1.64C187.64 -1.54 187.37 -1.49 187.08 -1.49C186.49 -1.49 186.05 -1.72 185.74 -2.18C185.43 -2.65 185.28 -3.43 185.28 -4.54C185.28 -5.66 185.43 -6.48 185.74 -6.98C186.05 -7.48 186.49 -7.73 187.08 -7.73C187.65 -7.73 188.19 -7.53 188.71 -7.11L189.67 -8.38C189.27 -8.73 188.86 -9 188.42 -9.17Z M197.19 -9.17L189.89 -9.17L189.89 -7.53L192.41 -7.53L192.41 0L194.57 0L194.57 -7.53L196.92 -7.53Z M204.75 -3.92C204.79 -4.4 204.81 -4.7 204.81 -4.8C204.81 -6.29 204.48 -7.44 203.83 -8.24C203.19 -9.03 202.28 -9.43 201.13 -9.43C199.94 -9.43 199.01 -8.99 198.35 -8.09C197.68 -7.19 197.35 -6.01 197.35 -4.53C197.35 -3.02 197.7 -1.85 198.39 -1.01C199.08 -0.16 200.07 0.26 201.35 0.26C202.53 0.26 203.58 -0.14 204.49 -0.94L203.59 -2.17C203.22 -1.9 202.87 -1.71 202.55 -1.58C202.23 -1.45 201.88 -1.39 201.51 -1.39C200.93 -1.39 200.48 -1.58 200.16 -1.96C199.83 -2.34 199.64 -2.99 199.57 -3.92ZM202.67 -5.43L202.67 -5.32L199.57 -5.32C199.61 -6.25 199.77 -6.91 200.03 -7.31C200.29 -7.71 200.66 -7.91 201.15 -7.91C201.68 -7.91 202.07 -7.7 202.31 -7.29C202.55 -6.88 202.67 -6.26 202.67 -5.43Z M213.54 0L213.54 -9.17L211.26 -9.17L208.26 -2.22C208.35 -2.55 208.42 -3.01 208.48 -3.57C208.54 -4.14 208.57 -4.76 208.57 -5.44L208.57 -9.17L206.52 -9.17L206.52 0L208.79 0L211.83 -6.97C211.62 -6.03 211.52 -4.95 211.52 -3.73L211.52 0ZM208.22 -11.69C208.67 -11.27 209.27 -11.06 210.02 -11.06C210.78 -11.06 211.38 -11.27 211.84 -11.7C212.29 -12.12 212.56 -12.69 212.63 -13.4L211.38 -13.65C211.28 -13.29 211.13 -13.03 210.91 -12.87C210.69 -12.7 210.39 -12.62 210.02 -12.62C209.65 -12.62 209.36 -12.7 209.15 -12.86C208.93 -13.01 208.78 -13.28 208.67 -13.65L207.44 -13.4C207.51 -12.68 207.77 -12.1 208.22 -11.69Z M226.91 -1.65L226.05 -1.65L226.05 -9.17L220.41 -9.17L220.17 -5.62C220.1 -4.65 220.02 -3.9 219.92 -3.36C219.82 -2.83 219.71 -2.45 219.58 -2.23C219.45 -2 219.28 -1.81 219.08 -1.65L218.5 -1.65L218.5 2.74L220.05 2.74L220.31 0L225.11 0L225.37 2.74L226.91 2.74ZM224 -7.65L224 -1.65L220.72 -1.65C221.04 -1.87 221.28 -2.13 221.47 -2.44C221.65 -2.74 221.8 -3.16 221.9 -3.68C222.01 -4.21 222.09 -4.92 222.16 -5.83L222.28 -7.65Z M235.27 -9.17L229.31 -9.17L229.03 -4.84C228.96 -3.91 228.89 -3.25 228.82 -2.84C228.75 -2.42 228.64 -2.12 228.49 -1.92C228.34 -1.73 228.1 -1.55 227.78 -1.4L228.32 0.21C229.02 0 229.55 -0.27 229.9 -0.59C230.24 -0.91 230.49 -1.38 230.65 -1.98C230.81 -2.58 230.93 -3.49 231.02 -4.7L231.23 -7.53L233.1 -7.53L233.1 0L235.27 0Z M243.98 -9.17L240.99 -9.17C239.77 -9.17 238.84 -8.92 238.19 -8.43C237.55 -7.93 237.23 -7.21 237.23 -6.26C237.23 -5.16 237.68 -4.38 238.58 -3.9L236.66 0L238.93 0L240.49 -3.36L241.81 -3.36L241.81 0L243.98 0ZM241.81 -4.77L240.92 -4.77C240.4 -4.77 240.03 -4.89 239.79 -5.12C239.55 -5.36 239.43 -5.74 239.43 -6.26C239.43 -6.75 239.56 -7.1 239.81 -7.33C240.07 -7.57 240.46 -7.68 240.98 -7.68L241.81 -7.68Z M255.04 -9.17C254.6 -9.35 254.11 -9.43 253.57 -9.43C252.77 -9.43 252.07 -9.23 251.48 -8.83C250.88 -8.44 250.42 -7.86 250.1 -7.12C249.77 -6.37 249.61 -5.5 249.61 -4.51C249.61 -2.98 249.96 -1.81 250.67 -0.98C251.38 -0.15 252.35 0.26 253.6 0.26C254.59 0.26 255.49 -0.09 256.29 -0.8L255.32 -2.1C255.02 -1.89 254.74 -1.74 254.5 -1.64C254.26 -1.54 253.99 -1.49 253.7 -1.49C253.11 -1.49 252.67 -1.72 252.36 -2.18C252.05 -2.65 251.9 -3.43 251.9 -4.54C251.9 -5.66 252.05 -6.48 252.36 -6.98C252.67 -7.48 253.11 -7.73 253.7 -7.73C254.27 -7.73 254.81 -7.53 255.33 -7.11L256.29 -8.38C255.9 -8.73 255.48 -9 255.04 -9.17Z M262.34 0L264.51 0L264.51 -9.17L257.61 -9.17L257.61 0L259.77 0L259.77 -7.53L262.34 -7.53Z M273.71 -3.92C273.75 -4.4 273.77 -4.7 273.77 -4.8C273.77 -6.29 273.44 -7.44 272.8 -8.24C272.15 -9.03 271.25 -9.43 270.09 -9.43C268.9 -9.43 267.97 -8.99 267.31 -8.09C266.64 -7.19 266.31 -6.01 266.31 -4.53C266.31 -3.02 266.66 -1.85 267.35 -1.01C268.04 -0.16 269.03 0.26 270.32 0.26C271.5 0.26 272.54 -0.14 273.45 -0.94L272.55 -2.17C272.18 -1.9 271.84 -1.71 271.51 -1.58C271.19 -1.45 270.84 -1.39 270.47 -1.39C269.89 -1.39 269.44 -1.58 269.12 -1.96C268.8 -2.34 268.6 -2.99 268.53 -3.92ZM271.63 -5.43L271.63 -5.32L268.53 -5.32C268.58 -6.25 268.73 -6.91 268.99 -7.31C269.25 -7.71 269.62 -7.91 270.11 -7.91C270.64 -7.91 271.03 -7.7 271.27 -7.29C271.51 -6.88 271.63 -6.26 271.63 -5.43Z M282.3 -1.65L282.3 -9.17L280.13 -9.17L280.13 -1.66L277.65 -1.66L277.65 -9.17L275.48 -9.17L275.48 0L281.74 0L282 2.74L283.55 2.74L283.55 -1.65Z M290.64 -9.17L283.34 -9.17L283.34 -7.53L285.85 -7.53L285.85 0L288.02 0L288.02 -7.53L290.36 -7.53Z M298.2 -3.92C298.23 -4.4 298.25 -4.7 298.25 -4.8C298.25 -6.29 297.93 -7.44 297.28 -8.24C296.63 -9.03 295.73 -9.43 294.58 -9.43C293.38 -9.43 292.46 -8.99 291.79 -8.09C291.13 -7.19 290.8 -6.01 290.8 -4.53C290.8 -3.02 291.14 -1.85 291.84 -1.01C292.53 -0.16 293.52 0.26 294.8 0.26C295.98 0.26 297.03 -0.14 297.94 -0.94L297.04 -2.17C296.67 -1.9 296.32 -1.71 296 -1.58C295.67 -1.45 295.33 -1.39 294.96 -1.39C294.38 -1.39 293.93 -1.58 293.6 -1.96C293.28 -2.34 293.08 -2.99 293.01 -3.92ZM296.12 -5.43L296.12 -5.32L293.01 -5.32C293.06 -6.25 293.21 -6.91 293.47 -7.31C293.73 -7.71 294.11 -7.91 294.59 -7.91C295.12 -7.91 295.51 -7.7 295.75 -7.29C296 -6.88 296.12 -6.26 296.12 -5.43Z M303.87 -4.91L306.23 -9.17L303.97 -9.17L302.6 -6.02L301.2 -9.17L298.86 -9.17L301.3 -4.84L298.58 0L300.89 0L302.53 -3.68L304.23 0L306.63 0Z M312.49 0L314.66 0L314.66 -9.17L312.49 -9.17L312.49 -5.5L309.87 -5.5L309.87 -9.17L307.7 -9.17L307.7 0L309.87 0L309.87 -3.85L312.49 -3.85Z M323.97 0L323.97 -9.17L321.68 -9.17L318.68 -2.22C318.77 -2.55 318.85 -3.01 318.9 -3.57C318.96 -4.14 318.99 -4.76 318.99 -5.44L318.99 -9.17L316.94 -9.17L316.94 0L319.22 0L322.25 -6.97C322.04 -6.03 321.94 -4.95 321.94 -3.73L321.94 0Z M333.31 -9.17L331.23 -9.17L329.32 -5.53L328.42 -5.53L328.42 -9.17L326.26 -9.17L326.26 0L328.42 0L328.42 -4.07L329.27 -4.07L331.27 0L333.54 0L331.04 -4.92Z M341.72 0L341.72 -9.17L339.43 -9.17L336.43 -2.22C336.53 -2.55 336.6 -3.01 336.66 -3.57C336.72 -4.14 336.75 -4.76 336.75 -5.44L336.75 -9.17L334.7 -9.17L334.7 0L336.97 0L340.01 -6.97C339.8 -6.03 339.69 -4.95 339.69 -3.73L339.69 0Z"></path></g></svg>