<svg width="800" height="600" xmlns="http://www.w3.org/2000/svg">
 <g>
  <title>Layer 1</title>
  <g stroke="null">
   <g stroke="null" fill="url(#svg_20)">
    <path stroke="null" d="m127.57592,286.65557l12.77569,0c0.68441,0 1.14069,-0.42222 1.14069,-1.05556l0,-65.23334c0,-7.17778 6.38785,-13.08889 14.14452,-13.08889l70.49445,0c0.68441,0 1.14069,-0.42222 1.14069,-1.05556l0,-11.82222c0,-8.44444 -7.3004,-15.2 -16.42589,-15.2l-83.27015,0c-9.1255,0 -16.42589,6.75556 -16.42589,15.2l0,77.26667c0,8.23333 7.3004,14.98889 16.42589,14.98889zm39.92404,25.12222l0,11.82222c0,8.44444 7.3004,15.2 16.42589,15.2l83.49828,0c9.1255,0 16.42589,-6.75556 16.42589,-15.2l0,-77.26667c0,-8.44444 -7.3004,-15.2 -16.42589,-15.2l-13.00383,0c-0.68441,0 -1.14069,0.42222 -1.14069,1.05556l0,65.23334c0,7.17778 -6.38785,13.08889 -14.14452,13.08889l-70.49445,0c-0.68441,0.21111 -1.14069,0.63333 -1.14069,1.26667z"/>
    <path stroke="null" d="m168.64065,286.65557l42.43355,0c9.1255,0 16.42589,-6.75556 16.42589,-15.2l0,-39.05556c0,-0.63333 -0.45627,-1.05556 -1.14069,-1.05556l-42.66169,0c-9.1255,0 -16.42589,6.75556 -16.42589,15.2l0,39.26667c0.22814,0.42222 0.68441,0.84444 1.36882,0.84444z"/>
   </g>

  </g>
  <g stroke="null">
   <g stroke="null" fill="#242424">
    <path stroke="null" d="m325.42317,213.55428c-1.56768,-0.86551 -3.34284,-1.31429 -5.34854,-1.31429c-2.80107,0 -5.26785,0.96168 -7.42341,2.88503c-2.14403,1.92335 -3.8385,4.77632 -5.07189,8.54288c-1.22187,3.78259 -1.84432,8.35055 -1.84432,13.7199c0,5.5136 0.59941,10.17773 1.79822,13.97634c1.19881,3.79862 2.87023,6.63556 5.02579,8.54288c2.14403,1.89129 4.66845,2.85297 7.57326,2.85297c2.06334,0 3.95377,-0.57701 5.6713,-1.74704c1.706,-1.15401 3.18146,-2.62858 4.41485,-4.43973l-3.59643,-6.12266c-1.09507,1.21812 -2.08639,2.13171 -2.97397,2.7568c-0.87605,0.62509 -1.89043,0.92962 -3.02008,0.92962c-4.36874,0 -6.54735,-5.57772 -6.54735,-16.74917c0,-11.2516 2.16708,-16.8774 6.50125,-16.8774c0.99132,0 1.93654,0.27247 2.8126,0.8014c0.88758,0.52892 1.77516,1.33032 2.67427,2.38816l3.80392,-6.17075c-1.4063,-1.76307 -2.88176,-3.09339 -4.44943,-3.97492zm52.3673,5.11291c-2.46678,-4.27945 -5.98253,-6.4272 -10.54723,-6.4272c-4.53012,0 -8.03434,2.1798 -10.52418,6.53939c-2.47831,4.34357 -3.72323,10.57843 -3.72323,18.68855c0,8.23835 1.24492,14.52129 3.72323,18.8328c2.48984,4.29548 5.99406,6.45925 10.52418,6.45925c4.53012,0 8.03434,-2.1798 10.52418,-6.53939c2.47831,-4.34357 3.7117,-10.61048 3.7117,-18.75266c0,-8.25438 -1.22187,-14.52129 -3.68865,-18.80075zm-15.01972,5.65786c0.94522,-2.62858 2.44373,-3.9589 4.47249,-3.9589c2.02876,0 3.52727,1.33032 4.47249,3.9589c0.94522,2.64461 1.42935,7.02023 1.42935,13.14289c0,6.2028 -0.48414,10.61048 -1.42935,13.23906c-0.94522,2.61255 -2.44373,3.91081 -4.47249,3.91081c-1.99418,0 -3.48116,-1.29826 -4.44943,-3.91081c-0.96827,-2.62858 -1.45241,-7.03626 -1.45241,-13.23906c0,-6.12266 0.48414,-10.49829 1.42935,-13.14289zm68.12475,-10.89898l-20.48353,0l-1.84432,24.52271c-0.33428,4.40768 -0.66857,7.64532 -0.9798,9.72895c-0.31123,2.08363 -0.73773,3.65437 -1.24492,4.69618c-0.51872,1.04181 -1.2795,1.87527 -2.28235,2.53241l1.90196,7.85368c2.32846,-0.88154 4.12668,-2.16377 5.39465,-3.83067c1.26797,-1.6669 2.24777,-4.05506 2.95092,-7.14845c0.70315,-3.10942 1.26797,-7.50107 1.69447,-13.207l1.25645,-16.66903l5.64825,0l0,39.6691l7.98823,0l0,-48.14787zm51.12238,5.24113c-2.46678,-4.27945 -5.98253,-6.4272 -10.54723,-6.4272c-4.53012,0 -8.03434,2.1798 -10.52418,6.53939c-2.47831,4.34357 -3.72323,10.57843 -3.72323,18.68855c0,8.23835 1.24492,14.52129 3.72323,18.8328c2.48984,4.29548 5.99406,6.45925 10.52418,6.45925c4.53012,0 8.03434,-2.1798 10.51265,-6.53939c2.48984,-4.34357 3.72323,-10.61048 3.72323,-18.75266c0,-8.25438 -1.23339,-14.52129 -3.68865,-18.80075zm-15.01972,5.65786c0.94522,-2.62858 2.44373,-3.9589 4.47249,-3.9589c2.02876,0 3.51574,1.33032 4.47249,3.9589c0.94522,2.64461 1.41782,7.02023 1.41782,13.14289c0,6.2028 -0.47261,10.61048 -1.41782,13.23906c-0.95674,2.61255 -2.44373,3.91081 -4.47249,3.91081c-2.0057,0 -3.48116,-1.29826 -4.44943,-3.91081c-0.96827,-2.62858 -1.45241,-7.03626 -1.45241,-13.23906c0,-6.12266 0.48414,-10.49829 1.42935,-13.14289zm69.62327,-10.89898l-24.58716,0l0,48.14787l7.99976,0l0,-39.60499l8.54153,0l0,39.60499l8.04587,0l0,-48.14787zm47.64122,3.9589c-2.37457,-2.64461 -5.78657,-3.9589 -10.21295,-3.9589l-9.90172,0l0,48.14787l7.99976,0l0,-16.12409l2.65122,0c4.05751,0 7.2505,-1.3784 9.56744,-4.1352c2.31693,-2.7568 3.46964,-6.84392 3.46964,-12.26136c0,-5.14496 -1.18728,-9.02372 -3.57338,-11.66832zm-5.971,18.09552c-0.89911,1.28223 -2.28235,1.90732 -4.14973,1.90732l-1.99418,0l0,-16.04395l1.99418,0c1.90196,0 3.29673,0.64112 4.17279,1.90732c0.88758,1.28223 1.32561,3.23764 1.32561,5.88225c0,2.94914 -0.44955,5.08085 -1.34866,6.34706zm58.66106,-16.81329c-2.46678,-4.27945 -5.98253,-6.4272 -10.54723,-6.4272c-4.53012,0 -8.03434,2.1798 -10.51265,6.53939c-2.48984,4.34357 -3.72323,10.57843 -3.72323,18.68855c0,8.23835 1.23339,14.52129 3.72323,18.8328c2.47831,4.29548 5.98253,6.45925 10.51265,6.45925c4.53012,0 8.04587,-2.1798 10.52418,-6.53939c2.47831,-4.34357 3.72323,-10.61048 3.72323,-18.75266c0,-8.25438 -1.23339,-14.52129 -3.70018,-18.80075zm-15.01972,5.65786c0.95674,-2.62858 2.44373,-3.9589 4.47249,-3.9589c2.04028,0 3.52727,1.33032 4.47249,3.9589c0.95674,2.64461 1.42935,7.02023 1.42935,13.14289c0,6.2028 -0.47261,10.61048 -1.42935,13.23906c-0.94522,2.61255 -2.4322,3.91081 -4.47249,3.91081c-1.99418,0 -3.48116,-1.29826 -4.44943,-3.91081c-0.95674,-2.62858 -1.44088,-7.03626 -1.44088,-13.23906c0,-6.12266 0.47261,-10.49829 1.41782,-13.14289zm76.332,37.24888l-2.30541,-48.14787l-10.04004,0l-3.99988,32.79312l-4.34569,-32.79312l-9.99394,0l-2.30541,48.14787l7.59631,0l0.44955,-18.8328c0.06916,-3.89478 0.10374,-6.7157 0.10374,-8.47877c0,-3.92684 -0.06916,-7.66134 -0.19596,-11.18749l4.79524,33.43424l7.49257,0l4.55318,-33.43424c-0.06916,1.53868 -0.10374,3.92684 -0.10374,7.16448c0,2.64461 0.06916,6.73173 0.19596,12.29341l0.44955,19.04117l7.65395,0z"/>
   </g>
  </g>
  <g stroke="null">
   <g stroke="null" fill="#3b3b3b">
    <path stroke="null" d="m318.16044,310.40967l0,-26.43031l-3.14403,0l-4.07559,21.33398c0.1048,-1.78702 0.18631,-3.35343 0.24454,-4.74334c0.06987,-1.36785 0.09316,-3.08868 0.09316,-5.11839l0,-11.47226l-2.53851,0l0,26.43031l3.1906,0l4.02901,-21.35604c-0.22125,3.24312 -0.33769,6.57448 -0.33769,9.9941l0,11.36195l2.53851,0zm8.30256,0l2.52687,0l0,-20.23088l-2.52687,0l0,8.09676l-3.05087,0l0,-8.09676l-2.51522,0l0,20.23088l2.51522,0l0,-8.49388l3.05087,0l0,8.49388zm12.42473,-20.23088l-8.50052,0l0,3.61817l2.92278,0l0,16.61271l2.52687,0l0,-16.61271l2.72482,0l0.32605,-3.61817zm8.80327,11.58257c0.03493,-1.05898 0.05822,-1.72084 0.05822,-1.94146c0,-3.28724 -0.38427,-5.82438 -1.12952,-7.58934c-0.7569,-1.7429 -1.8049,-2.62538 -3.15567,-2.62538c-1.3857,0 -2.46864,0.97073 -3.23718,2.95631c-0.78018,1.98558 -1.16445,4.5889 -1.16445,7.85408c0,3.33137 0.40756,5.91262 1.21103,7.76583c0.81512,1.87527 1.95628,2.80188 3.45843,2.80188c1.37406,0 2.58509,-0.88248 3.65639,-2.64744l-1.05965,-2.71363c-0.43085,0.59567 -0.82676,1.01485 -1.21103,1.30166c-0.37263,0.28681 -0.78018,0.41918 -1.21103,0.41918c-0.66374,0 -1.19939,-0.41918 -1.57201,-1.25754c-0.37263,-0.83836 -0.60552,-2.27239 -0.68703,-4.32416l6.04352,0zm-2.43371,-3.33137l0,0.24268l-3.60981,0c0.05822,-2.05177 0.23289,-3.50786 0.53565,-4.39034c0.30276,-0.88248 0.73361,-1.32372 1.30419,-1.32372c0.61716,0 1.0713,0.4633 1.35077,1.36785c0.27947,0.90454 0.4192,2.27239 0.4192,4.10354zm12.33157,-6.06706c-0.58223,-1.83115 -1.46721,-2.75775 -2.65496,-2.75775c-1.14117,0 -2.09602,0.99279 -2.84127,3.0225l-0.12809,-2.44889l-2.22411,0l0,28.5262l2.52687,-0.52949l0,-9.37636c0.61716,1.45609 1.42063,2.18414 2.41042,2.18414c1.1761,0 2.10766,-0.97073 2.78305,-2.93425c0.67538,-1.94146 1.01308,-4.54478 1.01308,-7.80996c0,-3.39755 -0.30276,-6.02293 -0.88499,-7.87614zm-2.23575,13.28134c-0.3144,1.1031 -0.78018,1.67671 -1.3857,1.67671c-0.67538,0 -1.24597,-0.68392 -1.7001,-2.02971l0,-9.42049c0.524,-1.76496 1.15281,-2.64744 1.87477,-2.64744c0.57058,0 0.98979,0.55155 1.2809,1.61053c0.27947,1.08104 0.4192,2.89013 0.4192,5.42726c0,2.49301 -0.16302,4.28003 -0.48907,5.38314zm10.85271,4.7654l2.51522,0l0,-20.23088l-2.51522,0l0,8.09676l-3.05087,0l0,-8.09676l-2.52687,0l0,20.23088l2.52687,0l0,-8.49388l3.05087,0l0,8.49388zm13.23985,-8.64832c0.04658,-1.05898 0.05822,-1.72084 0.05822,-1.94146c0,-3.28724 -0.37263,-5.82438 -1.12952,-7.58934c-0.74525,-1.7429 -1.8049,-2.62538 -3.14403,-2.62538c-1.3857,0 -2.46864,0.97073 -3.24883,2.95631c-0.76854,1.98558 -1.15281,4.5889 -1.15281,7.85408c0,3.33137 0.39591,5.91262 1.21103,7.76583c0.80347,1.87527 1.95628,2.80188 3.44678,2.80188c1.37406,0 2.59673,-0.88248 3.65639,-2.64744l-1.04801,-2.71363c-0.43085,0.59567 -0.83841,1.01485 -1.21103,1.30166c-0.37263,0.28681 -0.78018,0.41918 -1.21103,0.41918c-0.67538,0 -1.19939,-0.41918 -1.57201,-1.25754c-0.38427,-0.83836 -0.60552,-2.27239 -0.68703,-4.32416l6.03187,0zm-2.42207,-3.33137l0,0.24268l-3.60981,0c0.04658,-2.05177 0.23289,-3.50786 0.53565,-4.39034c0.30276,-0.88248 0.73361,-1.32372 1.30419,-1.32372c0.61716,0 1.05965,0.4633 1.35077,1.36785c0.27947,0.90454 0.4192,2.27239 0.4192,4.10354zm11.24863,-8.2512l-8.50052,0l0,3.61817l2.92278,0l0,16.61271l2.52687,0l0,-16.61271l2.72482,0l0.32605,-3.61817zm0.46578,10.1706l5.58938,0l0,-3.81673l-5.58938,0l0,3.81673zm18.15384,10.06029l-0.85005,-20.23088l-3.07416,0l-1.57201,13.76671l-1.4905,-13.76671l-3.02758,0l-0.82676,20.23088l2.37549,0l0.22125,-8.44976c0.03493,-0.83836 0.04658,-2.07383 0.04658,-3.68436c0,-1.63259 -0.01164,-2.86806 -0.04658,-3.75055l1.67681,13.74464l2.1426,0l1.75833,-13.76671c-0.04658,1.45609 -0.05822,2.80188 -0.05822,4.03735c0,1.08104 0.01164,2.2062 0.05822,3.41961l0.25618,8.44976l2.41042,0zm9.57181,-3.50786c-0.11645,-0.33093 -0.16302,-0.86042 -0.16302,-1.58847l0,-8.86894c0,-4.56684 -1.26926,-6.83923 -3.79612,-6.83923c-1.16445,0 -2.3522,0.48536 -3.57487,1.45609l0.58223,3.17693c1.02472,-0.70598 1.88642,-1.03692 2.58509,-1.03692c0.60552,0 1.04801,0.26474 1.31583,0.79423c0.26782,0.52949 0.39591,1.43403 0.39591,2.71363l0,1.25754l-1.05965,0c-1.45557,0 -2.57344,0.59567 -3.34198,1.7429c-0.7569,1.16929 -1.14117,2.846 -1.14117,5.03014c0,1.87527 0.27947,3.37549 0.83841,4.52272c0.57058,1.14723 1.32748,1.72084 2.28233,1.72084c1.25761,0 2.21246,-0.97073 2.8762,-2.95631c0.17467,0.92661 0.43085,1.61053 0.79183,2.02971c0.36098,0.44124 0.82676,0.72805 1.40899,0.86042l0.524,-3.17693c-0.24454,-0.22062 -0.4192,-0.48536 -0.524,-0.83836zm-2.65496,-1.87527c-0.40756,1.65465 -0.98979,2.47095 -1.73504,2.47095c-0.39591,0 -0.71032,-0.26474 -0.94321,-0.77217c-0.23289,-0.52949 -0.34934,-1.30166 -0.34934,-2.31651c0,-2.40476 0.74525,-3.59611 2.22411,-3.59611l0.80347,0l0,4.21385zm7.69704,5.38314l0,-16.52446l3.76119,0l0.30276,-3.70642l-6.59081,0l0,20.23088l2.52687,0zm12.12197,-3.50786c-0.11645,-0.33093 -0.16302,-0.86042 -0.16302,-1.58847l0,-8.86894c0,-4.56684 -1.26926,-6.83923 -3.79612,-6.83923c-1.16445,0 -2.3522,0.48536 -3.57487,1.45609l0.58223,3.17693c1.02472,-0.70598 1.88642,-1.03692 2.58509,-1.03692c0.60552,0 1.04801,0.26474 1.31583,0.79423c0.26782,0.52949 0.39591,1.43403 0.39591,2.71363l0,1.25754l-1.0713,0c-1.44392,0 -2.5618,0.59567 -3.33034,1.7429c-0.76854,1.16929 -1.14117,2.846 -1.14117,5.03014c0,1.87527 0.27947,3.37549 0.83841,4.52272c0.57058,1.14723 1.32748,1.72084 2.28233,1.72084c1.25761,0 2.21246,-0.97073 2.8762,-2.95631c0.17467,0.92661 0.43085,1.61053 0.79183,2.02971c0.36098,0.44124 0.82676,0.72805 1.40899,0.86042l0.524,-3.17693c-0.24454,-0.22062 -0.4192,-0.48536 -0.524,-0.83836zm-2.65496,-1.87527c-0.40756,1.65465 -0.98979,2.47095 -1.73504,2.47095c-0.39591,0 -0.72196,-0.26474 -0.94321,-0.77217c-0.23289,-0.52949 -0.34934,-1.30166 -0.34934,-2.31651c0,-2.40476 0.74525,-3.59611 2.22411,-3.59611l0.80347,0l0,4.21385zm10.63147,-13.92114c-0.69867,-0.99279 -1.57201,-1.50022 -2.60838,-1.50022c-0.76854,0 -1.45557,0.1765 -2.06108,0.57361c-0.60552,0.37505 -1.1761,0.97073 -1.7001,1.7429l1.1761,2.58126c0.37263,-0.48536 0.73361,-0.86042 1.0713,-1.08104c0.33769,-0.22062 0.71032,-0.35299 1.12952,-0.35299c0.45414,0 0.81512,0.19856 1.08294,0.59567c0.27947,0.39712 0.40756,1.01485 0.40756,1.85321c0,1.85321 -0.60552,2.75775 -1.81655,2.75775l-0.9665,0l-0.13973,3.28724l1.30419,0c0.67538,0 1.18774,0.22062 1.52544,0.6398c0.32605,0.41918 0.50072,1.14723 0.50072,2.16208c0,2.05177 -0.61716,3.06662 -1.83984,3.06662c-0.48907,0 -0.91992,-0.13237 -1.29254,-0.39712c-0.37263,-0.24268 -0.79183,-0.66186 -1.23432,-1.25754l-1.21103,2.71363c1.08294,1.65465 2.36384,2.49301 3.85434,2.49301c1.31583,0 2.36384,-0.55155 3.16732,-1.65465c0.80347,-1.12516 1.19939,-2.71363 1.19939,-4.80952c0,-1.45609 -0.22125,-2.58126 -0.65209,-3.35343c-0.44249,-0.77217 -1.10623,-1.30166 -1.99122,-1.58847c0.73361,-0.37505 1.2809,-0.92661 1.63024,-1.63259c0.34934,-0.72805 0.524,-1.65465 0.524,-2.80188c0,-1.67671 -0.34934,-3.0225 -1.05965,-4.03735zm11.83086,19.30428l0,-20.23088l-2.6666,0l-3.49336,15.33311c0.1048,-0.72805 0.19796,-1.7429 0.25618,-2.97837c0.06987,-1.25754 0.1048,-2.62538 0.1048,-4.1256l0,-8.22914l-2.38713,0l0,20.23088l2.65496,0l3.5283,-15.37723c-0.24454,2.07383 -0.36098,4.45653 -0.36098,7.1481l0,8.22914l2.36384,0zm8.23269,0l2.52687,0l0,-20.23088l-2.52687,0l0,8.09676l-3.05087,0l0,-8.09676l-2.51522,0l0,20.23088l2.51522,0l0,-8.49388l3.05087,0l0,8.49388zm15.11462,-19.30428c-0.71032,-0.99279 -1.58366,-1.50022 -2.62002,-1.50022c-0.7569,0 -1.44392,0.1765 -2.04944,0.57361c-0.60552,0.37505 -1.1761,0.97073 -1.7001,1.7429l1.1761,2.58126c0.37263,-0.48536 0.73361,-0.86042 1.05965,-1.08104c0.33769,-0.22062 0.72196,-0.35299 1.14117,-0.35299c0.45414,0 0.81512,0.19856 1.08294,0.59567c0.26782,0.39712 0.40756,1.01485 0.40756,1.85321c0,1.85321 -0.60552,2.75775 -1.81655,2.75775l-0.9665,0l-0.15138,3.28724l1.31583,0c0.67538,0 1.1761,0.22062 1.51379,0.6398c0.33769,0.41918 0.51236,1.14723 0.51236,2.16208c0,2.05177 -0.61716,3.06662 -1.83984,3.06662c-0.48907,0 -0.91992,-0.13237 -1.29254,-0.39712c-0.38427,-0.24268 -0.79183,-0.66186 -1.23432,-1.25754l-1.21103,2.71363c1.0713,1.65465 2.36384,2.49301 3.85434,2.49301c1.30419,0 2.36384,-0.55155 3.16732,-1.65465c0.79183,-1.12516 1.19939,-2.71363 1.19939,-4.80952c0,-1.45609 -0.22125,-2.58126 -0.66374,-3.35343c-0.43085,-0.77217 -1.09459,-1.30166 -1.97957,-1.58847c0.73361,-0.37505 1.2809,-0.92661 1.63024,-1.63259c0.34934,-0.72805 0.524,-1.65465 0.524,-2.80188c0,-1.67671 -0.34934,-3.0225 -1.05965,-4.03735zm10.91094,15.79641c-0.1048,-0.33093 -0.16302,-0.86042 -0.16302,-1.58847l0,-8.86894c0,-4.56684 -1.25761,-6.83923 -3.79612,-6.83923c-1.15281,0 -2.34055,0.48536 -3.57487,1.45609l0.59387,3.17693c1.02472,-0.70598 1.88642,-1.03692 2.58509,-1.03692c0.60552,0 1.03636,0.26474 1.30419,0.79423c0.27947,0.52949 0.40756,1.43403 0.40756,2.71363l0,1.25754l-1.0713,0c-1.45557,0 -2.5618,0.59567 -3.33034,1.7429c-0.76854,1.16929 -1.15281,2.846 -1.15281,5.03014c0,1.87527 0.29111,3.37549 0.85005,4.52272c0.57058,1.14723 1.32748,1.72084 2.28233,1.72084c1.25761,0 2.21246,-0.97073 2.86456,-2.95631c0.17467,0.92661 0.44249,1.61053 0.80347,2.02971c0.34934,0.44124 0.82676,0.72805 1.39735,0.86042l0.524,-3.17693c-0.23289,-0.22062 -0.40756,-0.48536 -0.524,-0.83836zm-2.64331,-1.87527c-0.4192,1.65465 -0.98979,2.47095 -1.73504,2.47095c-0.40756,0 -0.72196,-0.26474 -0.95485,-0.77217c-0.22125,-0.52949 -0.33769,-1.30166 -0.33769,-2.31651c0,-2.40476 0.74525,-3.59611 2.22411,-3.59611l0.80347,0l0,4.21385zm10.67805,5.38314l2.52687,0l0,-20.23088l-8.03473,0l0,20.23088l2.52687,0l0,-16.61271l2.981,0l0,16.61271zm12.5994,-20.23088l-2.51522,0l0,8.93512c-0.22125,0.52949 -0.50072,0.92661 -0.85005,1.25754c-0.34934,0.30887 -0.68703,0.4633 -1.01308,0.4633c-0.38427,0 -0.67538,-0.19856 -0.8617,-0.59567c-0.19796,-0.41918 -0.29111,-1.08104 -0.29111,-2.02971l0,-8.03058l-2.51522,0l0,8.51594c0,1.80909 0.23289,3.24312 0.72196,4.25797c0.48907,1.01485 1.18774,1.52228 2.09602,1.52228c1.0713,0 1.96793,-0.70598 2.71318,-2.09589l0,8.03058l2.51522,0l0,-20.23088zm10.1424,16.72302c-0.1048,-0.33093 -0.16302,-0.86042 -0.16302,-1.58847l0,-8.86894c0,-4.56684 -1.26926,-6.83923 -3.79612,-6.83923c-1.15281,0 -2.3522,0.48536 -3.57487,1.45609l0.58223,3.17693c1.02472,-0.70598 1.88642,-1.03692 2.58509,-1.03692c0.60552,0 1.04801,0.26474 1.31583,0.79423c0.26782,0.52949 0.40756,1.43403 0.40756,2.71363l0,1.25754l-1.0713,0c-1.45557,0 -2.5618,0.59567 -3.33034,1.7429c-0.76854,1.16929 -1.15281,2.846 -1.15281,5.03014c0,1.87527 0.27947,3.37549 0.85005,4.52272c0.55894,1.14723 1.32748,1.72084 2.28233,1.72084c1.24597,0 2.20082,-0.97073 2.86456,-2.95631c0.17467,0.92661 0.44249,1.61053 0.79183,2.02971c0.36098,0.44124 0.82676,0.72805 1.40899,0.86042l0.524,-3.17693c-0.24454,-0.22062 -0.4192,-0.48536 -0.524,-0.83836zm-2.64331,-1.87527c-0.4192,1.65465 -1.00143,2.47095 -1.73504,2.47095c-0.40756,0 -0.72196,-0.26474 -0.95485,-0.77217c-0.23289,-0.52949 -0.33769,-1.30166 -0.33769,-2.31651c0,-2.40476 0.73361,-3.59611 2.21246,-3.59611l0.81512,0l0,4.21385zm10.92258,-14.84775c-0.51236,-0.39712 -1.08294,-0.57361 -1.72339,-0.57361c-0.91992,0 -1.73504,0.44124 -2.42207,1.32372c-0.69867,0.86042 -1.23432,2.14002 -1.60695,3.77261c-0.38427,1.65465 -0.57058,3.57405 -0.57058,5.75819c0,3.37549 0.40756,5.95675 1.23432,7.7879c0.81512,1.83115 1.95628,2.73569 3.41185,2.73569c1.15281,0 2.20082,-0.77217 3.13238,-2.33858l-1.12952,-2.86806c-0.34934,0.4633 -0.67538,0.79423 -0.95485,1.01485c-0.27947,0.22062 -0.59387,0.33093 -0.93156,0.33093c-0.68703,0 -1.19939,-0.50743 -1.56037,-1.52228c-0.36098,-1.03692 -0.53565,-2.75775 -0.53565,-5.20664c0,-2.47095 0.17467,-4.28003 0.53565,-5.38314c0.36098,-1.1031 0.87334,-1.65465 1.56037,-1.65465c0.66374,0 1.29254,0.44124 1.89806,1.36785l1.11788,-2.80188c-0.46578,-0.77217 -0.94321,-1.36785 -1.45557,-1.7429zm10.21226,0l-8.50052,0l0,3.61817l2.93442,0l0,16.61271l2.51522,0l0,-16.61271l2.73647,0l0.3144,-3.61817zm8.80327,11.58257c0.04658,-1.05898 0.06987,-1.72084 0.06987,-1.94146c0,-3.28724 -0.38427,-5.82438 -1.14117,-7.58934c-0.74525,-1.7429 -1.8049,-2.62538 -3.14403,-2.62538c-1.3857,0 -2.46864,0.97073 -3.23718,2.95631c-0.78018,1.98558 -1.16445,4.5889 -1.16445,7.85408c0,3.33137 0.40756,5.91262 1.21103,7.76583c0.80347,1.87527 1.95628,2.80188 3.44678,2.80188c1.37406,0 2.59673,-0.88248 3.65639,-2.64744l-1.04801,-2.71363c-0.43085,0.59567 -0.83841,1.01485 -1.21103,1.30166c-0.37263,0.28681 -0.78018,0.41918 -1.21103,0.41918c-0.67538,0 -1.19939,-0.41918 -1.57201,-1.25754c-0.38427,-0.83836 -0.60552,-2.27239 -0.68703,-4.32416l6.03187,0zm-2.42207,-3.33137l0,0.24268l-3.60981,0c0.04658,-2.05177 0.23289,-3.50786 0.53565,-4.39034c0.30276,-0.88248 0.73361,-1.32372 1.30419,-1.32372c0.61716,0 1.0713,0.4633 1.35077,1.36785c0.27947,0.90454 0.4192,2.27239 0.4192,4.10354zm12.65762,11.97968l0,-20.23088l-2.65496,0l-3.49336,15.33311c0.1048,-0.72805 0.18631,-1.7429 0.25618,-2.97837c0.06987,-1.25754 0.1048,-2.62538 0.1048,-4.1256l0,-8.22914l-2.38713,0l0,20.23088l2.64331,0l3.53994,-15.37723c-0.24454,2.07383 -0.36098,4.45653 -0.36098,7.1481l0,8.22914l2.3522,0zm-6.1949,-25.79051c0.524,0.92661 1.22268,1.38991 2.09602,1.38991c0.88499,0 1.58366,-0.4633 2.11931,-1.41197c0.524,-0.92661 0.83841,-2.18414 0.91992,-3.75055l-1.45557,-0.55155c-0.11645,0.79423 -0.29111,1.36785 -0.54729,1.72084c-0.25618,0.37505 -0.60552,0.55155 -1.03636,0.55155c-0.43085,0 -0.76854,-0.1765 -1.01308,-0.52949c-0.25618,-0.33093 -0.43085,-0.92661 -0.55894,-1.7429l-1.43228,0.55155c0.08151,1.58847 0.38427,2.86806 0.90827,3.77261zm21.76365,22.15028l-1.00143,0l0,-16.59065l-6.56752,0l-0.27947,7.83202c-0.08151,2.14002 -0.17467,3.79467 -0.29111,4.98602c-0.11645,1.16929 -0.24454,2.00764 -0.39591,2.49301c-0.15138,0.50743 -0.34934,0.92661 -0.58223,1.2796l-0.67538,0l0,9.68523l1.8049,0l0.30276,-6.045l5.58938,0l0.30276,6.045l1.79326,0l0,-9.68523zm-3.38856,-13.23722l0,13.23722l-3.81941,0c0.37263,-0.48536 0.65209,-1.05898 0.87334,-1.7429c0.2096,-0.66186 0.38427,-1.58847 0.50072,-2.73569c0.12809,-1.16929 0.22125,-2.73569 0.30276,-4.74334l0.13973,-4.01529l2.00286,0zm13.1234,-3.35343l-6.94015,0l-0.32605,9.55286c-0.08151,2.05177 -0.16302,3.50786 -0.24454,4.41241c-0.08151,0.92661 -0.2096,1.58847 -0.38427,2.02971c-0.17467,0.41918 -0.45414,0.8163 -0.82676,1.14723l0.62881,3.55199c0.81512,-0.4633 1.43228,-1.05898 1.83984,-1.76496c0.39591,-0.70598 0.68703,-1.7429 0.87334,-3.06662c0.18631,-1.32372 0.32605,-3.33137 0.43085,-6.00087l0.24454,-6.24355l2.17753,0l0,16.61271l2.52687,0l0,-20.23088zm10.1424,0l-3.48172,0c-1.42063,0 -2.50358,0.55155 -3.26047,1.63259c-0.74525,1.1031 -1.11788,2.69157 -1.11788,4.78746c0,2.42682 0.524,4.14766 1.57201,5.20664l-2.23575,8.60419l2.64331,0l1.81655,-7.41284l1.53708,0l0,7.41284l2.52687,0l0,-20.23088zm-2.52687,9.70729l-1.03636,0c-0.60552,0 -1.03636,-0.26474 -1.31583,-0.77217c-0.27947,-0.52949 -0.4192,-1.36785 -0.4192,-2.51507c0,-1.08104 0.15138,-1.85321 0.44249,-2.36064c0.30276,-0.52949 0.7569,-0.77217 1.36241,-0.77217l0.9665,0l0,6.42005zm15.40573,-9.70729c-0.51236,-0.39712 -1.08294,-0.57361 -1.71175,-0.57361c-0.93156,0 -1.74668,0.44124 -2.43371,1.32372c-0.69867,0.86042 -1.23432,2.14002 -1.60695,3.77261c-0.38427,1.65465 -0.57058,3.57405 -0.57058,5.75819c0,3.37549 0.40756,5.95675 1.23432,7.7879c0.82676,1.83115 1.95628,2.73569 3.41185,2.73569c1.15281,0 2.20082,-0.77217 3.13238,-2.33858l-1.12952,-2.86806c-0.34934,0.4633 -0.67538,0.79423 -0.95485,1.01485c-0.27947,0.22062 -0.59387,0.33093 -0.93156,0.33093c-0.68703,0 -1.19939,-0.50743 -1.56037,-1.52228c-0.36098,-1.03692 -0.53565,-2.75775 -0.53565,-5.20664c0,-2.47095 0.17467,-4.28003 0.53565,-5.38314c0.36098,-1.1031 0.87334,-1.65465 1.56037,-1.65465c0.66374,0 1.29254,0.44124 1.89806,1.36785l1.11788,-2.80188c-0.45414,-0.77217 -0.94321,-1.36785 -1.45557,-1.7429zm8.50052,20.23088l2.52687,0l0,-20.23088l-8.03473,0l0,20.23088l2.51522,0l0,-16.61271l2.99265,0l0,16.61271zm13.23985,-8.64832c0.04658,-1.05898 0.06987,-1.72084 0.06987,-1.94146c0,-3.28724 -0.38427,-5.82438 -1.12952,-7.58934c-0.7569,-1.7429 -1.8049,-2.62538 -3.15567,-2.62538c-1.3857,0 -2.46864,0.97073 -3.23718,2.95631c-0.78018,1.98558 -1.16445,4.5889 -1.16445,7.85408c0,3.33137 0.40756,5.91262 1.21103,7.76583c0.80347,1.87527 1.95628,2.80188 3.45843,2.80188c1.37406,0 2.58509,-0.88248 3.64474,-2.64744l-1.04801,-2.71363c-0.43085,0.59567 -0.82676,1.01485 -1.21103,1.30166c-0.37263,0.28681 -0.78018,0.41918 -1.21103,0.41918c-0.67538,0 -1.19939,-0.41918 -1.57201,-1.25754c-0.37263,-0.83836 -0.60552,-2.27239 -0.68703,-4.32416l6.03187,0zm-2.42207,-3.33137l0,0.24268l-3.60981,0c0.05822,-2.05177 0.23289,-3.50786 0.53565,-4.39034c0.30276,-0.88248 0.73361,-1.32372 1.30419,-1.32372c0.61716,0 1.0713,0.4633 1.35077,1.36785c0.27947,0.90454 0.4192,2.27239 0.4192,4.10354zm12.42473,8.33945l0,-16.59065l-2.52687,0l0,16.56858l-2.88785,0l0,-16.56858l-2.52687,0l0,20.23088l7.28948,0l0.30276,6.045l1.8049,0l0,-9.68523l-1.45557,0zm9.71155,-16.59065l-8.50052,0l0,3.61817l2.92278,0l0,16.61271l2.52687,0l0,-16.61271l2.72482,0l0.32605,-3.61817zm8.80327,11.58257c0.03493,-1.05898 0.05822,-1.72084 0.05822,-1.94146c0,-3.28724 -0.37263,-5.82438 -1.12952,-7.58934c-0.7569,-1.7429 -1.8049,-2.62538 -3.14403,-2.62538c-1.39735,0 -2.46864,0.97073 -3.24883,2.95631c-0.76854,1.98558 -1.15281,4.5889 -1.15281,7.85408c0,3.33137 0.39591,5.91262 1.21103,7.76583c0.80347,1.87527 1.95628,2.80188 3.44678,2.80188c1.37406,0 2.59673,-0.88248 3.65639,-2.64744l-1.04801,-2.71363c-0.43085,0.59567 -0.83841,1.01485 -1.21103,1.30166c-0.38427,0.28681 -0.78018,0.41918 -1.21103,0.41918c-0.67538,0 -1.19939,-0.41918 -1.58366,-1.25754c-0.37263,-0.83836 -0.60552,-2.27239 -0.68703,-4.32416l6.04352,0zm-2.42207,-3.33137l0,0.24268l-3.62145,0c0.05822,-2.05177 0.23289,-3.50786 0.53565,-4.39034c0.30276,-0.88248 0.74525,-1.32372 1.30419,-1.32372c0.61716,0 1.0713,0.4633 1.35077,1.36785c0.29111,0.90454 0.43085,2.27239 0.43085,4.10354zm9.02452,1.14723l2.74811,-9.39842l-2.63167,0l-1.5953,6.94954l-1.63024,-6.94954l-2.72482,0l2.84127,9.55286l-3.16732,10.67802l2.68989,0l1.90971,-8.11883l1.97957,8.11883l2.79469,0l-3.21389,-10.83246zm10.0376,10.83246l2.52687,0l0,-20.23088l-2.52687,0l0,8.09676l-3.05087,0l0,-8.09676l-2.52687,0l0,20.23088l2.52687,0l0,-8.49388l3.05087,0l0,8.49388zm13.36794,0l0,-20.23088l-2.6666,0l-3.49336,15.33311c0.1048,-0.72805 0.19796,-1.7429 0.25618,-2.97837c0.06987,-1.25754 0.1048,-2.62538 0.1048,-4.1256l0,-8.22914l-2.38713,0l0,20.23088l2.65496,0l3.5283,-15.37723c-0.24454,2.07383 -0.36098,4.45653 -0.36098,7.1481l0,8.22914l2.36384,0zm10.876,-20.23088l-2.42207,0l-2.22411,8.03058l-1.04801,0l0,-8.03058l-2.51522,0l0,20.23088l2.51522,0l0,-8.97925l0.98979,0l2.32891,8.97925l2.64331,0l-2.91114,-10.85452l2.64331,-9.37636zm9.79306,20.23088l0,-20.23088l-2.6666,0l-3.49336,15.33311c0.11645,-0.72805 0.19796,-1.7429 0.26782,-2.97837c0.06987,-1.25754 0.1048,-2.62538 0.1048,-4.1256l0,-8.22914l-2.38713,0l0,20.23088l2.64331,0l3.53994,-15.37723c-0.24454,2.07383 -0.37263,4.45653 -0.37263,7.1481l0,8.22914l2.36384,0z"/>
   </g>
  </g>
 </g>
 <defs>
  <linearGradient y2="12.175" x2="87.875" y1="87.825" x1="12.225" id="svg_20" gradientUnits="userSpaceOnUse">
   <stop offset="0.05" stop-color="#646464"/>
   <stop offset="0.95" stop-color="#242424"/>
  </linearGradient>
 </defs>
</svg>