<svg width="535" height="160" xmlns="http://www.w3.org/2000/svg">
 <g>
  <title>Layer 1</title>
  <g stroke="null" id="svg_1">
   <g stroke="null" id="svg_2" fill="#005bb9">
    <path stroke="null" id="svg_3" d="m24.71651,101.19763l9.89062,0c0.52985,0 0.88309,-0.31905 0.88309,-0.79762l0,-49.29286c0,-5.42381 4.94531,-9.89048 10.95033,-9.89048l54.57503,0c0.52985,0 0.88309,-0.31905 0.88309,-0.79762l0,-8.93333c0,-6.38095 -5.65179,-11.48571 -12.71651,-11.48571l-64.46566,0c-7.06473,0 -12.71651,5.10477 -12.71651,11.48571l0,58.38572c0,6.22143 5.65179,11.32619 12.71651,11.32619l0,0.00001zm30.90819,18.98333l0,8.93333c0,6.38095 5.65179,11.48571 12.71651,11.48571l64.64227,0c7.06473,0 12.71651,-5.10477 12.71651,-11.48571l0,-58.38572c0,-6.38095 -5.65179,-11.48571 -12.71651,-11.48571l-10.06724,0c-0.52985,0 -0.88309,0.31905 -0.88309,0.79762l0,49.29286c0,5.42381 -4.94531,9.89048 -10.95033,9.89048l-54.57503,0c-0.52985,0.15952 -0.88309,0.47857 -0.88309,0.95715l0.00001,-0.00001z"/>
    <path stroke="null" id="svg_4" d="m56.50779,101.19763l32.85099,0c7.06473,0 12.71651,-5.10477 12.71651,-11.48571l0,-29.51191c0,-0.47857 -0.35323,-0.79762 -0.88309,-0.79762l-33.02761,0c-7.06473,0 -12.71651,5.10477 -12.71651,11.48571l0,29.67143c0.17662,0.31905 0.52985,0.63809 1.05971,0.63809l0.00001,0.00001z"/>
   </g>
  </g>
  <g stroke="null" id="svg_5">
   <g stroke="null" id="svg_6" fill="#005bb9">
    <path stroke="null" id="svg_7" d="m182.51764,39.17218c-1.4279,-0.74559 -3.04478,-1.13218 -4.87164,-1.13218c-2.55131,0 -4.79814,0.82843 -6.7615,2.48528c-1.95286,1.65685 -3.49624,4.11452 -4.61965,7.35919c-1.11292,3.25848 -1.67987,7.19351 -1.67987,11.81889c0,4.74964 0.54596,8.76751 1.63788,12.03979c1.09192,3.27229 2.61431,5.71614 4.57766,7.35919c1.95286,1.62923 4.25219,2.45767 6.89799,2.45767c1.87936,0 3.60123,-0.49706 5.16562,-1.50497c1.55388,-0.99411 2.89778,-2.26437 4.0212,-3.82457l-3.27575,-5.27431c-0.99743,1.04934 -1.90036,1.83634 -2.7088,2.37482c-0.79794,0.53848 -1.72187,0.80081 -2.75079,0.80081c-3.9792,0 -5.96355,-4.80488 -5.96355,-14.42842c0,-9.69259 1.97385,-14.53889 5.92156,-14.53889c0.90293,0 1.76387,0.23472 2.56181,0.69036c0.80844,0.45563 1.61688,1.14599 2.43582,2.05726l3.46474,-5.31574c-1.28091,-1.51878 -2.62481,-2.66477 -4.0527,-3.42416l-0.00004,-0.00002zm47.69796,4.40447c-2.24683,-3.68649 -5.4491,-5.53665 -9.60678,-5.53665c-4.12619,0 -7.31796,1.87777 -9.58579,5.6333c-2.25733,3.74173 -3.39125,9.11269 -3.39125,16.09908c0,7.09685 1.13392,12.50924 3.39125,16.22335c2.26783,3.7003 5.4596,5.56426 9.58579,5.56426c4.12619,0 7.31796,-1.87777 9.58579,-5.6333c2.25733,-3.74173 3.38075,-9.1403 3.38075,-16.15431c0,-7.11066 -1.11292,-12.50924 -3.35975,-16.19574l0,0.00001zm-13.68048,4.87391c0.86094,-2.26437 2.22583,-3.41036 4.0737,-3.41036c1.84787,0 3.21276,1.14599 4.0737,3.41036c0.86094,2.27818 1.3019,6.04751 1.3019,11.32183c0,5.34335 -0.44097,9.1403 -1.3019,11.40467c-0.86094,2.25056 -2.22583,3.36893 -4.0737,3.36893c-1.81637,0 -3.17076,-1.11837 -4.0527,-3.36893c-0.88193,-2.26437 -1.32291,-6.06132 -1.32291,-11.40467c0,-5.27431 0.44097,-9.04366 1.3019,-11.32183zm62.05039,-9.38883l-18.65711,0l-1.67987,21.12487c-0.30447,3.79696 -0.60896,6.58599 -0.89244,8.38092c-0.28348,1.79492 -0.67195,3.14802 -1.13392,4.04548c-0.47247,0.89746 -1.16541,1.61543 -2.07884,2.18152l1.73237,6.76548c2.12084,-0.75939 3.75872,-1.86396 4.91364,-3.2999c1.15491,-1.43594 2.04735,-3.4932 2.6878,-6.15797c0.64045,-2.67858 1.15491,-6.46173 1.54338,-11.37705l1.14442,-14.35939l5.14462,0l0,34.17259l7.27596,0l0,-41.47655l-0.00001,-0.00001zm46.56404,4.51492c-2.24683,-3.68649 -5.4491,-5.53665 -9.60678,-5.53665c-4.12619,0 -7.31796,1.87777 -9.58579,5.6333c-2.25733,3.74173 -3.39125,9.11269 -3.39125,16.09908c0,7.09685 1.13392,12.50924 3.39125,16.22335c2.26783,3.7003 5.4596,5.56426 9.58579,5.56426c4.12619,0 7.31796,-1.87777 9.57529,-5.6333c2.26783,-3.74173 3.39125,-9.1403 3.39125,-16.15431c0,-7.11066 -1.12341,-12.50924 -3.35975,-16.19574l0,0.00001zm-13.68048,4.87391c0.86094,-2.26437 2.22583,-3.41036 4.0737,-3.41036c1.84787,0 3.20226,1.14599 4.0737,3.41036c0.86094,2.27818 1.2914,6.04751 1.2914,11.32183c0,5.34335 -0.43047,9.1403 -1.2914,11.40467c-0.87143,2.25056 -2.22583,3.36893 -4.0737,3.36893c-1.82686,0 -3.17076,-1.11837 -4.0527,-3.36893c-0.88193,-2.26437 -1.32291,-6.06132 -1.32291,-11.40467c0,-5.27431 0.44097,-9.04366 1.3019,-11.32183zm63.4153,-9.38883l-22.39484,0l0,41.47655l7.28646,0l0,-34.11737l7.77992,0l0,34.11737l7.32846,0l0,-41.47655zm43.39328,3.41036c-2.16284,-2.27818 -5.27061,-3.41036 -9.30231,-3.41036l-9.01883,0l0,41.47655l7.28646,0l0,-13.88995l2.41482,0c3.69572,0 6.60401,-1.18741 8.71436,-3.56223c2.11034,-2.37482 3.16027,-5.89563 3.16027,-10.56244c0,-4.43208 -1.08142,-7.7734 -3.25476,-10.05157l-0.00001,0zm-5.43859,15.58822c-0.81894,1.10457 -2.07884,1.64304 -3.77972,1.64304l-1.81637,0l0,-13.82092l1.81637,0c1.73237,0 3.00278,0.55229 3.80072,1.64304c0.80844,1.10457 1.20741,2.78904 1.20741,5.06721c0,2.54051 -0.40947,4.37685 -1.22841,5.46762l-0.00001,0zm53.43054,-14.48366c-2.24683,-3.68649 -5.4491,-5.53665 -9.60678,-5.53665c-4.12619,0 -7.31796,1.87777 -9.57529,5.6333c-2.26783,3.74173 -3.39125,9.11269 -3.39125,16.09908c0,7.09685 1.12341,12.50924 3.39125,16.22335c2.25733,3.7003 5.4491,5.56426 9.57529,5.56426c4.12619,0 7.32846,-1.87777 9.58579,-5.6333c2.25733,-3.74173 3.39125,-9.1403 3.39125,-16.15431c0,-7.11066 -1.12341,-12.50924 -3.37025,-16.19574l0,0.00001zm-13.68048,4.87391c0.87143,-2.26437 2.22583,-3.41036 4.0737,-3.41036c1.85836,0 3.21276,1.14599 4.0737,3.41036c0.87143,2.27818 1.3019,6.04751 1.3019,11.32183c0,5.34335 -0.43047,9.1403 -1.3019,11.40467c-0.86094,2.25056 -2.21533,3.36893 -4.0737,3.36893c-1.81637,0 -3.17076,-1.11837 -4.0527,-3.36893c-0.87143,-2.26437 -1.3124,-6.06132 -1.3124,-11.40467c0,-5.27431 0.43047,-9.04366 1.2914,-11.32183zm69.52584,32.08772l-2.09985,-41.47655l-9.14482,0l-3.64323,28.24934l-3.95821,-28.24934l-9.10283,0l-2.09985,41.47655l6.91898,0l0.40947,-16.22335c0.06299,-3.35512 0.09449,-5.78518 0.09449,-7.30396c0,-3.38274 -0.06299,-6.59979 -0.17849,-9.63736l4.36767,28.80163l6.82449,0l4.14719,-28.80163c-0.06299,1.32548 -0.09449,3.38274 -0.09449,6.17178c0,2.27818 0.06299,5.79899 0.17849,10.59005l0.40947,16.40285l6.97148,0l0.00002,0z"/>
   </g>
  </g>
  <g stroke="null" id="svg_8">
   <g stroke="null" id="svg_9" fill="#005bb9">
    <path stroke="null" id="svg_10" d="m180.84628,118.58532l0,-18.86109l-2.75551,0l-3.57195,15.22427c0.09185,-1.27525 0.16329,-2.39306 0.21432,-3.38492c0.06124,-0.97612 0.08165,-2.20413 0.08165,-3.65256l0,-8.18679l-2.22481,0l0,18.86109l2.79632,0l3.53112,-15.24001c-0.19391,2.31434 -0.29596,4.69165 -0.29596,7.13195l0,8.10807l2.22481,0zm7.27657,0l2.21461,0l0,-14.43708l-2.21461,0l0,5.77798l-2.67386,0l0,-5.77798l-2.2044,0l0,14.43708l2.2044,0l0,-6.06137l2.67386,0l0,6.06137zm10.88934,-14.43708l-7.45007,0l0,2.58198l2.5616,0l0,11.8551l2.21461,0l0,-11.8551l2.3881,0l0.28576,-2.58198zm7.7154,8.26551c0.03061,-0.75571 0.05103,-1.22802 0.05103,-1.38546c0,-2.34583 -0.33678,-4.15637 -0.98994,-5.41587c-0.66337,-1.24376 -1.58186,-1.87351 -2.76571,-1.87351c-1.21446,0 -2.16358,0.69273 -2.83715,2.10967c-0.68377,1.41694 -1.02055,3.27471 -1.02055,5.6048c0,2.37732 0.3572,4.21934 1.06138,5.54182c0.71439,1.33822 1.71453,1.99947 3.03105,1.99947c1.20426,0 2.26564,-0.62975 3.20455,-1.88926l-0.9287,-1.93649c-0.37761,0.42508 -0.72459,0.72421 -1.06138,0.92889c-0.32658,0.20467 -0.68377,0.29913 -1.06138,0.29913c-0.58172,0 -1.05118,-0.29913 -1.37775,-0.8974c-0.32658,-0.59827 -0.53069,-1.62161 -0.60213,-3.08579l5.29669,0l-0.00002,0.00001zm-2.13296,-2.37732l0,0.17318l-3.16373,0c0.05103,-1.46418 0.20411,-2.50326 0.46946,-3.13302c0.26535,-0.62975 0.64295,-0.94463 1.14302,-0.94463c0.54089,0 0.93891,0.33062 1.18385,0.97612c0.24493,0.64549 0.3674,1.62161 0.3674,2.92835l0,-0.00001zm10.80769,-4.32955c-0.51028,-1.30674 -1.2859,-1.96797 -2.32687,-1.96797c-1.00015,0 -1.837,0.70847 -2.49016,2.1569l-0.11226,-1.74757l-1.94927,0l0,20.35675l2.21461,-0.37785l0,-6.69112c0.54089,1.03909 1.24508,1.55864 2.11255,1.55864c1.03076,0 1.84721,-0.69273 2.43913,-2.09393c0.59192,-1.38546 0.88789,-3.24323 0.88789,-5.57331c0,-2.42455 -0.26535,-4.29806 -0.77563,-5.62054zm-1.95947,9.47778c-0.27555,0.78719 -0.68377,1.19653 -1.21446,1.19653c-0.59192,0 -1.092,-0.48806 -1.49001,-1.44843l0,-6.72261c0.45925,-1.2595 1.01035,-1.88926 1.6431,-1.88926c0.50007,0 0.86748,0.39359 1.12261,1.1493c0.24493,0.77145 0.3674,2.06244 0.3674,3.87298c0,1.77905 -0.14287,3.0543 -0.42863,3.84149zm9.51159,3.40067l2.2044,0l0,-14.43708l-2.2044,0l0,5.77798l-2.67386,0l0,-5.77798l-2.21461,0l0,14.43708l2.21461,0l0,-6.06137l2.67386,0l0,6.06137zm11.60373,-6.17158c0.04082,-0.75571 0.05103,-1.22802 0.05103,-1.38546c0,-2.34583 -0.32658,-4.15637 -0.98994,-5.41587c-0.65316,-1.24376 -1.58186,-1.87351 -2.75551,-1.87351c-1.21446,0 -2.16358,0.69273 -2.84736,2.10967c-0.67357,1.41694 -1.01035,3.27471 -1.01035,5.6048c0,2.37732 0.34699,4.21934 1.06138,5.54182c0.70418,1.33822 1.71453,1.99947 3.02084,1.99947c1.20426,0 2.27584,-0.62975 3.20455,-1.88926l-0.9185,-1.93649c-0.37761,0.42508 -0.7348,0.72421 -1.06138,0.92889c-0.32658,0.20467 -0.68377,0.29913 -1.06138,0.29913c-0.59192,0 -1.05118,-0.29913 -1.37775,-0.8974c-0.33678,-0.59827 -0.53069,-1.62161 -0.60213,-3.08579l5.28648,0l0.00001,0.00001zm-2.12276,-2.37732l0,0.17318l-3.16373,0c0.04082,-1.46418 0.20411,-2.50326 0.46946,-3.13302c0.26535,-0.62975 0.64295,-0.94463 1.14302,-0.94463c0.54089,0 0.9287,0.33062 1.18385,0.97612c0.24493,0.64549 0.3674,1.62161 0.3674,2.92835l0,-0.00001zm9.85858,-5.88819l-7.45007,0l0,2.58198l2.5616,0l0,11.8551l2.21461,0l0,-11.8551l2.3881,0l0.28576,-2.58198zm0.40822,7.2579l4.89867,0l0,-2.72368l-4.89867,0l0,2.72368zm15.91048,7.17918l-0.745,-14.43708l-2.69427,0l-1.37775,9.82414l-1.30631,-9.82414l-2.65345,0l-0.72459,14.43708l2.08194,0l0.19391,-6.02988c0.03061,-0.59827 0.04082,-1.47992 0.04082,-2.62922c0,-1.16504 -0.0102,-2.04669 -0.04082,-2.67645l1.4696,9.80839l1.87783,0l1.54104,-9.82414c-0.04082,1.03909 -0.05103,1.99947 -0.05103,2.88112c0,0.77145 0.0102,1.57438 0.05103,2.44029l0.22452,6.02988l2.11255,0l-0.00002,0.00001zm8.38897,-2.50326c-0.10206,-0.23616 -0.14287,-0.61401 -0.14287,-1.13356l0,-6.32902c0,-3.25897 -1.11241,-4.88058 -3.32701,-4.88058c-1.02055,0 -2.06153,0.34636 -3.13311,1.03909l0.51028,2.26711c0.89809,-0.5038 1.65331,-0.73996 2.26564,-0.73996c0.53069,0 0.9185,0.18892 1.15323,0.56678c0.23472,0.37785 0.34699,1.02335 0.34699,1.93649l0,0.8974l-0.9287,0c-1.2757,0 -2.25543,0.42508 -2.92899,1.24376c-0.66337,0.83442 -1.00015,2.03095 -1.00015,3.58959c0,1.33822 0.24493,2.4088 0.7348,3.22749c0.50007,0.81868 1.16344,1.22802 2.00029,1.22802c1.1022,0 1.93906,-0.69273 2.52077,-2.10967c0.15309,0.66124 0.37761,1.1493 0.69398,1.44843c0.31637,0.31488 0.72459,0.51955 1.23487,0.61401l0.45925,-2.26711c-0.21432,-0.15744 -0.3674,-0.34636 -0.45925,-0.59827l-0.00001,0.00001zm-2.32687,-1.33822c-0.3572,1.18078 -0.86748,1.76331 -1.52063,1.76331c-0.34699,0 -0.62254,-0.18892 -0.82665,-0.55103c-0.20411,-0.37785 -0.30617,-0.92889 -0.30617,-1.6531c0,-1.71608 0.65316,-2.56624 1.94927,-2.56624l0.70418,0l0,3.00707l0.00001,-0.00001zm6.74588,3.84149l0,-11.79212l3.2964,0l0.26535,-2.64496l-5.77635,0l0,14.43708l2.21461,0l-0.00001,0zm10.624,-2.50326c-0.10206,-0.23616 -0.14287,-0.61401 -0.14287,-1.13356l0,-6.32902c0,-3.25897 -1.11241,-4.88058 -3.32701,-4.88058c-1.02055,0 -2.06153,0.34636 -3.13311,1.03909l0.51028,2.26711c0.89809,-0.5038 1.65331,-0.73996 2.26564,-0.73996c0.53069,0 0.9185,0.18892 1.15323,0.56678c0.23472,0.37785 0.34699,1.02335 0.34699,1.93649l0,0.8974l-0.93891,0c-1.26549,0 -2.24523,0.42508 -2.91879,1.24376c-0.67357,0.83442 -1.00015,2.03095 -1.00015,3.58959c0,1.33822 0.24493,2.4088 0.7348,3.22749c0.50007,0.81868 1.16344,1.22802 2.00029,1.22802c1.1022,0 1.93906,-0.69273 2.52077,-2.10967c0.15309,0.66124 0.37761,1.1493 0.69398,1.44843c0.31637,0.31488 0.72459,0.51955 1.23487,0.61401l0.45925,-2.26711c-0.21432,-0.15744 -0.3674,-0.34636 -0.45925,-0.59827l0,0.00001zm-2.32687,-1.33822c-0.3572,1.18078 -0.86748,1.76331 -1.52063,1.76331c-0.34699,0 -0.63274,-0.18892 -0.82665,-0.55103c-0.20411,-0.37785 -0.30617,-0.92889 -0.30617,-1.6531c0,-1.71608 0.65316,-2.56624 1.94927,-2.56624l0.70418,0l0,3.00707l0.00001,-0.00001zm9.31768,-9.93435c-0.61233,-0.70847 -1.37775,-1.07058 -2.28605,-1.07058c-0.67357,0 -1.2757,0.12595 -1.80638,0.40934c-0.53069,0.26764 -1.03076,0.69273 -1.49001,1.24376l1.03076,1.84203c0.32658,-0.34636 0.64295,-0.61401 0.93891,-0.77145c0.29596,-0.15744 0.62254,-0.2519 0.98994,-0.2519c0.39802,0 0.71439,0.1417 0.94912,0.42508c0.24493,0.28339 0.3572,0.72421 0.3572,1.32248c0,1.32248 -0.53069,1.96797 -1.59207,1.96797l-0.84706,0l-0.12246,2.34583l1.14302,0c0.59192,0 1.04096,0.15744 1.33693,0.45657c0.28576,0.29913 0.43884,0.81868 0.43884,1.54289c0,1.46418 -0.54089,2.18839 -1.61248,2.18839c-0.42863,0 -0.80624,-0.09446 -1.13281,-0.28339c-0.32658,-0.17318 -0.69398,-0.47231 -1.08179,-0.8974l-1.06138,1.93649c0.94912,1.18078 2.07173,1.77905 3.37804,1.77905c1.15323,0 2.07173,-0.39359 2.77592,-1.18078c0.70418,-0.80293 1.05118,-1.93649 1.05118,-3.43215c0,-1.03909 -0.19391,-1.84203 -0.57151,-2.39306c-0.38781,-0.55103 -0.96953,-0.92889 -1.74515,-1.13356c0.64295,-0.26764 1.12261,-0.66124 1.42878,-1.16504c0.30617,-0.51955 0.45925,-1.18078 0.45925,-1.99947c0,-1.19653 -0.30617,-2.1569 -0.9287,-2.88112l-0.00003,0.00001zm10.36886,13.77584l0,-14.43708l-2.33707,0l-3.06167,10.94195c0.09185,-0.51955 0.1735,-1.24376 0.22452,-2.12541c0.06124,-0.8974 0.09185,-1.87351 0.09185,-2.94409l0,-5.87245l-2.09214,0l0,14.43708l2.32687,0l3.09229,-10.97344c-0.21432,1.47992 -0.31637,3.18025 -0.31637,5.101l0,5.87245l2.07173,0l-0.00001,-0.00001zm7.21533,0l2.21461,0l0,-14.43708l-2.21461,0l0,5.77798l-2.67386,0l0,-5.77798l-2.2044,0l0,14.43708l2.2044,0l0,-6.06137l2.67386,0l0,6.06137zm13.24683,-13.77584c-0.62254,-0.70847 -1.38796,-1.07058 -2.29625,-1.07058c-0.66337,0 -1.26549,0.12595 -1.79618,0.40934c-0.53069,0.26764 -1.03076,0.69273 -1.49001,1.24376l1.03076,1.84203c0.32658,-0.34636 0.64295,-0.61401 0.9287,-0.77145c0.29596,-0.15744 0.63274,-0.2519 1.00015,-0.2519c0.39802,0 0.71439,0.1417 0.94912,0.42508c0.23472,0.28339 0.3572,0.72421 0.3572,1.32248c0,1.32248 -0.53069,1.96797 -1.59207,1.96797l-0.84706,0l-0.13267,2.34583l1.15323,0c0.59192,0 1.03076,0.15744 1.32672,0.45657c0.29596,0.29913 0.44905,0.81868 0.44905,1.54289c0,1.46418 -0.54089,2.18839 -1.61248,2.18839c-0.42863,0 -0.80624,-0.09446 -1.13281,-0.28339c-0.33678,-0.17318 -0.69398,-0.47231 -1.08179,-0.8974l-1.06138,1.93649c0.93891,1.18078 2.07173,1.77905 3.37804,1.77905c1.14302,0 2.07173,-0.39359 2.77592,-1.18078c0.69398,-0.80293 1.05118,-1.93649 1.05118,-3.43215c0,-1.03909 -0.19391,-1.84203 -0.58172,-2.39306c-0.37761,-0.55103 -0.95933,-0.92889 -1.73494,-1.13356c0.64295,-0.26764 1.12261,-0.66124 1.42878,-1.16504c0.30617,-0.51955 0.45925,-1.18078 0.45925,-1.99947c0,-1.19653 -0.30617,-2.1569 -0.9287,-2.88112l-0.00001,0.00001zm9.56262,11.27257c-0.09185,-0.23616 -0.14287,-0.61401 -0.14287,-1.13356l0,-6.32902c0,-3.25897 -1.1022,-4.88058 -3.32701,-4.88058c-1.01035,0 -2.05132,0.34636 -3.13311,1.03909l0.52048,2.26711c0.89809,-0.5038 1.65331,-0.73996 2.26564,-0.73996c0.53069,0 0.90829,0.18892 1.14302,0.56678c0.24493,0.37785 0.3572,1.02335 0.3572,1.93649l0,0.8974l-0.93891,0c-1.2757,0 -2.24523,0.42508 -2.91879,1.24376c-0.67357,0.83442 -1.01035,2.03095 -1.01035,3.58959c0,1.33822 0.25514,2.4088 0.745,3.22749c0.50007,0.81868 1.16344,1.22802 2.00029,1.22802c1.1022,0 1.93906,-0.69273 2.51057,-2.10967c0.15309,0.66124 0.38781,1.1493 0.70418,1.44843c0.30617,0.31488 0.72459,0.51955 1.22467,0.61401l0.45925,-2.26711c-0.20411,-0.15744 -0.3572,-0.34636 -0.45925,-0.59827l-0.00001,0.00001zm-2.31666,-1.33822c-0.3674,1.18078 -0.86748,1.76331 -1.52063,1.76331c-0.3572,0 -0.63274,-0.18892 -0.83685,-0.55103c-0.19391,-0.37785 -0.29596,-0.92889 -0.29596,-1.6531c0,-1.71608 0.65316,-2.56624 1.94927,-2.56624l0.70418,0l0,3.00707l0,-0.00001zm9.35851,3.84149l2.21461,0l0,-14.43708l-7.04184,0l0,14.43708l2.21461,0l0,-11.8551l2.61262,0l0,11.8551l-0.00001,0zm11.04243,-14.43708l-2.2044,0l0,6.37624c-0.19391,0.37785 -0.43884,0.66124 -0.745,0.8974c-0.30617,0.22041 -0.60213,0.33062 -0.88789,0.33062c-0.33678,0 -0.59192,-0.1417 -0.75522,-0.42508c-0.1735,-0.29913 -0.25514,-0.77145 -0.25514,-1.44843l0,-5.73075l-2.2044,0l0,6.07711c0,1.291 0.20411,2.31434 0.63274,3.03856c0.42863,0.72421 1.04096,1.08632 1.837,1.08632c0.93891,0 1.72474,-0.5038 2.3779,-1.49566l0,5.73075l2.2044,0l0,-14.43708zm8.88905,11.93381c-0.09185,-0.23616 -0.14287,-0.61401 -0.14287,-1.13356l0,-6.32902c0,-3.25897 -1.11241,-4.88058 -3.32701,-4.88058c-1.01035,0 -2.06153,0.34636 -3.13311,1.03909l0.51028,2.26711c0.89809,-0.5038 1.65331,-0.73996 2.26564,-0.73996c0.53069,0 0.9185,0.18892 1.15323,0.56678c0.23472,0.37785 0.3572,1.02335 0.3572,1.93649l0,0.8974l-0.93891,0c-1.2757,0 -2.24523,0.42508 -2.91879,1.24376c-0.67357,0.83442 -1.01035,2.03095 -1.01035,3.58959c0,1.33822 0.24493,2.4088 0.745,3.22749c0.48987,0.81868 1.16344,1.22802 2.00029,1.22802c1.092,0 1.92885,-0.69273 2.51057,-2.10967c0.15309,0.66124 0.38781,1.1493 0.69398,1.44843c0.31637,0.31488 0.72459,0.51955 1.23487,0.61401l0.45925,-2.26711c-0.21432,-0.15744 -0.3674,-0.34636 -0.45925,-0.59827l-0.00001,0.00001zm-2.31666,-1.33822c-0.3674,1.18078 -0.87768,1.76331 -1.52063,1.76331c-0.3572,0 -0.63274,-0.18892 -0.83685,-0.55103c-0.20411,-0.37785 -0.29596,-0.92889 -0.29596,-1.6531c0,-1.71608 0.64295,-2.56624 1.93906,-2.56624l0.71439,0l0,3.00707l0,-0.00001zm9.57282,-10.59559c-0.44905,-0.28339 -0.94912,-0.40934 -1.51042,-0.40934c-0.80624,0 -1.52063,0.31488 -2.12276,0.94463c-0.61233,0.61401 -1.08179,1.52715 -1.40837,2.69219c-0.33678,1.18078 -0.50007,2.5505 -0.50007,4.10914c0,2.4088 0.3572,4.25083 1.08179,5.55757c0.71439,1.30674 1.71453,1.95223 2.99023,1.95223c1.01035,0 1.92885,-0.55103 2.7453,-1.66885l-0.98994,-2.04669c-0.30617,0.33062 -0.59192,0.56678 -0.83685,0.72421c-0.24493,0.15744 -0.52048,0.23616 -0.81644,0.23616c-0.60213,0 -1.05118,-0.36211 -1.36755,-1.08632c-0.31637,-0.73996 -0.46946,-1.96797 -0.46946,-3.71554c0,-1.76331 0.15309,-3.0543 0.46946,-3.84149c0.31637,-0.78719 0.76542,-1.18078 1.36755,-1.18078c0.58172,0 1.13281,0.31488 1.66351,0.97612l0.97974,-1.99947c-0.40822,-0.55103 -0.82665,-0.97612 -1.2757,-1.24376zm8.95028,0l-7.45007,0l0,2.58198l2.5718,0l0,11.8551l2.2044,0l0,-11.8551l2.39831,0l0.27555,-2.58198l0.00001,0zm7.7154,8.26551c0.04082,-0.75571 0.06124,-1.22802 0.06124,-1.38546c0,-2.34583 -0.33678,-4.15637 -1.00015,-5.41587c-0.65316,-1.24376 -1.58186,-1.87351 -2.75551,-1.87351c-1.21446,0 -2.16358,0.69273 -2.83715,2.10967c-0.68377,1.41694 -1.02055,3.27471 -1.02055,5.6048c0,2.37732 0.3572,4.21934 1.06138,5.54182c0.70418,1.33822 1.71453,1.99947 3.02084,1.99947c1.20426,0 2.27584,-0.62975 3.20455,-1.88926l-0.9185,-1.93649c-0.37761,0.42508 -0.7348,0.72421 -1.06138,0.92889c-0.32658,0.20467 -0.68377,0.29913 -1.06138,0.29913c-0.59192,0 -1.05118,-0.29913 -1.37775,-0.8974c-0.33678,-0.59827 -0.53069,-1.62161 -0.60213,-3.08579l5.28648,0l0,0.00001zm-2.12276,-2.37732l0,0.17318l-3.16373,0c0.04082,-1.46418 0.20411,-2.50326 0.46946,-3.13302c0.26535,-0.62975 0.64295,-0.94463 1.14302,-0.94463c0.54089,0 0.93891,0.33062 1.18385,0.97612c0.24493,0.64549 0.3674,1.62161 0.3674,2.92835l0,-0.00001zm11.09345,8.54889l0,-14.43708l-2.32687,0l-3.06167,10.94195c0.09185,-0.51955 0.16329,-1.24376 0.22452,-2.12541c0.06124,-0.8974 0.09185,-1.87351 0.09185,-2.94409l0,-5.87245l-2.09214,0l0,14.43708l2.31666,0l3.10249,-10.97344c-0.21432,1.47992 -0.31637,3.18025 -0.31637,5.101l0,5.87245l2.06153,0l0,-0.00001zm-5.42936,-18.40452c0.45925,0.66124 1.07159,0.99186 1.837,0.99186c0.77563,0 1.38796,-0.33062 1.85742,-1.0076c0.45925,-0.66124 0.7348,-1.55864 0.80624,-2.67645l-1.2757,-0.39359c-0.10206,0.56678 -0.25514,0.97612 -0.47966,1.22802c-0.22452,0.26764 -0.53069,0.39359 -0.90829,0.39359c-0.37761,0 -0.67357,-0.12595 -0.88789,-0.37785c-0.22452,-0.23616 -0.37761,-0.66124 -0.48987,-1.24376l-1.25529,0.39359c0.07144,1.13356 0.33678,2.04669 0.79603,2.69219zm19.0742,15.80679l-0.87768,0l0,-11.83935l-5.75594,0l-0.24493,5.58905c-0.07144,1.52715 -0.15309,2.70794 -0.25514,3.5581c-0.10206,0.83442 -0.21432,1.43268 -0.34699,1.77905c-0.13267,0.36211 -0.30617,0.66124 -0.51028,0.91314l-0.59192,0l0,6.91154l1.58186,0l0.26535,-4.31381l4.89867,0l0.26535,4.31381l1.57166,0l0,-6.91154l-0.00001,0zm-2.96982,-9.44629l0,9.44629l-3.34743,0c0.32658,-0.34636 0.57151,-0.75571 0.76542,-1.24376c0.1837,-0.47231 0.33678,-1.13356 0.43884,-1.95223c0.11226,-0.83442 0.19391,-1.95223 0.26535,-3.38492l0.12246,-2.86538l1.75536,0zm11.50167,-2.39306l-6.08252,0l-0.28576,6.81707c-0.07144,1.46418 -0.14287,2.50326 -0.21432,3.14877c-0.07144,0.66124 -0.1837,1.13356 -0.33678,1.44843c-0.15309,0.29913 -0.39802,0.58252 -0.72459,0.81868l0.5511,2.53476c0.71439,-0.33062 1.25529,-0.75571 1.61248,-1.2595c0.34699,-0.5038 0.60213,-1.24376 0.76542,-2.18839c0.16329,-0.94463 0.28576,-2.37732 0.37761,-4.28232l0.21432,-4.4555l1.90844,0l0,11.8551l2.21461,0l0,-14.43708l-0.00001,-0.00002zm8.88905,0l-3.05147,0c-1.24508,0 -2.1942,0.39359 -2.85756,1.16504c-0.65316,0.78719 -0.97974,1.92075 -0.97974,3.41641c0,1.73182 0.45925,2.95984 1.37775,3.71554l-1.95947,6.14009l2.31666,0l1.59207,-5.28992l1.34714,0l0,5.28992l2.21461,0l0,-14.43708zm-2.21461,6.92728l-0.90829,0c-0.53069,0 -0.90829,-0.18892 -1.15323,-0.55103c-0.24493,-0.37785 -0.3674,-0.97612 -0.3674,-1.79479c0,-0.77145 0.13267,-1.32248 0.38781,-1.68459c0.26535,-0.37785 0.66337,-0.55103 1.19405,-0.55103l0.84706,0l0,4.58145l-0.00001,0zm13.50197,-6.92728c-0.44905,-0.28339 -0.94912,-0.40934 -1.50022,-0.40934c-0.81644,0 -1.53083,0.31488 -2.13296,0.94463c-0.61233,0.61401 -1.08179,1.52715 -1.40837,2.69219c-0.33678,1.18078 -0.50007,2.5505 -0.50007,4.10914c0,2.4088 0.3572,4.25083 1.08179,5.55757c0.72459,1.30674 1.71453,1.95223 2.99023,1.95223c1.01035,0 1.92885,-0.55103 2.7453,-1.66885l-0.98994,-2.04669c-0.30617,0.33062 -0.59192,0.56678 -0.83685,0.72421c-0.24493,0.15744 -0.52048,0.23616 -0.81644,0.23616c-0.60213,0 -1.05118,-0.36211 -1.36755,-1.08632c-0.31637,-0.73996 -0.46946,-1.96797 -0.46946,-3.71554c0,-1.76331 0.15309,-3.0543 0.46946,-3.84149c0.31637,-0.78719 0.76542,-1.18078 1.36755,-1.18078c0.58172,0 1.13281,0.31488 1.66351,0.97612l0.97974,-1.99947c-0.39802,-0.55103 -0.82665,-0.97612 -1.2757,-1.24376zm7.45007,14.43708l2.21461,0l0,-14.43708l-7.04184,0l0,14.43708l2.2044,0l0,-11.8551l2.62283,0l0,11.8551l-0.00001,0zm11.60373,-6.17158c0.04082,-0.75571 0.06124,-1.22802 0.06124,-1.38546c0,-2.34583 -0.33678,-4.15637 -0.98994,-5.41587c-0.66337,-1.24376 -1.58186,-1.87351 -2.76571,-1.87351c-1.21446,0 -2.16358,0.69273 -2.83715,2.10967c-0.68377,1.41694 -1.02055,3.27471 -1.02055,5.6048c0,2.37732 0.3572,4.21934 1.06138,5.54182c0.70418,1.33822 1.71453,1.99947 3.03105,1.99947c1.20426,0 2.26564,-0.62975 3.19434,-1.88926l-0.9185,-1.93649c-0.37761,0.42508 -0.72459,0.72421 -1.06138,0.92889c-0.32658,0.20467 -0.68377,0.29913 -1.06138,0.29913c-0.59192,0 -1.05118,-0.29913 -1.37775,-0.8974c-0.32658,-0.59827 -0.53069,-1.62161 -0.60213,-3.08579l5.28648,0l-0.00001,0.00001zm-2.12276,-2.37732l0,0.17318l-3.16373,0c0.05103,-1.46418 0.20411,-2.50326 0.46946,-3.13302c0.26535,-0.62975 0.64295,-0.94463 1.14302,-0.94463c0.54089,0 0.93891,0.33062 1.18385,0.97612c0.24493,0.64549 0.3674,1.62161 0.3674,2.92835l0,-0.00001zm10.88934,5.95116l0,-11.83935l-2.21461,0l0,11.8236l-2.53098,0l0,-11.8236l-2.21461,0l0,14.43708l6.38868,0l0.26535,4.31381l1.58186,0l0,-6.91154l-1.2757,0l0.00002,0zm8.51144,-11.83935l-7.45007,0l0,2.58198l2.5616,0l0,11.8551l2.21461,0l0,-11.8551l2.3881,0l0.28576,-2.58198zm7.7154,8.26551c0.03061,-0.75571 0.05103,-1.22802 0.05103,-1.38546c0,-2.34583 -0.32658,-4.15637 -0.98994,-5.41587c-0.66337,-1.24376 -1.58186,-1.87351 -2.75551,-1.87351c-1.22467,0 -2.16358,0.69273 -2.84736,2.10967c-0.67357,1.41694 -1.01035,3.27471 -1.01035,5.6048c0,2.37732 0.34699,4.21934 1.06138,5.54182c0.70418,1.33822 1.71453,1.99947 3.02084,1.99947c1.20426,0 2.27584,-0.62975 3.20455,-1.88926l-0.9185,-1.93649c-0.37761,0.42508 -0.7348,0.72421 -1.06138,0.92889c-0.33678,0.20467 -0.68377,0.29913 -1.06138,0.29913c-0.59192,0 -1.05118,-0.29913 -1.38796,-0.8974c-0.32658,-0.59827 -0.53069,-1.62161 -0.60213,-3.08579l5.29669,0l0.00001,0.00001zm-2.12276,-2.37732l0,0.17318l-3.17393,0c0.05103,-1.46418 0.20411,-2.50326 0.46946,-3.13302c0.26535,-0.62975 0.65316,-0.94463 1.14302,-0.94463c0.54089,0 0.93891,0.33062 1.18385,0.97612c0.25514,0.64549 0.37761,1.62161 0.37761,2.92835l-0.00001,-0.00001zm7.90931,0.81868l2.40851,-6.70686l-2.30646,0l-1.39816,4.9593l-1.42878,-4.9593l-2.3881,0l2.49016,6.81707l-2.77592,7.62001l2.35749,0l1.67372,-5.79373l1.73494,5.79373l2.44934,0l-2.81673,-7.73022zm8.7972,7.73022l2.21461,0l0,-14.43708l-2.21461,0l0,5.77798l-2.67386,0l0,-5.77798l-2.21461,0l0,14.43708l2.21461,0l0,-6.06137l2.67386,0l0,6.06137zm11.716,0l0,-14.43708l-2.33707,0l-3.06167,10.94195c0.09185,-0.51955 0.1735,-1.24376 0.22452,-2.12541c0.06124,-0.8974 0.09185,-1.87351 0.09185,-2.94409l0,-5.87245l-2.09214,0l0,14.43708l2.32687,0l3.09229,-10.97344c-0.21432,1.47992 -0.31637,3.18025 -0.31637,5.101l0,5.87245l2.07173,0l-0.00001,-0.00001zm9.532,-14.43708l-2.12276,0l-1.94927,5.73075l-0.9185,0l0,-5.73075l-2.2044,0l0,14.43708l2.2044,0l0,-6.40774l0.86748,0l2.04111,6.40774l2.31666,0l-2.5514,-7.74596l2.31666,-6.69112l0.00001,0zm8.58288,14.43708l0,-14.43708l-2.33707,0l-3.06167,10.94195c0.10206,-0.51955 0.1735,-1.24376 0.23472,-2.12541c0.06124,-0.8974 0.09185,-1.87351 0.09185,-2.94409l0,-5.87245l-2.09214,0l0,14.43708l2.31666,0l3.10249,-10.97344c-0.21432,1.47992 -0.32658,3.18025 -0.32658,5.101l0,5.87245l2.07173,0l0.00001,-0.00001z"/>
   </g>
  </g>
 </g>
 <defs>
  <linearGradient id="svg_20" x1="-0.57281" y1="-0.57252" x2="-0.13477" y2="-1.04652">
   <stop stop-color="#646464" offset="0.05"/>
   <stop stop-color="#242424" offset="0.95"/>
  </linearGradient>
 </defs>
</svg>