<svg width="0" height="0" class="hidden">
	<symbol xmlns="http://www.w3.org/2000/svg" viewBox="0 0 18 10" id="arrow-drop">
		<g clip-path="url(#clip0_288_23)">
			<path fill-rule="evenodd" clip-rule="evenodd" d="M3.18003 0.414194L9.00003 5.95705L14.82 0.414195C15.405 -0.142948 16.35 -0.142948 16.935 0.414195C17.52 0.971338 17.52 1.87134 16.935 2.42848L10.05 8.98562C9.46503 9.54277 8.52003 9.54277 7.93503 8.98562L1.05003 2.42848C0.465031 1.87134 0.465031 0.971337 1.05003 0.414194C1.63503 -0.128663 2.59503 -0.142948 3.18003 0.414194Z">
			</path>
		</g>
		<defs>
			<clipPath id="clip0_288_23">
				<rect width="10" height="18" fill="white" transform="translate(18) rotate(90)">
				</rect>
			</clipPath>
		</defs>
	</symbol>
	<symbol xmlns="http://www.w3.org/2000/svg" viewBox="0 0 320 512" id="close">
		<path d="M310.6 150.6c12.5-12.5 12.5-32.8 0-45.3s-32.8-12.5-45.3 0L160 210.7 54.6 105.4c-12.5-12.5-32.8-12.5-45.3 0s-12.5 32.8 0 45.3L114.7 256 9.4 361.4c-12.5 12.5-12.5 32.8 0 45.3s32.8 12.5 45.3 0L160 301.3 265.4 406.6c12.5 12.5 32.8 12.5 45.3 0s12.5-32.8 0-45.3L205.3 256 310.6 150.6z">
		</path>
	</symbol>
	<symbol xmlns="http://www.w3.org/2000/svg" viewBox="0 0 10 7" id="arrow-drop">
		<path fill-rule="evenodd" clip-rule="evenodd" d="M9.53033 0.96967C9.82322 1.26256 9.82322 1.73744 9.53033 2.03033L5.53033 6.03033C5.23744 6.32322 4.76256 6.32322 4.46967 6.03033L0.46967 2.03033C0.176777 1.73744 0.176777 1.26256 0.46967 0.96967C0.762563 0.676777 1.23744 0.676777 1.53033 0.96967L5 4.43934L8.46967 0.96967C8.76256 0.676777 9.23744 0.676777 9.53033 0.96967Z">
		</path>
	</symbol>
	<symbol id="callback" enable-background="new 0 0 511.557 511.557" xmlns="http://www.w3.org/2000/svg" viewBox="0 0 511.557 511.557">
		<g>
			<path d="m390.623 290.84c-19.391-19.391-50.94-19.392-70.331 0l-28.412 28.411c-50.085-38.955-94.073-84.739-131.004-136.357l25.735-25.735c19.391-19.39 19.391-50.941 0-70.331l-43.528-43.528c-19.39-19.391-50.94-19.391-70.332 0l-49.388 49.388c-25.202 25.202-30.647 64.474-13.242 95.502 64.465 114.923 157.249 213.244 268.32 284.333 12.754 8.163 27.667 12.473 42.77 12.473 2.971 0 5.949-.167 8.92-.504 17.994-2.042 34.945-10.243 47.73-23.093l56.441-56.728c19.291-19.39 19.251-50.9-.09-70.242zm22.412 92.673-56.441 56.728c-16.441 16.526-42.51 19.477-61.981 7.016-106.936-68.444-196.264-163.102-258.327-273.744-10.859-19.359-7.451-43.872 8.29-59.613l49.388-49.388c3.847-3.847 8.9-5.77 13.953-5.77s10.106 1.923 13.953 5.77l43.527 43.527c7.693 7.693 7.693 20.211 0 27.905l-34.642 34.642c-5.113 5.113-5.851 13.145-1.755 19.104 42.671 62.073 94.901 116.395 155.239 161.456 5.972 4.459 14.312 3.859 19.582-1.412l37.683-37.682c7.692-7.693 20.211-7.694 27.905 0l43.59 43.59c7.674 7.675 7.69 20.177.036 27.871z">
			</path>
			<path d="m458.553 51.334h-154.938c4.037-4.697 4.898-11.603 1.625-17.271-4.143-7.175-13.316-9.632-20.49-5.49l-42.904 24.77c-4.585 2.647-7.507 7.692-7.5 12.99.008 5.302 2.905 10.337 7.5 12.99l42.904 24.77c2.362 1.364 4.941 2.012 7.486 2.012 5.184 0 10.226-2.69 13.004-7.502 3.272-5.668 2.411-12.573-1.625-17.27h154.938c12.685 0 23.004 10.319 23.004 23.004s-10.319 23.004-23.004 23.004h-123.064c-8.284 0-15 6.716-15 15s6.716 15 15 15h123.064c29.227 0 53.004-23.777 53.004-53.004 0-29.226-23.777-53.003-53.004-53.003z">
			</path>
		</g>
	</symbol>
	<symbol version="1.1" id="catalog-oils" xmlns="http://www.w3.org/2000/svg" xmlns:xlink="http://www.w3.org/1999/xlink" x="0px" y="0px" xml:space="preserve" viewBox="0 0 512 512">
		<g>
			<g>
				<g>
					<rect x="87.405" y="474.063" width="21.868" height="14.995">
					</rect>
					<path d="M48.324,489.057h29.71v-14.995h-29.71c-4.89,0-8.869-4.413-8.869-9.839v-10.265H24.461v10.265 C24.461,477.917,35.166,489.057,48.324,489.057z">
					</path>
					<rect x="295.285" y="146.749" width="16.936" height="14.995">
					</rect>
					<rect x="262.546" y="146.749" width="16.936" height="14.995">
					</rect>
					<path d="M504.663,185.462L366.909,61.025c-4.34-4.089-10.01-6.341-15.975-6.341h-8.986V0H211.889v54.894 c-11.394,1.513-20.217,11.286-20.217,23.088v125.73h-9.417v-50.893H72.205v50.893H28.143c-15.466,0-28.05,12.582-28.05,28.049 v44.084v165.271v42.835c0,15.466,12.583,28.05,28.05,28.05h198.174h262.291c12.847,0,23.298-10.451,23.298-23.297V202.346 C511.907,195.993,509.267,189.84,504.663,185.462z M226.883,14.995h100.069v12.347H226.883V14.995z M226.883,42.336h100.069 v12.347H226.883V42.336z M160.046,167.813h7.215v35.899h-7.215V167.813z M134.727,167.813h10.324v35.899h-10.324V167.813z M109.409,167.813h10.323v35.899h-10.323V167.813z M87.2,167.813h7.215v35.899H87.2V167.813z M239.371,463.694v14.995v5.261 c0,7.198-5.856,13.055-13.054,13.055H28.143v0.001c-7.198,0-13.055-5.856-13.055-13.055v-42.835h224.283V463.694z M239.372,426.121H15.089V290.839h224.283V426.121z M239.372,275.845H15.089v-44.084c0-7.198,5.856-13.054,13.055-13.054h44.062 h110.051h9.417h34.644c0.481,0,1.024,0.042,1.71,0.132c6.468,0.845,11.344,6.4,11.344,12.922V275.845z M250.439,217.496 c-0.31-0.521-0.636-1.031-0.978-1.529c-0.064-0.093-0.129-0.184-0.193-0.276c-0.358-0.509-0.727-1.009-1.117-1.492 c-0.015-0.019-0.031-0.036-0.046-0.055c-0.385-0.475-0.788-0.935-1.203-1.383c-0.065-0.071-0.129-0.143-0.195-0.213 c-0.417-0.442-0.849-0.87-1.294-1.285c-0.08-0.075-0.162-0.148-0.243-0.223c-0.46-0.42-0.931-0.828-1.419-1.217 c-0.024-0.019-0.048-0.036-0.072-0.055c-0.479-0.379-0.974-0.74-1.477-1.089c-0.075-0.052-0.149-0.106-0.225-0.157 c-0.507-0.343-1.028-0.668-1.557-0.979c-0.097-0.057-0.195-0.112-0.292-0.167c-0.545-0.31-1.098-0.606-1.664-0.879 c-0.037-0.018-0.075-0.034-0.112-0.051c-0.551-0.263-1.114-0.505-1.684-0.733c-0.057-0.023-0.112-0.051-0.169-0.073v-90.341 c0-2.875,2.339-5.214,5.215-5.214h104.998c1.345,0,2.62,0.51,3.593,1.434l115.183,106.523c0.76,0.734,1.277,1.685,1.487,2.71 c0.07,0.341,0.107,0.691,0.107,1.043v236.684c0,2.875-2.339,5.215-5.215,5.215H254.366v-22.579V275.845v-44.084 c0-0.661-0.031-1.316-0.077-1.967c-0.008-0.119-0.015-0.237-0.025-0.355c-0.052-0.624-0.125-1.242-0.217-1.854 c-0.018-0.119-0.039-0.236-0.058-0.354c-0.104-0.632-0.222-1.259-0.368-1.876c-0.002-0.01-0.005-0.02-0.008-0.03 c-0.146-0.614-0.317-1.218-0.503-1.816c-0.033-0.107-0.064-0.214-0.099-0.32c-0.188-0.581-0.395-1.154-0.619-1.718 c-0.043-0.108-0.088-0.214-0.132-0.321c-0.239-0.579-0.49-1.151-0.766-1.71c-0.009-0.018-0.019-0.035-0.027-0.053 c-0.273-0.552-0.568-1.09-0.875-1.62C250.542,217.675,250.492,217.585,250.439,217.496z M488.608,497.005h-237.47 c0.054-0.102,0.1-0.209,0.153-0.312c0.158-0.309,0.313-0.621,0.459-0.936c0.079-0.169,0.156-0.339,0.231-0.51 c0.137-0.309,0.267-0.622,0.393-0.937c0.067-0.168,0.136-0.335,0.199-0.505c0.139-0.368,0.267-0.741,0.391-1.116 c0.038-0.116,0.081-0.229,0.117-0.346c0.154-0.489,0.294-0.984,0.421-1.483c0.035-0.136,0.063-0.275,0.095-0.412 c0.088-0.371,0.172-0.744,0.245-1.12c0.036-0.184,0.067-0.37,0.1-0.556c0.059-0.34,0.113-0.681,0.159-1.025 c0.026-0.193,0.052-0.386,0.074-0.58c0.042-0.362,0.074-0.727,0.102-1.094c0.013-0.17,0.029-0.338,0.039-0.509 c0.031-0.536,0.05-1.075,0.05-1.617v-5.261h207.501c11.143,0,20.21-9.066,20.21-20.21V221.796c0-5.51-2.29-10.848-6.283-14.645 L360.595,100.617c-2.825-2.672-6.305-4.444-10.056-5.163c-1.251-0.24-2.532-0.362-3.83-0.362H241.712 c-11.143,0-20.21,9.066-20.21,20.209v88.411h-14.836V77.981c0-4.578,3.725-8.303,8.303-8.303h126.977h8.986 c2.139,0,4.171,0.813,5.722,2.286l137.735,124.42c1.603,1.556,2.521,3.724,2.521,5.96v286.357h0.001 C496.912,493.28,493.186,497.005,488.608,497.005z">
					</path>
					<path d="M351.789,371.384c24.755,0,44.894-20.14,44.894-44.895c0-27.315-34.257-97.938-38.163-105.901l-6.703-13.666 l-6.748,13.645c-3.908,7.901-38.174,78.002-38.174,105.922C306.895,351.244,327.034,371.384,351.789,371.384z M351.767,241.347 c12.019,26.085,29.921,68.52,29.921,85.142c0,16.487-13.413,29.9-29.899,29.9c-16.487,0-29.9-13.413-29.9-29.9 C321.889,309.491,339.751,267.279,351.767,241.347z">
					</path>
					<rect x="268.852" y="402.067" width="165.875" height="14.995">
					</rect>
					<rect x="68.658" y="229.653" width="117.145" height="14.995">
					</rect>
					<rect x="268.852" y="430.441" width="165.875" height="14.994">
					</rect>
					<path d="M127.23,414.075c16.711,0,30.305-13.595,30.305-30.306c0-17.319-21.161-60.958-23.574-65.877l-6.704-13.666 l-6.748,13.645c-2.414,4.881-23.585,48.205-23.585,65.898C96.925,400.48,110.52,414.075,127.23,414.075z M127.21,338.88 c7.5,16.819,15.331,36.938,15.331,44.89c0,8.443-6.868,15.311-15.31,15.311s-15.31-6.868-15.31-15.311 C111.919,375.639,119.725,355.596,127.21,338.88z">
					</path>
				</g>
			</g>
		</g>
	</symbol>
	<symbol xmlns="http://www.w3.org/2000/svg" viewBox="0 0 101 101" id="catalog-tires">
		<path d="M63.72 7.004H35.661c-15.514 0-28.135 19.289-28.135 42.998C7.526 73.71 20.147 93 35.661 93H63.72c15.514 0 28.136-19.29 28.136-42.998 0-23.71-12.623-42.998-28.136-42.998Zm-28.059 3h17.754c-4.232 2.555-7.962 6.632-10.904 11.79l-16.68 7.888-8.433-7.12c4.586-7.724 11.075-12.558 18.263-12.558Zm.107 35.152L22.797 53.02l-12.121-7.348c.521-7.66 2.408-14.671 5.261-20.417l8.697 7.342a1.501 1.501 0 0 0 1.609.21l14.083-6.66c-2.436 5.562-4.043 12.036-4.558 19.009Zm-25.228 3.94 11.479 6.959a1.494 1.494 0 0 0 1.555.001l12.031-7.294c-.008.413-.021.823-.021 1.239 0 7.585 1.297 14.713 3.562 20.906l-9.114 7.087-15.961-7.93c-.053-.025-.109-.041-.163-.061-2.147-5.89-3.383-12.72-3.383-20.003.001-.301.011-.601.015-.903ZM35.661 90c-8.145 0-15.395-6.202-19.991-15.79l13.872 6.892a1.51 1.51 0 0 0 1.588-.16l9.174-7.133c3.167 7.25 7.736 12.946 13.11 16.19H35.661Zm28.059 0c-8.964 0-16.841-7.511-21.292-18.78a1.472 1.472 0 0 0-.267-.681c-2.268-6.007-3.576-13.033-3.576-20.537 0-22.055 11.275-39.998 25.135-39.998 13.86 0 25.136 17.943 25.136 39.998C88.855 72.057 77.58 90 63.72 90Z" stroke-width="2.2">
		</path>
		<path d="M63.72 23.984c-7.985 0-14.24 11.43-14.24 26.018 0 14.59 6.254 26.02 14.24 26.02 7.986 0 14.24-11.43 14.24-26.02 0-14.589-6.255-26.018-14.24-26.018Zm0 49.036c-6.093 0-11.24-10.54-11.24-23.019 0-12.477 5.147-23.018 11.24-23.018s11.24 10.541 11.24 23.018c0 12.478-5.148 23.02-11.24 23.02Z" stroke-width="2.2">
		</path>
	</symbol>
	<symbol xmlns="http://www.w3.org/2000/svg" xml:space="preserve" viewBox="0 0 512.002 512.002" id="catalog-wheel">
		<path d="M448.262 102.116c-41.103-41.103-95.753-63.74-153.882-63.74-58.129 0-112.779 22.637-153.882 63.74-41.103 41.103-63.74 95.753-63.74 153.882 0 22.468 3.412 44.549 10.136 65.764L5 369.043a9.997 9.997 0 0 0-3.66 13.66l36.79 63.721c.057.098.127.182.186.277l.152.264c2.296 3.978 4.67 8.093 7.204 11.325 7.871 10.038 17.503 15.336 27.392 15.336 3.137 0 6.3-.534 9.439-1.618 18.24-6.299 31.769-30.598 33.292-58.877l17.949-10.363c41.231 45.122 99.296 70.851 160.636 70.851 58.129 0 112.779-22.637 153.882-63.74 41.103-41.103 63.74-95.753 63.74-153.882s-22.637-112.778-63.74-153.881zM75.976 453.104c-4.678 1.616-9.577-.793-14.565-7.155-.237-.302-.483-.64-.733-.994l33.174-19.153c-3.511 14.57-10.893 24.89-17.876 27.302zM50.45 427.765l-26.79-46.401 94.82-54.744 26.805 46.393-94.835 54.752zm243.93-266.189c52.064 0 94.423 42.357 94.423 94.422 0 52.064-42.358 94.422-94.423 94.422a94.653 94.653 0 0 1-47.631-12.895l92.73-53.538c4.783-2.761 6.422-8.877 3.66-13.66l-36.789-63.722a9.997 9.997 0 0 0-13.66-3.66l-92.731 53.538-.001-.486c0-52.063 42.357-94.421 94.422-94.421zm-83.411-3.131c20.081-17.195 45.508-28.315 73.411-30.474v14.047c-24.05 2.093-45.991 11.654-63.487 26.35l-9.924-9.923zm93.411-16.427v-14.047c27.903 2.159 53.33 13.279 73.411 30.473l-9.924 9.924c-17.496-14.696-39.438-24.257-63.487-26.35zm103.981 103.98c-2.094-24.05-11.654-45.991-26.352-63.487l9.924-9.924c17.195 20.08 28.315 45.508 30.475 73.411h-14.047zm14.048 20c-2.161 27.903-13.281 53.331-30.475 73.412l-9.924-9.924c14.697-17.496 24.258-39.438 26.352-63.488h14.047zm-44.618 87.553c-20.08 17.195-45.508 28.315-73.411 30.474v-14.047c24.05-2.093 45.991-11.654 63.487-26.351l9.924 9.924zm-93.411 16.425v14.048c-25.776-1.977-50.064-11.575-70.176-27.709l13.165-7.601a114.692 114.692 0 0 0 57.011 21.262zM180.4 245.997h-14.047c2.159-27.902 13.28-53.329 30.473-73.41l9.924 9.923c-14.696 17.496-24.258 39.437-26.35 63.487zm.178 21.677-13.172 7.604a129.595 129.595 0 0 1-1.05-9.28h14.051c.049.56.113 1.117.171 1.676zm113.453-42.408 26.789 46.401-158.214 91.344-26.804-46.392 158.229-91.353zm.349 228.354c-54.222 0-105.641-22.131-142.874-61.106l12.436-7.181.009-.004a.036.036 0 0 0 .01-.007l31.844-18.385c27.197 24.221 61.908 37.475 98.575 37.475 40.475 0 77.211-16.293 104.013-42.656.322-.251.637-.517.933-.814.297-.297.564-.611.815-.934 26.361-26.802 42.654-63.537 42.654-104.011s-16.292-77.209-42.654-104.01a10.214 10.214 0 0 0-.815-.935 10.075 10.075 0 0 0-.935-.816c-26.802-26.361-63.536-42.653-104.01-42.653-40.473 0-77.207 16.291-104.008 42.652-.324.252-.64.519-.938.817a9.973 9.973 0 0 0-.817.938c-26.36 26.801-42.651 63.535-42.651 104.007 0 10.075 1.031 20.1 3.038 29.905l-44.339 25.599c-5.251-17.963-7.907-36.58-7.907-55.504 0-108.969 88.653-197.622 197.622-197.622s197.622 88.653 197.622 197.622S403.349 453.62 294.38 453.62z">
		</path>
		<path d="M185.859 116.153c-3.578-4.209-9.889-4.72-14.097-1.144l-.171.148c-4.184 3.581-4.686 9.874-1.116 14.074a9.977 9.977 0 0 0 7.624 3.524 9.962 9.962 0 0 0 6.617-2.506c4.208-3.577 4.72-9.888 1.143-14.096zM446.719 346.311c-4.595-3.063-10.821-1.795-13.885 2.8-3.122 4.556-1.959 10.78 2.597 13.902a9.951 9.951 0 0 0 5.644 1.751 9.989 9.989 0 0 0 8.258-4.349l.178-.263c3.062-4.595 1.803-10.777-2.792-13.841zM165.273 134.723c-4.231-3.547-10.54-2.995-14.088 1.239a187.16 187.16 0 0 0-18.623 26.61c-2.762 4.783-1.123 10.899 3.66 13.66a9.997 9.997 0 0 0 13.66-3.66 167.3 167.3 0 0 1 16.629-23.761c3.55-4.232 2.995-10.54-1.238-14.088zM467.794 292.111c-5.337-1.429-10.818 1.737-12.248 7.071a167.32 167.32 0 0 1-9.913 27.256c-2.331 5.007-.163 10.956 4.844 13.287a9.964 9.964 0 0 0 4.215.937c3.768 0 7.377-2.14 9.072-5.781a187.506 187.506 0 0 0 11.101-30.523c1.429-5.334-1.737-10.817-7.071-12.247z">
		</path>
	</symbol>
	<symbol xmlns="http://www.w3.org/2000/svg" viewBox="0 0 64 64" id="catalog-battery">
		<g id="Battery_Accumulator">
			<path d="M63,14H57V10a1,1,0,0,0-1-1H55V5a1,1,0,0,0-1-1H48a1,1,0,0,0-1,1V9H46a1,1,0,0,0-1,1v4H41.6182l-1.7237-3.4473A1,1,0,0,0,39,10H25a1,1,0,0,0-.8945.5527L22.3818,14H19V10a1,1,0,0,0-1-1H17V5a1,1,0,0,0-1-1H10A1,1,0,0,0,9,5V9H8a1,1,0,0,0-1,1v4H1a1,1,0,0,0-1,1v8a1,1,0,0,0,1,1H4V59a1,1,0,0,0,1,1H59a1,1,0,0,0,1-1V24h3a1,1,0,0,0,1-1V15A1,1,0,0,0,63,14ZM49,6h4V9H49Zm-2,5h8v3H47ZM25.6182,12H38.3818l1,2H24.6182ZM11,6h4V9H11ZM9,11h8v3H9ZM58,58H6V24H58Zm4-36H2V16H62Z">
			</path>
			<path d="M22,44h7v8a1,1,0,0,0,1.7349.6787l12-13A1,1,0,0,0,42,38H35V30a1,1,0,0,0-1.7349-.6787l-12,13A1,1,0,0,0,22,44ZM33,32.5576V39a1,1,0,0,0,1,1h5.7158L31,49.4424V43a1,1,0,0,0-1-1H24.2842Z">
			</path>
			<path d="M49,30h1v1a1,1,0,0,0,2,0V30h1a1,1,0,0,0,0-2H52V27a1,1,0,0,0-2,0v1H49a1,1,0,0,0,0,2Z">
			</path>
			<path d="M11,30h4a1,1,0,0,0,0-2H11a1,1,0,0,0,0,2Z">
			</path>
		</g>
	</symbol>
	<symbol xmlns="http://www.w3.org/2000/svg" viewBox="0 0 48 48" id="messages">
		<path d="M35.99 43.069c-.5 0-.982-.192-1.347-.534L29.758 38H18.34a1 1 0 0 1 0-2h11.81a1 1 0 0 1 .681.268l5.17 4.8V37a1 1 0 0 1 1-1h4a3 3 0 0 0 3-3V16a3 3 0 0 0-1.5-2.593 1 1 0 1 1 1-1.734A5.001 5.001 0 0 1 46 16v17a5.006 5.006 0 0 1-5 5h-3v3.06a2.015 2.015 0 0 1-2.01 2.009Z">
		</path>
		<path d="M12.01 38.068a2.02 2.02 0 0 1-.81-.171 1.976 1.976 0 0 1-1.2-1.834V33H7a5.006 5.006 0 0 1-5-5V11a5.006 5.006 0 0 1 5-5h28a5.006 5.006 0 0 1 5 5v17a5.006 5.006 0 0 1-5 5H18.238l-4.877 4.529a1.976 1.976 0 0 1-1.351.539ZM7 8a3 3 0 0 0-3 3v17a3 3 0 0 0 3 3h4a1 1 0 0 1 1 1v4.063l5.165-4.8a1 1 0 0 1 .681-.263H35a3 3 0 0 0 3-3V11a3 3 0 0 0-3-3H7Z">
		</path>
		<path d="M30 23a3.5 3.5 0 1 1 0-7 3.5 3.5 0 0 1 0 7Zm0-5a1.5 1.5 0 1 0 0 3 1.5 1.5 0 0 0 0-3ZM21 23a3.5 3.5 0 1 1 0-7 3.5 3.5 0 0 1 0 7Zm0-5a1.5 1.5 0 1 0 0 3 1.5 1.5 0 0 0 0-3ZM12 23a3.5 3.5 0 1 1 0-7 3.5 3.5 0 0 1 0 7Zm0-5a1.5 1.5 0 1 0 0 3 1.5 1.5 0 0 0 0-3Z">
		</path>
	</symbol>
	<symbol xmlns="http://www.w3.org/2000/svg" viewBox="0 0 32 32" id="scales">
		<path d="M29.887,15.559,25.9,7.553a.993.993,0,0,0-1-.547l-6.2.69A3,3,0,0,0,17,6.184V5a1,1,0,0,0-2,0V6.184a3,3,0,0,0-1.914,2.133l-6.2.689a1,1,0,0,0-.785.547l-3.99,8A.978.978,0,0,0,2,18a4,4,0,0,0,4,4H8a4,4,0,0,0,4-4,.978.978,0,0,0-.1-.427c0-.008-3.36-6.738-3.36-6.738l4.775-.531A3,3,0,0,0,15,11.816V23H11a4,4,0,0,0-4,4,1,1,0,0,0,1,1H24a1,1,0,0,0,1-1,4,4,0,0,0-4-4H17V11.816a3,3,0,0,0,1.914-2.133L23.283,9.2s-3.178,6.371-3.182,6.381A.982.982,0,0,0,20,16a4,4,0,0,0,4,4h2a4,4,0,0,0,4-4A.978.978,0,0,0,29.887,15.559ZM21,25a2,2,0,0,1,1.731,1H9.269A2,2,0,0,1,11,25Zm6.382-10H22.618L25,10.237ZM7,12.236,9.382,17H4.618ZM8,20H6a2,2,0,0,1-1.731-1H9.731A2,2,0,0,1,8,20Zm8-10a1,1,0,1,1,1-1A1,1,0,0,1,16,10Zm10,8H24a2,2,0,0,1-1.731-1h5.462A2,2,0,0,1,26,18Z">
		</path>
	</symbol>
	<symbol xmlns="http://www.w3.org/2000/svg" xml:space="preserve" viewBox="0 0 243.5 243.5" id="cart">
		<path d="M113.403 157.775a7.5 7.5 0 1 0 14.92-1.543l-3.458-33.468a7.5 7.5 0 0 0-14.921 1.542l3.459 33.469zm46.935 6.689a7.502 7.502 0 0 0 8.231-6.689l3.458-33.468a7.499 7.499 0 0 0-6.689-8.231c-4.121-.422-7.806 2.57-8.232 6.689l-3.458 33.468a7.5 7.5 0 0 0 6.69 8.231zm-58.072 32.6c-12.801 0-23.215 10.414-23.215 23.215 0 12.804 10.414 23.221 23.215 23.221s23.216-10.417 23.216-23.221c-.001-12.8-10.415-23.215-23.216-23.215zm0 31.436c-4.53 0-8.215-3.688-8.215-8.221 0-4.53 3.685-8.215 8.215-8.215 4.53 0 8.216 3.685 8.216 8.215-.001 4.533-3.686 8.221-8.216 8.221zm77.441-31.436c-12.801 0-23.216 10.414-23.216 23.215 0 12.804 10.415 23.221 23.216 23.221 12.802 0 23.218-10.417 23.218-23.221 0-12.8-10.416-23.215-23.218-23.215zm0 31.436c-4.53 0-8.216-3.688-8.216-8.221 0-4.53 3.686-8.215 8.216-8.215 4.531 0 8.218 3.685 8.218 8.215 0 4.533-3.687 8.221-8.218 8.221z">
		</path>
		<path d="M224.569 91.057a7.5 7.5 0 0 0-5.933-2.913H69.141l-6.277-24.141a7.5 7.5 0 0 0-7.259-5.612h-30.74a7.5 7.5 0 0 0 0 15h24.941l6.221 23.922c.034.15.073.299.116.446l23.15 89.022a7.5 7.5 0 0 0 7.259 5.612h108.874a7.5 7.5 0 0 0 7.259-5.612l23.211-89.25a7.508 7.508 0 0 0-1.327-6.474zm-34.943 86.338H92.35l-19.309-74.25h135.894l-19.309 74.25z">
		</path>
		<path d="M135.674 74.826a7.478 7.478 0 0 0 5.303 2.197c1.92 0 3.839-.732 5.303-2.197l24.28-24.28a7.5 7.5 0 1 0-10.606-10.606l-11.468 11.468.002-43.907A7.5 7.5 0 0 0 140.989 0h-.001a7.5 7.5 0 0 0-7.5 7.499l-.002 43.925-11.468-11.468a7.5 7.5 0 0 0-10.606 0 7.5 7.5 0 0 0 0 10.606l24.262 24.264z">
		</path>
	</symbol>
	<symbol xmlns="http://www.w3.org/2000/svg" viewBox="0 0 20 17" id="heart">
		<path fill-rule="evenodd" clip-rule="evenodd" d="M0.520752 5.88808C0.520752 2.96254 3.08732 0.709961 6.09992 0.709961C7.65284 0.709961 9.01928 1.43811 9.99992 2.38028C10.9806 1.43811 12.347 0.709961 13.8999 0.709961C16.9126 0.709961 19.4791 2.96254 19.4791 5.88808C19.4791 7.89214 18.6244 9.6544 17.4405 11.1441C16.2584 12.6313 14.7124 13.8934 13.232 14.919C12.6665 15.3107 12.0945 15.672 11.5711 15.9386C11.0795 16.189 10.5142 16.4183 9.99992 16.4183C9.48566 16.4183 8.92038 16.189 8.42876 15.9386C7.90529 15.672 7.33325 15.3107 6.76783 14.919C5.28747 13.8934 3.74136 12.6313 2.55939 11.1441C1.37537 9.6544 0.520752 7.89214 0.520752 5.88808ZM6.09992 2.33496C3.8474 2.33496 2.14575 3.99149 2.14575 5.88808C2.14575 7.40854 2.79119 8.82413 3.83152 10.133C4.87389 11.4445 6.27641 12.6016 7.69322 13.5832C8.22932 13.9546 8.73426 14.2706 9.16629 14.4906C9.63007 14.7268 9.89884 14.7933 9.99992 14.7933C10.101 14.7933 10.3698 14.7268 10.8335 14.4906C11.2656 14.2706 11.7705 13.9546 12.3067 13.5832C13.7234 12.6016 15.1259 11.4445 16.1683 10.133C17.2086 8.82413 17.8541 7.40854 17.8541 5.88808C17.8541 3.99149 16.1524 2.33496 13.8999 2.33496C12.6062 2.33496 11.3983 3.10783 10.6441 4.08879C10.4902 4.28882 10.2522 4.40603 9.99992 4.40603C9.74761 4.40603 9.5096 4.28882 9.35577 4.08879C8.60155 3.10783 7.39358 2.33496 6.09992 2.33496Z">
		</path>
	</symbol>
	<symbol version="1.0" id="footer-tg" xmlns="http://www.w3.org/2000/svg" xmlns:xlink="http://www.w3.org/1999/xlink" x="0px" y="0px" enable-background="new 0 0 100 100" xml:space="preserve" viewBox="0 0 100 100">
		<path d="M84.16,14.148l-71.047,29.57c0,0-3.359,1.221-3.099,3.473c0.267,2.256,3.008,3.288,3.008,3.288l17.877,6.382
	c0,0,5.396,18.772,6.458,22.344c1.062,3.562,1.914,3.646,1.914,3.646c0.989,0.456,1.888-0.27,1.888-0.27l11.55-11.169L70.71,86.054
	c4.869,2.253,6.641-2.441,6.641-2.441L90,15.935C90,11.427,84.16,14.148,84.16,14.148z M71.582,78.17L52.324,62.51l-5.976,5.777
	l1.314-12.291l25.67-24.329L38.341,52.441l-15.521-5.54l59.217-24.648L71.582,78.17z">
		</path>
	</symbol>
	<symbol xmlns="http://www.w3.org/2000/svg" xml:space="preserve" viewBox="0 0 548.358 548.358" id="footer-vk">
		<path d="M545.451 400.298c-.664-1.431-1.283-2.618-1.858-3.569-9.514-17.135-27.695-38.167-54.532-63.102l-.567-.571-.284-.28-.287-.287h-.288c-12.18-11.611-19.893-19.418-23.123-23.415-5.91-7.614-7.234-15.321-4.004-23.13 2.282-5.9 10.854-18.36 25.696-37.397 7.807-10.089 13.99-18.175 18.556-24.267 32.931-43.78 47.208-71.756 42.828-83.939l-1.701-2.847c-1.143-1.714-4.093-3.282-8.846-4.712-4.764-1.427-10.853-1.663-18.278-.712l-82.224.568c-1.332-.472-3.234-.428-5.712.144l-3.713.859-1.431.715-1.136.859c-.952.568-1.999 1.567-3.142 2.995-1.137 1.423-2.088 3.093-2.848 4.996-8.952 23.031-19.13 44.444-30.553 64.238-7.043 11.803-13.511 22.032-19.418 30.693-5.899 8.658-10.848 15.037-14.842 19.126-4 4.093-7.61 7.372-10.852 9.849-3.237 2.478-5.708 3.525-7.419 3.142-1.715-.383-3.33-.763-4.859-1.143-2.663-1.714-4.805-4.045-6.42-6.995-1.622-2.95-2.714-6.663-3.285-11.136-.568-4.476-.904-8.326-1-11.563-.089-3.233-.048-7.806.145-13.706.198-5.903.287-9.897.287-11.991 0-7.234.141-15.085.424-23.555.288-8.47.521-15.181.716-20.125.194-4.949.284-10.185.284-15.705s-.336-9.849-1-12.991a44.442 44.442 0 0 0-2.99-9.137c-1.335-2.95-3.289-5.232-5.853-6.852-2.569-1.618-5.763-2.902-9.564-3.856-10.089-2.283-22.936-3.518-38.547-3.71-35.401-.38-58.148 1.906-68.236 6.855-3.997 2.091-7.614 4.948-10.848 8.562-3.427 4.189-3.905 6.475-1.431 6.851 11.422 1.711 19.508 5.804 24.267 12.275l1.715 3.429c1.334 2.474 2.666 6.854 3.999 13.134 1.331 6.28 2.19 13.227 2.568 20.837.95 13.897.95 25.793 0 35.689-.953 9.9-1.853 17.607-2.712 23.127-.859 5.52-2.143 9.993-3.855 13.418-1.715 3.426-2.856 5.52-3.428 6.28-.571.76-1.047 1.239-1.425 1.427a21.387 21.387 0 0 1-7.71 1.431c-2.667 0-5.901-1.334-9.707-4-3.805-2.666-7.754-6.328-11.847-10.992-4.093-4.665-8.709-11.184-13.85-19.558-5.137-8.374-10.467-18.271-15.987-29.691l-4.567-8.282c-2.855-5.328-6.755-13.086-11.704-23.267-4.952-10.185-9.329-20.037-13.134-29.554-1.521-3.997-3.806-7.04-6.851-9.134l-1.429-.859c-.95-.76-2.475-1.567-4.567-2.427a30.301 30.301 0 0 0-6.567-1.854l-78.229.568c-7.994 0-13.418 1.811-16.274 5.428l-1.143 1.711c-.571.953-.859 2.475-.859 4.57 0 2.094.571 4.664 1.714 7.707 11.42 26.84 23.839 52.725 37.257 77.659 13.418 24.934 25.078 45.019 34.973 60.237 9.897 15.229 19.985 29.602 30.264 43.112 10.279 13.515 17.083 22.176 20.412 25.981 3.333 3.812 5.951 6.662 7.854 8.565l7.139 6.851c4.568 4.569 11.276 10.041 20.127 16.416 8.853 6.379 18.654 12.659 29.408 18.85 10.756 6.181 23.269 11.225 37.546 15.126 14.275 3.905 28.169 5.472 41.684 4.716h32.834c6.659-.575 11.704-2.669 15.133-6.283l1.136-1.431c.764-1.136 1.479-2.901 2.139-5.276.668-2.379 1-5 1-7.851-.195-8.183.428-15.558 1.852-22.124 1.423-6.564 3.045-11.513 4.859-14.846 1.813-3.33 3.859-6.14 6.136-8.418 2.282-2.283 3.908-3.666 4.862-4.142.948-.479 1.705-.804 2.276-.999 4.568-1.522 9.944-.048 16.136 4.429 6.187 4.473 11.99 9.996 17.418 16.56 5.425 6.57 11.943 13.941 19.555 22.124 7.617 8.186 14.277 14.271 19.985 18.274l5.708 3.426c3.812 2.286 8.761 4.38 14.853 6.283 6.081 1.902 11.409 2.378 15.984 1.427l73.087-1.14c7.229 0 12.854-1.197 16.844-3.572 3.998-2.379 6.373-5 7.139-7.851.764-2.854.805-6.092.145-9.712-.677-3.611-1.344-6.136-2.008-7.563z">
		</path>
	</symbol>
	<symbol xmlns="http://www.w3.org/2000/svg" xmlns:xlink="http://www.w3.org/1999/xlink" viewBox="0,0,256,256" id="footer-wp">
		<g transform="scale(10.66667,10.66667)">
			<path d="M12.01172,2c-5.506,0 -9.98823,4.47838 -9.99023,9.98438c-0.001,1.76 0.45998,3.47819 1.33398,4.99219l-1.35547,5.02344l5.23242,-1.23633c1.459,0.796 3.10144,1.21384 4.77344,1.21484h0.00391c5.505,0 9.98528,-4.47937 9.98828,-9.98437c0.002,-2.669 -1.03588,-5.17841 -2.92187,-7.06641c-1.886,-1.887 -4.39245,-2.92673 -7.06445,-2.92773zM12.00977,4c2.136,0.001 4.14334,0.8338 5.65234,2.3418c1.509,1.51 2.33794,3.51639 2.33594,5.65039c-0.002,4.404 -3.58423,7.98633 -7.99023,7.98633c-1.333,-0.001 -2.65341,-0.3357 -3.81641,-0.9707l-0.67383,-0.36719l-0.74414,0.17578l-1.96875,0.46484l0.48047,-1.78516l0.2168,-0.80078l-0.41406,-0.71875c-0.698,-1.208 -1.06741,-2.58919 -1.06641,-3.99219c0.002,-4.402 3.58528,-7.98437 7.98828,-7.98437zM8.47656,7.375c-0.167,0 -0.43702,0.0625 -0.66602,0.3125c-0.229,0.249 -0.875,0.85208 -0.875,2.08008c0,1.228 0.89453,2.41503 1.01953,2.58203c0.124,0.166 1.72667,2.76563 4.26367,3.76563c2.108,0.831 2.53614,0.667 2.99414,0.625c0.458,-0.041 1.47755,-0.60255 1.68555,-1.18555c0.208,-0.583 0.20848,-1.0845 0.14648,-1.1875c-0.062,-0.104 -0.22852,-0.16602 -0.47852,-0.29102c-0.249,-0.125 -1.47608,-0.72755 -1.70508,-0.81055c-0.229,-0.083 -0.3965,-0.125 -0.5625,0.125c-0.166,0.25 -0.64306,0.81056 -0.78906,0.97656c-0.146,0.167 -0.29102,0.18945 -0.54102,0.06445c-0.25,-0.126 -1.05381,-0.39024 -2.00781,-1.24024c-0.742,-0.661 -1.24267,-1.47656 -1.38867,-1.72656c-0.145,-0.249 -0.01367,-0.38577 0.11133,-0.50977c0.112,-0.112 0.24805,-0.2915 0.37305,-0.4375c0.124,-0.146 0.167,-0.25002 0.25,-0.41602c0.083,-0.166 0.04051,-0.3125 -0.02149,-0.4375c-0.062,-0.125 -0.54753,-1.35756 -0.76953,-1.85156c-0.187,-0.415 -0.3845,-0.42464 -0.5625,-0.43164c-0.145,-0.006 -0.31056,-0.00586 -0.47656,-0.00586z">
			</path>
		</g>
	</symbol>
	<symbol xmlns="http://www.w3.org/2000/svg" viewBox="0 0 24 17" id="catalog-menu">
		<path fill-rule="evenodd" clip-rule="evenodd" d="M1.5.25a.75.75 0 000 1.5h13a.75.75 0 000-1.5h-13zm9.75 8.77a4.27 4.27 0 117.299 3.01l-.01.01-.008.009a4.27 4.27 0 01-7.28-3.029zm10.04 0a5.745 5.745 0 01-1.194 3.515l2.934 2.935a.75.75 0 01-1.06 1.06l-2.934-2.934A5.77 5.77 0 1121.29 9.02zM.75 7a.75.75 0 01.75-.75h4a.75.75 0 010 1.5h-4A.75.75 0 01.75 7zm.75 5.25a.75.75 0 000 1.5h6a.75.75 0 000-1.5h-6z">
		</path>
	</symbol>
	<symbol xmlns="http://www.w3.org/2000/svg" viewBox="0 0 512 512" id="footer-fb">
		<path fill-rule="evenodd" clip-rule="evenodd" d="M312 32c-53.019 0-96 42.98-96 96v72h-80v64h80v216h64V264h80l16-64h-96v-72c0-17.673 14.327-32 32-32h64V32h-64Z">
		</path>
	</symbol>
	<symbol xmlns="http://www.w3.org/2000/svg" viewBox="0 0 21 14" id="mail">
		<path d="M10.5113 9.00651L7.45638 6.66196L0.807981 14H20.2205L13.5714 6.58902L10.5113 9.00651V9.00651ZM20.9475 0H0.080273L10.5143 8.20419L20.9475 0V0ZM14.0298 6.21942L21 13.993V0.701333L14.0298 6.21942V6.21942ZM0 0.701333V13.993L6.97024 6.21942L0 0.701333V0.701333Z">
		</path>
	</symbol>
</svg>
