<svg width="0" height="0" class="hidden">
	<symbol version="1.1" id="oils" xmlns="http://www.w3.org/2000/svg" xmlns:xlink="http://www.w3.org/1999/xlink" x="0px" y="0px" xml:space="preserve" viewBox="0 0 512 512">
		<g>
			<g>
				<g>
					<rect x="87.405" y="474.063" width="21.868" height="14.995">
					</rect>
					<path d="M48.324,489.057h29.71v-14.995h-29.71c-4.89,0-8.869-4.413-8.869-9.839v-10.265H24.461v10.265 C24.461,477.917,35.166,489.057,48.324,489.057z">
					</path>
					<rect x="295.285" y="146.749" width="16.936" height="14.995">
					</rect>
					<rect x="262.546" y="146.749" width="16.936" height="14.995">
					</rect>
					<path d="M504.663,185.462L366.909,61.025c-4.34-4.089-10.01-6.341-15.975-6.341h-8.986V0H211.889v54.894 c-11.394,1.513-20.217,11.286-20.217,23.088v125.73h-9.417v-50.893H72.205v50.893H28.143c-15.466,0-28.05,12.582-28.05,28.049 v44.084v165.271v42.835c0,15.466,12.583,28.05,28.05,28.05h198.174h262.291c12.847,0,23.298-10.451,23.298-23.297V202.346 C511.907,195.993,509.267,189.84,504.663,185.462z M226.883,14.995h100.069v12.347H226.883V14.995z M226.883,42.336h100.069 v12.347H226.883V42.336z M160.046,167.813h7.215v35.899h-7.215V167.813z M134.727,167.813h10.324v35.899h-10.324V167.813z M109.409,167.813h10.323v35.899h-10.323V167.813z M87.2,167.813h7.215v35.899H87.2V167.813z M239.371,463.694v14.995v5.261 c0,7.198-5.856,13.055-13.054,13.055H28.143v0.001c-7.198,0-13.055-5.856-13.055-13.055v-42.835h224.283V463.694z M239.372,426.121H15.089V290.839h224.283V426.121z M239.372,275.845H15.089v-44.084c0-7.198,5.856-13.054,13.055-13.054h44.062 h110.051h9.417h34.644c0.481,0,1.024,0.042,1.71,0.132c6.468,0.845,11.344,6.4,11.344,12.922V275.845z M250.439,217.496 c-0.31-0.521-0.636-1.031-0.978-1.529c-0.064-0.093-0.129-0.184-0.193-0.276c-0.358-0.509-0.727-1.009-1.117-1.492 c-0.015-0.019-0.031-0.036-0.046-0.055c-0.385-0.475-0.788-0.935-1.203-1.383c-0.065-0.071-0.129-0.143-0.195-0.213 c-0.417-0.442-0.849-0.87-1.294-1.285c-0.08-0.075-0.162-0.148-0.243-0.223c-0.46-0.42-0.931-0.828-1.419-1.217 c-0.024-0.019-0.048-0.036-0.072-0.055c-0.479-0.379-0.974-0.74-1.477-1.089c-0.075-0.052-0.149-0.106-0.225-0.157 c-0.507-0.343-1.028-0.668-1.557-0.979c-0.097-0.057-0.195-0.112-0.292-0.167c-0.545-0.31-1.098-0.606-1.664-0.879 c-0.037-0.018-0.075-0.034-0.112-0.051c-0.551-0.263-1.114-0.505-1.684-0.733c-0.057-0.023-0.112-0.051-0.169-0.073v-90.341 c0-2.875,2.339-5.214,5.215-5.214h104.998c1.345,0,2.62,0.51,3.593,1.434l115.183,106.523c0.76,0.734,1.277,1.685,1.487,2.71 c0.07,0.341,0.107,0.691,0.107,1.043v236.684c0,2.875-2.339,5.215-5.215,5.215H254.366v-22.579V275.845v-44.084 c0-0.661-0.031-1.316-0.077-1.967c-0.008-0.119-0.015-0.237-0.025-0.355c-0.052-0.624-0.125-1.242-0.217-1.854 c-0.018-0.119-0.039-0.236-0.058-0.354c-0.104-0.632-0.222-1.259-0.368-1.876c-0.002-0.01-0.005-0.02-0.008-0.03 c-0.146-0.614-0.317-1.218-0.503-1.816c-0.033-0.107-0.064-0.214-0.099-0.32c-0.188-0.581-0.395-1.154-0.619-1.718 c-0.043-0.108-0.088-0.214-0.132-0.321c-0.239-0.579-0.49-1.151-0.766-1.71c-0.009-0.018-0.019-0.035-0.027-0.053 c-0.273-0.552-0.568-1.09-0.875-1.62C250.542,217.675,250.492,217.585,250.439,217.496z M488.608,497.005h-237.47 c0.054-0.102,0.1-0.209,0.153-0.312c0.158-0.309,0.313-0.621,0.459-0.936c0.079-0.169,0.156-0.339,0.231-0.51 c0.137-0.309,0.267-0.622,0.393-0.937c0.067-0.168,0.136-0.335,0.199-0.505c0.139-0.368,0.267-0.741,0.391-1.116 c0.038-0.116,0.081-0.229,0.117-0.346c0.154-0.489,0.294-0.984,0.421-1.483c0.035-0.136,0.063-0.275,0.095-0.412 c0.088-0.371,0.172-0.744,0.245-1.12c0.036-0.184,0.067-0.37,0.1-0.556c0.059-0.34,0.113-0.681,0.159-1.025 c0.026-0.193,0.052-0.386,0.074-0.58c0.042-0.362,0.074-0.727,0.102-1.094c0.013-0.17,0.029-0.338,0.039-0.509 c0.031-0.536,0.05-1.075,0.05-1.617v-5.261h207.501c11.143,0,20.21-9.066,20.21-20.21V221.796c0-5.51-2.29-10.848-6.283-14.645 L360.595,100.617c-2.825-2.672-6.305-4.444-10.056-5.163c-1.251-0.24-2.532-0.362-3.83-0.362H241.712 c-11.143,0-20.21,9.066-20.21,20.209v88.411h-14.836V77.981c0-4.578,3.725-8.303,8.303-8.303h126.977h8.986 c2.139,0,4.171,0.813,5.722,2.286l137.735,124.42c1.603,1.556,2.521,3.724,2.521,5.96v286.357h0.001 C496.912,493.28,493.186,497.005,488.608,497.005z">
					</path>
					<path d="M351.789,371.384c24.755,0,44.894-20.14,44.894-44.895c0-27.315-34.257-97.938-38.163-105.901l-6.703-13.666 l-6.748,13.645c-3.908,7.901-38.174,78.002-38.174,105.922C306.895,351.244,327.034,371.384,351.789,371.384z M351.767,241.347 c12.019,26.085,29.921,68.52,29.921,85.142c0,16.487-13.413,29.9-29.899,29.9c-16.487,0-29.9-13.413-29.9-29.9 C321.889,309.491,339.751,267.279,351.767,241.347z">
					</path>
					<rect x="268.852" y="402.067" width="165.875" height="14.995">
					</rect>
					<rect x="68.658" y="229.653" width="117.145" height="14.995">
					</rect>
					<rect x="268.852" y="430.441" width="165.875" height="14.994">
					</rect>
					<path d="M127.23,414.075c16.711,0,30.305-13.595,30.305-30.306c0-17.319-21.161-60.958-23.574-65.877l-6.704-13.666 l-6.748,13.645c-2.414,4.881-23.585,48.205-23.585,65.898C96.925,400.48,110.52,414.075,127.23,414.075z M127.21,338.88 c7.5,16.819,15.331,36.938,15.331,44.89c0,8.443-6.868,15.311-15.31,15.311s-15.31-6.868-15.31-15.311 C111.919,375.639,119.725,355.596,127.21,338.88z">
					</path>
				</g>
			</g>
		</g>
	</symbol>
	<symbol xmlns="http://www.w3.org/2000/svg" viewBox="0 0 24 24" id="row">
		<path d="M5.8 11.75C5.3 11.75 4.875 11.575 4.525 11.225C4.175 10.875 4 10.45 4 9.95V7.8C4 7.3 4.175 6.875 4.525 6.525C4.875 6.175 5.3 6 5.8 6H19.2C19.7 6 20.125 6.175 20.475 6.525C20.825 6.875 21 7.3 21 7.8V9.95C21 10.45 20.825 10.875 20.475 11.225C20.125 11.575 19.7 11.75 19.2 11.75H5.8ZM5.8 19C5.3 19 4.875 18.825 4.525 18.475C4.175 18.125 4 17.7 4 17.2V15.05C4 14.55 4.175 14.125 4.525 13.775C4.875 13.425 5.3 13.25 5.8 13.25H19.2C19.7 13.25 20.125 13.425 20.475 13.775C20.825 14.125 21 14.55 21 15.05V17.2C21 17.7 20.825 18.125 20.475 18.475C20.125 18.825 19.7 19 19.2 19H5.8Z">
		</path>
	</symbol>
	<symbol xmlns="http://www.w3.org/2000/svg" viewBox="0 0 24 24" id="grid">
		<path d="M5.5 11.5C5.08333 11.5 4.72933 11.354 4.438 11.062C4.146 10.7707 4 10.4167 4 10V5.5C4 5.08333 4.146 4.72933 4.438 4.438C4.72933 4.146 5.08333 4 5.5 4H10C10.4167 4 10.7707 4.146 11.062 4.438C11.354 4.72933 11.5 5.08333 11.5 5.5V10C11.5 10.4167 11.354 10.7707 11.062 11.062C10.7707 11.354 10.4167 11.5 10 11.5H5.5ZM5.5 21C5.08333 21 4.72933 20.854 4.438 20.562C4.146 20.2707 4 19.9167 4 19.5V15C4 14.5833 4.146 14.2293 4.438 13.938C4.72933 13.646 5.08333 13.5 5.5 13.5H10C10.4167 13.5 10.7707 13.646 11.062 13.938C11.354 14.2293 11.5 14.5833 11.5 15V19.5C11.5 19.9167 11.354 20.2707 11.062 20.562C10.7707 20.854 10.4167 21 10 21H5.5ZM15 11.5C14.5833 11.5 14.2293 11.354 13.938 11.062C13.646 10.7707 13.5 10.4167 13.5 10V5.5C13.5 5.08333 13.646 4.72933 13.938 4.438C14.2293 4.146 14.5833 4 15 4H19.5C19.9167 4 20.2707 4.146 20.562 4.438C20.854 4.72933 21 5.08333 21 5.5V10C21 10.4167 20.854 10.7707 20.562 11.062C20.2707 11.354 19.9167 11.5 19.5 11.5H15ZM15 21C14.5833 21 14.2293 20.854 13.938 20.562C13.646 20.2707 13.5 19.9167 13.5 19.5V15C13.5 14.5833 13.646 14.2293 13.938 13.938C14.2293 13.646 14.5833 13.5 15 13.5H19.5C19.9167 13.5 20.2707 13.646 20.562 13.938C20.854 14.2293 21 14.5833 21 15V19.5C21 19.9167 20.854 20.2707 20.562 20.562C20.2707 20.854 19.9167 21 19.5 21H15Z">
		</path>
	</symbol>
	<symbol xmlns="http://www.w3.org/2000/svg" viewBox="0 0 10 7" id="arrow-drop">
		<path fill-rule="evenodd" clip-rule="evenodd" d="M9.53033 0.96967C9.82322 1.26256 9.82322 1.73744 9.53033 2.03033L5.53033 6.03033C5.23744 6.32322 4.76256 6.32322 4.46967 6.03033L0.46967 2.03033C0.176777 1.73744 0.176777 1.26256 0.46967 0.96967C0.762563 0.676777 1.23744 0.676777 1.53033 0.96967L5 4.43934L8.46967 0.96967C8.76256 0.676777 9.23744 0.676777 9.53033 0.96967Z">
		</path>
	</symbol>
	<symbol id="bookmark" enable-background="new 0 0 100 100" xmlns="http://www.w3.org/2000/svg" viewBox="0 0 100 100">
		<g>
			<path d="m85.1 100c-.5 0-1.6 0-2.1-.5h-.5l-32.5-13.6-32.4 13.6c-2.1 1-4.7.5-6.3-.5s-2.6-3.1-2.6-5.2v-73.3c0-11.5 8.9-20.4 20.4-20.4h41.9c11.5 0 20.4 8.9 20.4 20.4v73.3c0 2.1-1 4.2-2.6 5.2-1.1.5-2.7 1-3.7 1zm-56-90c-5.2 0-9.9 4.7-9.9 9.9v67.5l30.8-13 30.9 13.1v-67.6c0-5.2-4.7-9.9-9.9-9.9z">
			</path>
		</g>
	</symbol>
	<symbol id="lc" xmlns="http://www.w3.org/2000/svg" xmlnsSvg="http://www.w3.org/2000/svg" viewBox="0 0 6.3499999 6.3500002">
		<g id="layer1" transform="translate(0 -290.65)">
			<path id="circle2843" d="m3.1321086 290.90437c-.9238127 0-1.6800008.75619-1.6800008 1.68 0 .5649.2838452 1.06511.714685 1.36943-1.0028623.402-1.71462423 1.38278-1.71462404 2.52697a.26464842.26464842 0 0 0 .52916664 0c-.0000002-1.21445.9792098-2.19315 2.1936648-2.19315 1.2144547 0 2.1931479.9787 2.1931477 2.19315a.2648417.2648417 0 0 0 .5296834 0c.0000002-1.16586-.7395261-2.1611-1.7725015-2.54816.4140187-.30607.6841958-.79604.6841958-1.34824 0-.92381-.7536042-1.68-1.677417-1.68zm0 .52968c.63783 0 1.1482504.51249 1.1482504 1.15032s-.5104204 1.14825-1.1482504 1.14825c-.6378298 0-1.1503174-.51042-1.1503174-1.14825.0000001-.63783.5124876-1.15032 1.1503174-1.15032z" fontVariantLigatures="normal" fontVariantPosition="normal" fontVariantCaps="normal" fontVariantNumeric="normal" fontVariantAlternates="normal" fontFeatureSettings="normal" textIndent="0" textAlign="start" textDecorationLine="none" textDecorationStyle="solid" textDecorationColor="rgb(0,0,0)" textTransform="none" textOrientation="mixed" whiteSpace="normal" shapePadding="0" isolation="auto" mixBlendMode="normal" solidColor="rgb(0,0,0)" solidOpacity="1" vector-effect="none" paint-order="stroke fill markers">
			</path>
		</g>
	</symbol>
	<symbol id="callback" enable-background="new 0 0 511.557 511.557" xmlns="http://www.w3.org/2000/svg" viewBox="0 0 511.557 511.557">
		<g>
			<path d="m390.623 290.84c-19.391-19.391-50.94-19.392-70.331 0l-28.412 28.411c-50.085-38.955-94.073-84.739-131.004-136.357l25.735-25.735c19.391-19.39 19.391-50.941 0-70.331l-43.528-43.528c-19.39-19.391-50.94-19.391-70.332 0l-49.388 49.388c-25.202 25.202-30.647 64.474-13.242 95.502 64.465 114.923 157.249 213.244 268.32 284.333 12.754 8.163 27.667 12.473 42.77 12.473 2.971 0 5.949-.167 8.92-.504 17.994-2.042 34.945-10.243 47.73-23.093l56.441-56.728c19.291-19.39 19.251-50.9-.09-70.242zm22.412 92.673-56.441 56.728c-16.441 16.526-42.51 19.477-61.981 7.016-106.936-68.444-196.264-163.102-258.327-273.744-10.859-19.359-7.451-43.872 8.29-59.613l49.388-49.388c3.847-3.847 8.9-5.77 13.953-5.77s10.106 1.923 13.953 5.77l43.527 43.527c7.693 7.693 7.693 20.211 0 27.905l-34.642 34.642c-5.113 5.113-5.851 13.145-1.755 19.104 42.671 62.073 94.901 116.395 155.239 161.456 5.972 4.459 14.312 3.859 19.582-1.412l37.683-37.682c7.692-7.693 20.211-7.694 27.905 0l43.59 43.59c7.674 7.675 7.69 20.177.036 27.871z">
			</path>
			<path d="m458.553 51.334h-154.938c4.037-4.697 4.898-11.603 1.625-17.271-4.143-7.175-13.316-9.632-20.49-5.49l-42.904 24.77c-4.585 2.647-7.507 7.692-7.5 12.99.008 5.302 2.905 10.337 7.5 12.99l42.904 24.77c2.362 1.364 4.941 2.012 7.486 2.012 5.184 0 10.226-2.69 13.004-7.502 3.272-5.668 2.411-12.573-1.625-17.27h154.938c12.685 0 23.004 10.319 23.004 23.004s-10.319 23.004-23.004 23.004h-123.064c-8.284 0-15 6.716-15 15s6.716 15 15 15h123.064c29.227 0 53.004-23.777 53.004-53.004 0-29.226-23.777-53.003-53.004-53.003z">
			</path>
		</g>
	</symbol>
	<symbol xmlns="http://www.w3.org/2000/svg" viewBox="0 0 32 32" id="scales">
		<g id="_11-20">
			<g id="Desicion">
				<path d="M29.887,15.559,25.9,7.553a.993.993,0,0,0-1-.547l-6.2.69A3,3,0,0,0,17,6.184V5a1,1,0,0,0-2,0V6.184a3,3,0,0,0-1.914,2.133l-6.2.689a1,1,0,0,0-.785.547l-3.99,8A.978.978,0,0,0,2,18a4,4,0,0,0,4,4H8a4,4,0,0,0,4-4,.978.978,0,0,0-.1-.427c0-.008-3.36-6.738-3.36-6.738l4.775-.531A3,3,0,0,0,15,11.816V23H11a4,4,0,0,0-4,4,1,1,0,0,0,1,1H24a1,1,0,0,0,1-1,4,4,0,0,0-4-4H17V11.816a3,3,0,0,0,1.914-2.133L23.283,9.2s-3.178,6.371-3.182,6.381A.982.982,0,0,0,20,16a4,4,0,0,0,4,4h2a4,4,0,0,0,4-4A.978.978,0,0,0,29.887,15.559ZM21,25a2,2,0,0,1,1.731,1H9.269A2,2,0,0,1,11,25Zm6.382-10H22.618L25,10.237ZM7,12.236,9.382,17H4.618ZM8,20H6a2,2,0,0,1-1.731-1H9.731A2,2,0,0,1,8,20Zm8-10a1,1,0,1,1,1-1A1,1,0,0,1,16,10Zm10,8H24a2,2,0,0,1-1.731-1h5.462A2,2,0,0,1,26,18Z">
				</path>
			</g>
		</g>
	</symbol>
	<symbol xmlns="http://www.w3.org/2000/svg" viewBox="0 0 101 101" id="catalog-tires">
		<path d="M63.72 7.004H35.661c-15.514 0-28.135 19.289-28.135 42.998C7.526 73.71 20.147 93 35.661 93H63.72c15.514 0 28.136-19.29 28.136-42.998 0-23.71-12.623-42.998-28.136-42.998Zm-28.059 3h17.754c-4.232 2.555-7.962 6.632-10.904 11.79l-16.68 7.888-8.433-7.12c4.586-7.724 11.075-12.558 18.263-12.558Zm.107 35.152L22.797 53.02l-12.121-7.348c.521-7.66 2.408-14.671 5.261-20.417l8.697 7.342a1.501 1.501 0 0 0 1.609.21l14.083-6.66c-2.436 5.562-4.043 12.036-4.558 19.009Zm-25.228 3.94 11.479 6.959a1.494 1.494 0 0 0 1.555.001l12.031-7.294c-.008.413-.021.823-.021 1.239 0 7.585 1.297 14.713 3.562 20.906l-9.114 7.087-15.961-7.93c-.053-.025-.109-.041-.163-.061-2.147-5.89-3.383-12.72-3.383-20.003.001-.301.011-.601.015-.903ZM35.661 90c-8.145 0-15.395-6.202-19.991-15.79l13.872 6.892a1.51 1.51 0 0 0 1.588-.16l9.174-7.133c3.167 7.25 7.736 12.946 13.11 16.19H35.661Zm28.059 0c-8.964 0-16.841-7.511-21.292-18.78a1.472 1.472 0 0 0-.267-.681c-2.268-6.007-3.576-13.033-3.576-20.537 0-22.055 11.275-39.998 25.135-39.998 13.86 0 25.136 17.943 25.136 39.998C88.855 72.057 77.58 90 63.72 90Z" stroke-width="2.2">
		</path>
		<path d="M63.72 23.984c-7.985 0-14.24 11.43-14.24 26.018 0 14.59 6.254 26.02 14.24 26.02 7.986 0 14.24-11.43 14.24-26.02 0-14.589-6.255-26.018-14.24-26.018Zm0 49.036c-6.093 0-11.24-10.54-11.24-23.019 0-12.477 5.147-23.018 11.24-23.018s11.24 10.541 11.24 23.018c0 12.478-5.148 23.02-11.24 23.02Z" stroke-width="2.2">
		</path>
	</symbol>
	<symbol xmlns="http://www.w3.org/2000/svg" xml:space="preserve" viewBox="0 0 512.002 512.002" id="catalog-wheel">
		<path d="M448.262 102.116c-41.103-41.103-95.753-63.74-153.882-63.74-58.129 0-112.779 22.637-153.882 63.74-41.103 41.103-63.74 95.753-63.74 153.882 0 22.468 3.412 44.549 10.136 65.764L5 369.043a9.997 9.997 0 0 0-3.66 13.66l36.79 63.721c.057.098.127.182.186.277l.152.264c2.296 3.978 4.67 8.093 7.204 11.325 7.871 10.038 17.503 15.336 27.392 15.336 3.137 0 6.3-.534 9.439-1.618 18.24-6.299 31.769-30.598 33.292-58.877l17.949-10.363c41.231 45.122 99.296 70.851 160.636 70.851 58.129 0 112.779-22.637 153.882-63.74 41.103-41.103 63.74-95.753 63.74-153.882s-22.637-112.778-63.74-153.881zM75.976 453.104c-4.678 1.616-9.577-.793-14.565-7.155-.237-.302-.483-.64-.733-.994l33.174-19.153c-3.511 14.57-10.893 24.89-17.876 27.302zM50.45 427.765l-26.79-46.401 94.82-54.744 26.805 46.393-94.835 54.752zm243.93-266.189c52.064 0 94.423 42.357 94.423 94.422 0 52.064-42.358 94.422-94.423 94.422a94.653 94.653 0 0 1-47.631-12.895l92.73-53.538c4.783-2.761 6.422-8.877 3.66-13.66l-36.789-63.722a9.997 9.997 0 0 0-13.66-3.66l-92.731 53.538-.001-.486c0-52.063 42.357-94.421 94.422-94.421zm-83.411-3.131c20.081-17.195 45.508-28.315 73.411-30.474v14.047c-24.05 2.093-45.991 11.654-63.487 26.35l-9.924-9.923zm93.411-16.427v-14.047c27.903 2.159 53.33 13.279 73.411 30.473l-9.924 9.924c-17.496-14.696-39.438-24.257-63.487-26.35zm103.981 103.98c-2.094-24.05-11.654-45.991-26.352-63.487l9.924-9.924c17.195 20.08 28.315 45.508 30.475 73.411h-14.047zm14.048 20c-2.161 27.903-13.281 53.331-30.475 73.412l-9.924-9.924c14.697-17.496 24.258-39.438 26.352-63.488h14.047zm-44.618 87.553c-20.08 17.195-45.508 28.315-73.411 30.474v-14.047c24.05-2.093 45.991-11.654 63.487-26.351l9.924 9.924zm-93.411 16.425v14.048c-25.776-1.977-50.064-11.575-70.176-27.709l13.165-7.601a114.692 114.692 0 0 0 57.011 21.262zM180.4 245.997h-14.047c2.159-27.902 13.28-53.329 30.473-73.41l9.924 9.923c-14.696 17.496-24.258 39.437-26.35 63.487zm.178 21.677-13.172 7.604a129.595 129.595 0 0 1-1.05-9.28h14.051c.049.56.113 1.117.171 1.676zm113.453-42.408 26.789 46.401-158.214 91.344-26.804-46.392 158.229-91.353zm.349 228.354c-54.222 0-105.641-22.131-142.874-61.106l12.436-7.181.009-.004a.036.036 0 0 0 .01-.007l31.844-18.385c27.197 24.221 61.908 37.475 98.575 37.475 40.475 0 77.211-16.293 104.013-42.656.322-.251.637-.517.933-.814.297-.297.564-.611.815-.934 26.361-26.802 42.654-63.537 42.654-104.011s-16.292-77.209-42.654-104.01a10.214 10.214 0 0 0-.815-.935 10.075 10.075 0 0 0-.935-.816c-26.802-26.361-63.536-42.653-104.01-42.653-40.473 0-77.207 16.291-104.008 42.652-.324.252-.64.519-.938.817a9.973 9.973 0 0 0-.817.938c-26.36 26.801-42.651 63.535-42.651 104.007 0 10.075 1.031 20.1 3.038 29.905l-44.339 25.599c-5.251-17.963-7.907-36.58-7.907-55.504 0-108.969 88.653-197.622 197.622-197.622s197.622 88.653 197.622 197.622S403.349 453.62 294.38 453.62z">
		</path>
		<path d="M185.859 116.153c-3.578-4.209-9.889-4.72-14.097-1.144l-.171.148c-4.184 3.581-4.686 9.874-1.116 14.074a9.977 9.977 0 0 0 7.624 3.524 9.962 9.962 0 0 0 6.617-2.506c4.208-3.577 4.72-9.888 1.143-14.096zM446.719 346.311c-4.595-3.063-10.821-1.795-13.885 2.8-3.122 4.556-1.959 10.78 2.597 13.902a9.951 9.951 0 0 0 5.644 1.751 9.989 9.989 0 0 0 8.258-4.349l.178-.263c3.062-4.595 1.803-10.777-2.792-13.841zM165.273 134.723c-4.231-3.547-10.54-2.995-14.088 1.239a187.16 187.16 0 0 0-18.623 26.61c-2.762 4.783-1.123 10.899 3.66 13.66a9.997 9.997 0 0 0 13.66-3.66 167.3 167.3 0 0 1 16.629-23.761c3.55-4.232 2.995-10.54-1.238-14.088zM467.794 292.111c-5.337-1.429-10.818 1.737-12.248 7.071a167.32 167.32 0 0 1-9.913 27.256c-2.331 5.007-.163 10.956 4.844 13.287a9.964 9.964 0 0 0 4.215.937c3.768 0 7.377-2.14 9.072-5.781a187.506 187.506 0 0 0 11.101-30.523c1.429-5.334-1.737-10.817-7.071-12.247z">
		</path>
	</symbol>
	<symbol xmlns="http://www.w3.org/2000/svg" viewBox="0 0 64 64" id="catalog-battery">
		<g id="Battery_Accumulator">
			<path d="M63,14H57V10a1,1,0,0,0-1-1H55V5a1,1,0,0,0-1-1H48a1,1,0,0,0-1,1V9H46a1,1,0,0,0-1,1v4H41.6182l-1.7237-3.4473A1,1,0,0,0,39,10H25a1,1,0,0,0-.8945.5527L22.3818,14H19V10a1,1,0,0,0-1-1H17V5a1,1,0,0,0-1-1H10A1,1,0,0,0,9,5V9H8a1,1,0,0,0-1,1v4H1a1,1,0,0,0-1,1v8a1,1,0,0,0,1,1H4V59a1,1,0,0,0,1,1H59a1,1,0,0,0,1-1V24h3a1,1,0,0,0,1-1V15A1,1,0,0,0,63,14ZM49,6h4V9H49Zm-2,5h8v3H47ZM25.6182,12H38.3818l1,2H24.6182ZM11,6h4V9H11ZM9,11h8v3H9ZM58,58H6V24H58Zm4-36H2V16H62Z">
			</path>
			<path d="M22,44h7v8a1,1,0,0,0,1.7349.6787l12-13A1,1,0,0,0,42,38H35V30a1,1,0,0,0-1.7349-.6787l-12,13A1,1,0,0,0,22,44ZM33,32.5576V39a1,1,0,0,0,1,1h5.7158L31,49.4424V43a1,1,0,0,0-1-1H24.2842Z">
			</path>
			<path d="M49,30h1v1a1,1,0,0,0,2,0V30h1a1,1,0,0,0,0-2H52V27a1,1,0,0,0-2,0v1H49a1,1,0,0,0,0,2Z">
			</path>
			<path d="M11,30h4a1,1,0,0,0,0-2H11a1,1,0,0,0,0,2Z">
			</path>
		</g>
	</symbol>
	<symbol xmlns="http://www.w3.org/2000/svg" viewBox="0 0 24 17" id="catalog-menu">
		<path fill-rule="evenodd" clip-rule="evenodd" d="M1.5.25a.75.75 0 000 1.5h13a.75.75 0 000-1.5h-13zm9.75 8.77a4.27 4.27 0 117.299 3.01l-.01.01-.008.009a4.27 4.27 0 01-7.28-3.029zm10.04 0a5.745 5.745 0 01-1.194 3.515l2.934 2.935a.75.75 0 01-1.06 1.06l-2.934-2.934A5.77 5.77 0 1121.29 9.02zM.75 7a.75.75 0 01.75-.75h4a.75.75 0 010 1.5h-4A.75.75 0 01.75 7zm.75 5.25a.75.75 0 000 1.5h6a.75.75 0 000-1.5h-6z">
		</path>
	</symbol>
	<symbol xmlns="http://www.w3.org/2000/svg" viewBox="0 0 64 64" id="remove">
		<g id="Layer_20">
			<path d="M49.93,17.33H41.87V12a1.5,1.5,0,0,0-1.5-1.5H23.63a1.5,1.5,0,0,0-1.5,1.5v5.33H14.07a1.5,1.5,0,0,0,0,3H16V48a5.49,5.49,0,0,0,5.49,5.48h21.1A5.49,5.49,0,0,0,48,48V20.33h1.89A1.5,1.5,0,0,0,49.93,17.33ZM25.13,13.5H38.87v3.83H25.13Zm4.37,30a1.5,1.5,0,0,1-3,0V27.37a1.5,1.5,0,0,1,3,0Zm8,0a1.5,1.5,0,0,1-3,0V27.37a1.5,1.5,0,0,1,3,0Z">
			</path>
		</g>
	</symbol>
	<symbol xmlns="http://www.w3.org/2000/svg" viewBox="0 0 13 12" id="plus">
		<path d="M7.28906 0.75C7.28906 0.335786 6.95328 0 6.53906 0C6.12485 0 5.78906 0.335786 5.78906 0.75V5.24993L1.28906 5.24993C0.874849 5.24993 0.539062 5.58572 0.539062 5.99993C0.539062 6.41414 0.874848 6.74993 1.28906 6.74993L5.78906 6.74993V11.25C5.78906 11.6642 6.12485 12 6.53906 12C6.95328 12 7.28906 11.6642 7.28906 11.25V6.74993L11.7891 6.74993C12.2033 6.74993 12.5391 6.41415 12.5391 5.99993C12.5391 5.58572 12.2033 5.24993 11.7891 5.24993L7.28906 5.24993V0.75Z">
		</path>
	</symbol>
	<symbol xmlns="http://www.w3.org/2000/svg" viewBox="0 0 16 16" id="back-arrow">
		<path d="M14.776 8.827a6 6 0 0 1-5.775 5.996l-.225.004h-3a1 1 0 0 1-.116-1.993l.116-.007h3a4 4 0 0 0 0-8H5.513l1.02 1.175a1 1 0 0 1-.017 1.329l-.084.081a1 1 0 0 1-1.33-.016l-.08-.084L2 3.828 5.021.345a1 1 0 0 1 1.583 1.218l-.072.092-1.016 1.172h3.26a6 6 0 0 1 6 6Z" fill-rule="nonzero" />
	</symbol>
	<symbol xmlns="http://www.w3.org/2000/svg" viewBox="0 0 13 2" id="minus">
		<path fill-rule="evenodd" clip-rule="evenodd" d="M0.539063 1C0.539063 0.585786 0.874849 0.25 1.28906 0.25L11.7891 0.25C12.2033 0.25 12.5391 0.585786 12.5391 1C12.5391 1.41421 12.2033 1.75 11.7891 1.75L1.28906 1.75C0.874849 1.75 0.539063 1.41421 0.539063 1Z">
		</path>
	</symbol>
	<symbol xmlns="http://www.w3.org/2000/svg" viewBox="0 0 48 48" id="messages">
		<path d="M35.99 43.069c-.5 0-.982-.192-1.347-.534L29.758 38H18.34a1 1 0 0 1 0-2h11.81a1 1 0 0 1 .681.268l5.17 4.8V37a1 1 0 0 1 1-1h4a3 3 0 0 0 3-3V16a3 3 0 0 0-1.5-2.593 1 1 0 1 1 1-1.734A5.001 5.001 0 0 1 46 16v17a5.006 5.006 0 0 1-5 5h-3v3.06a2.015 2.015 0 0 1-2.01 2.009Z">
		</path>
		<path d="M12.01 38.068a2.02 2.02 0 0 1-.81-.171 1.976 1.976 0 0 1-1.2-1.834V33H7a5.006 5.006 0 0 1-5-5V11a5.006 5.006 0 0 1 5-5h28a5.006 5.006 0 0 1 5 5v17a5.006 5.006 0 0 1-5 5H18.238l-4.877 4.529a1.976 1.976 0 0 1-1.351.539ZM7 8a3 3 0 0 0-3 3v17a3 3 0 0 0 3 3h4a1 1 0 0 1 1 1v4.063l5.165-4.8a1 1 0 0 1 .681-.263H35a3 3 0 0 0 3-3V11a3 3 0 0 0-3-3H7Z">
		</path>
		<path d="M30 23a3.5 3.5 0 1 1 0-7 3.5 3.5 0 0 1 0 7Zm0-5a1.5 1.5 0 1 0 0 3 1.5 1.5 0 0 0 0-3ZM21 23a3.5 3.5 0 1 1 0-7 3.5 3.5 0 0 1 0 7Zm0-5a1.5 1.5 0 1 0 0 3 1.5 1.5 0 0 0 0-3ZM12 23a3.5 3.5 0 1 1 0-7 3.5 3.5 0 0 1 0 7Zm0-5a1.5 1.5 0 1 0 0 3 1.5 1.5 0 0 0 0-3Z">
		</path>
	</symbol>
	<symbol xmlns="http://www.w3.org/2000/svg" viewBox="0 0 32 32" id="home">
		<path d="M29.574 11.215a1.985 1.985 0 0 0-.851-1.27l-11.248-7.5a2.652 2.652 0 0 0-2.948 0L3.272 9.948a2 2 0 0 0-.549 2.771l.737 1.105a1.983 1.983 0 0 0 1.271.852A2.043 2.043 0 0 0 5 14.7V25a3 3 0 0 0 3 3h5a1 1 0 0 0 1-1v-8h4v8a1 1 0 0 0 1 1h5a3 3 0 0 0 3-3V14.7a2.043 2.043 0 0 0 .269-.027 1.983 1.983 0 0 0 1.271-.852l.737-1.105a1.985 1.985 0 0 0 .297-1.501ZM24 26h-4v-8a1 1 0 0 0-1-1h-6a1 1 0 0 0-1 1v8H8a1 1 0 0 1-1-1V13.868l9-6 9 6V25a1 1 0 0 1-1 1Zm2.876-13.285L16.555 5.834a1 1 0 0 0-1.11 0L5.124 12.715l-.742-1.1 11.255-7.5a.658.658 0 0 1 .729 0l11.247 7.5Z">
		</path>
	</symbol>
	<symbol xmlns="http://www.w3.org/2000/svg" viewBox="0 0 24 24" id="search">
		<title>
			search
		</title>
		<g id="Layer_2">
			<path d="M11.75,5.34a3.86,3.86,0,0,0-4.15.28A1,1,0,1,0,8.86,7.18a1.87,1.87,0,0,1,1.95-.07,1,1,0,1,0,.95-1.76Z">
			</path>
			<path d="M21.69,20.28,16.17,15a8,8,0,1,0-1.45,1.38l5.59,5.37a1,1,0,0,0,1.38-1.44ZM4,10a6,6,0,1,1,6,6A6,6,0,0,1,4,10Z">
			</path>
		</g>
	</symbol>
	<symbol xmlns="http://www.w3.org/2000/svg" viewBox="0 0 20 20" id="locate">
		<path d="M10 0C6.12297 0 2.96875 3.15422 2.96875 7.03125C2.96875 8.34117 3.3316 9.61953 4.01832 10.7286L9.59977 19.723C9.70668 19.8953 9.89504 20 10.0976 20C10.0992 20 10.1007 20 10.1023 20C10.3066 19.9984 10.4954 19.8905 10.6003 19.7152L16.0395 10.6336C16.6883 9.54797 17.0312 8.30231 17.0312 7.03125C17.0312 3.15422 13.877 0 10 0ZM15.0338 10.032L10.0887 18.2885L5.01434 10.1112C4.44273 9.18805 4.13281 8.12305 4.13281 7.03125C4.13281 3.80039 6.76914 1.16406 10 1.16406C13.2309 1.16406 15.8633 3.80039 15.8633 7.03125C15.8633 8.09066 15.5738 9.12844 15.0338 10.032Z">
		</path>
		<path d="M10 3.51562C8.06148 3.51562 6.48438 5.09273 6.48438 7.03125C6.48438 8.95738 8.03582 10.5469 10 10.5469C11.9884 10.5469 13.5156 8.93621 13.5156 7.03125C13.5156 5.09273 11.9385 3.51562 10 3.51562ZM10 9.38281C8.7009 9.38281 7.64844 8.32684 7.64844 7.03125C7.64844 5.73891 8.70766 4.67969 10 4.67969C11.2923 4.67969 12.3477 5.73891 12.3477 7.03125C12.3477 8.30793 11.3197 9.38281 10 9.38281Z">
		</path>
	</symbol>
	<symbol version="1.1" id="cart" xmlns="http://www.w3.org/2000/svg" xmlns:xlink="http://www.w3.org/1999/xlink" x="0px" y="0px" xml:space="preserve" viewBox="0 0 243.5 243.5">
		<g>
			<path d="M113.403,157.775c0.399,3.858,3.655,6.729,7.451,6.729c0.258,0,0.518-0.013,0.78-0.04c4.12-0.426,7.115-4.111,6.689-8.232
		l-3.458-33.468c-0.426-4.121-4.11-7.112-8.231-6.689c-4.12,0.426-7.115,4.111-6.69,8.231L113.403,157.775z">
			</path>
			<path d="M160.338,164.464c0.262,0.027,0.522,0.04,0.78,0.04c3.795,0,7.052-2.872,7.451-6.729l3.458-33.468
		c0.426-4.121-2.569-7.806-6.689-8.231c-4.121-0.422-7.806,2.57-8.232,6.689l-3.458,33.468
		C153.223,160.354,156.218,164.039,160.338,164.464z">
			</path>
			<path d="M102.266,197.064c-12.801,0-23.215,10.414-23.215,23.215c0,12.804,10.414,23.221,23.215,23.221
		c12.801,0,23.216-10.417,23.216-23.221C125.481,207.479,115.067,197.064,102.266,197.064z M102.266,228.5
		c-4.53,0-8.215-3.688-8.215-8.221c0-4.53,3.685-8.215,8.215-8.215c4.53,0,8.216,3.685,8.216,8.215
		C110.481,224.812,106.796,228.5,102.266,228.5z">
			</path>
			<path d="M179.707,197.064c-12.801,0-23.216,10.414-23.216,23.215c0,12.804,10.415,23.221,23.216,23.221
		c12.802,0,23.218-10.417,23.218-23.221C202.925,207.479,192.509,197.064,179.707,197.064z M179.707,228.5
		c-4.53,0-8.216-3.688-8.216-8.221c0-4.53,3.686-8.215,8.216-8.215c4.531,0,8.218,3.685,8.218,8.215
		C187.925,224.812,184.238,228.5,179.707,228.5z">
			</path>
			<path d="M224.569,91.057c-1.42-1.837-3.611-2.913-5.933-2.913H69.141l-6.277-24.141c-0.86-3.305-3.844-5.612-7.259-5.612h-30.74
		c-4.142,0-7.5,3.358-7.5,7.5s3.358,7.5,7.5,7.5h24.941l6.221,23.922c0.034,0.15,0.073,0.299,0.116,0.446l23.15,89.022
		c0.86,3.305,3.844,5.612,7.259,5.612h108.874c3.415,0,6.399-2.307,7.259-5.612l23.211-89.25
		C226.478,95.285,225.989,92.894,224.569,91.057z M189.626,177.395H92.35l-19.309-74.25h135.894L189.626,177.395z">
			</path>
			<path d="M135.674,74.826c1.464,1.464,3.384,2.197,5.303,2.197c1.92,0,3.839-0.732,5.303-2.197l24.28-24.28
		c2.929-2.929,2.929-7.678,0-10.606c-2.929-2.928-7.678-2.928-10.606,0l-11.468,11.468l0.002-43.907
		c0-4.142-3.357-7.501-7.499-7.501h-0.001c-4.142,0-7.5,3.358-7.5,7.499l-0.002,43.925l-11.468-11.468
		c-2.929-2.929-7.678-2.929-10.606,0c-2.929,2.929-2.929,7.678,0,10.606L135.674,74.826z">
			</path>
		</g>
		<g>
		</g>
		<g>
		</g>
		<g>
		</g>
		<g>
		</g>
		<g>
		</g>
		<g>
		</g>
		<g>
		</g>
		<g>
		</g>
		<g>
		</g>
		<g>
		</g>
		<g>
		</g>
		<g>
		</g>
		<g>
		</g>
		<g>
		</g>
		<g>
		</g>
	</symbol>
	<symbol xmlns="http://www.w3.org/2000/svg" viewBox="0 0 20 17" id="heart">
		<path fill-rule="evenodd" clip-rule="evenodd" d="M0.520752 5.88808C0.520752 2.96254 3.08732 0.709961 6.09992 0.709961C7.65284 0.709961 9.01928 1.43811 9.99992 2.38028C10.9806 1.43811 12.347 0.709961 13.8999 0.709961C16.9126 0.709961 19.4791 2.96254 19.4791 5.88808C19.4791 7.89214 18.6244 9.6544 17.4405 11.1441C16.2584 12.6313 14.7124 13.8934 13.232 14.919C12.6665 15.3107 12.0945 15.672 11.5711 15.9386C11.0795 16.189 10.5142 16.4183 9.99992 16.4183C9.48566 16.4183 8.92038 16.189 8.42876 15.9386C7.90529 15.672 7.33325 15.3107 6.76783 14.919C5.28747 13.8934 3.74136 12.6313 2.55939 11.1441C1.37537 9.6544 0.520752 7.89214 0.520752 5.88808ZM6.09992 2.33496C3.8474 2.33496 2.14575 3.99149 2.14575 5.88808C2.14575 7.40854 2.79119 8.82413 3.83152 10.133C4.87389 11.4445 6.27641 12.6016 7.69322 13.5832C8.22932 13.9546 8.73426 14.2706 9.16629 14.4906C9.63007 14.7268 9.89884 14.7933 9.99992 14.7933C10.101 14.7933 10.3698 14.7268 10.8335 14.4906C11.2656 14.2706 11.7705 13.9546 12.3067 13.5832C13.7234 12.6016 15.1259 11.4445 16.1683 10.133C17.2086 8.82413 17.8541 7.40854 17.8541 5.88808C17.8541 3.99149 16.1524 2.33496 13.8999 2.33496C12.6062 2.33496 11.3983 3.10783 10.6441 4.08879C10.4902 4.28882 10.2522 4.40603 9.99992 4.40603C9.74761 4.40603 9.5096 4.28882 9.35577 4.08879C8.60155 3.10783 7.39358 2.33496 6.09992 2.33496Z">
		</path>
	</symbol>
	<symbol version="1.0" id="footer-tg" xmlns="http://www.w3.org/2000/svg" xmlns:xlink="http://www.w3.org/1999/xlink" x="0px" y="0px" enable-background="new 0 0 100 100" xml:space="preserve" viewBox="0 0 100 100">
		<path d="M84.16,14.148l-71.047,29.57c0,0-3.359,1.221-3.099,3.473c0.267,2.256,3.008,3.288,3.008,3.288l17.877,6.382
	c0,0,5.396,18.772,6.458,22.344c1.062,3.562,1.914,3.646,1.914,3.646c0.989,0.456,1.888-0.27,1.888-0.27l11.55-11.169L70.71,86.054
	c4.869,2.253,6.641-2.441,6.641-2.441L90,15.935C90,11.427,84.16,14.148,84.16,14.148z M71.582,78.17L52.324,62.51l-5.976,5.777
	l1.314-12.291l25.67-24.329L38.341,52.441l-15.521-5.54l59.217-24.648L71.582,78.17z">
		</path>
	</symbol>
	<symbol xmlns="http://www.w3.org/2000/svg" xml:space="preserve" viewBox="0 0 548.358 548.358" id="footer-vk">
		<path d="M545.451 400.298c-.664-1.431-1.283-2.618-1.858-3.569-9.514-17.135-27.695-38.167-54.532-63.102l-.567-.571-.284-.28-.287-.287h-.288c-12.18-11.611-19.893-19.418-23.123-23.415-5.91-7.614-7.234-15.321-4.004-23.13 2.282-5.9 10.854-18.36 25.696-37.397 7.807-10.089 13.99-18.175 18.556-24.267 32.931-43.78 47.208-71.756 42.828-83.939l-1.701-2.847c-1.143-1.714-4.093-3.282-8.846-4.712-4.764-1.427-10.853-1.663-18.278-.712l-82.224.568c-1.332-.472-3.234-.428-5.712.144l-3.713.859-1.431.715-1.136.859c-.952.568-1.999 1.567-3.142 2.995-1.137 1.423-2.088 3.093-2.848 4.996-8.952 23.031-19.13 44.444-30.553 64.238-7.043 11.803-13.511 22.032-19.418 30.693-5.899 8.658-10.848 15.037-14.842 19.126-4 4.093-7.61 7.372-10.852 9.849-3.237 2.478-5.708 3.525-7.419 3.142-1.715-.383-3.33-.763-4.859-1.143-2.663-1.714-4.805-4.045-6.42-6.995-1.622-2.95-2.714-6.663-3.285-11.136-.568-4.476-.904-8.326-1-11.563-.089-3.233-.048-7.806.145-13.706.198-5.903.287-9.897.287-11.991 0-7.234.141-15.085.424-23.555.288-8.47.521-15.181.716-20.125.194-4.949.284-10.185.284-15.705s-.336-9.849-1-12.991a44.442 44.442 0 0 0-2.99-9.137c-1.335-2.95-3.289-5.232-5.853-6.852-2.569-1.618-5.763-2.902-9.564-3.856-10.089-2.283-22.936-3.518-38.547-3.71-35.401-.38-58.148 1.906-68.236 6.855-3.997 2.091-7.614 4.948-10.848 8.562-3.427 4.189-3.905 6.475-1.431 6.851 11.422 1.711 19.508 5.804 24.267 12.275l1.715 3.429c1.334 2.474 2.666 6.854 3.999 13.134 1.331 6.28 2.19 13.227 2.568 20.837.95 13.897.95 25.793 0 35.689-.953 9.9-1.853 17.607-2.712 23.127-.859 5.52-2.143 9.993-3.855 13.418-1.715 3.426-2.856 5.52-3.428 6.28-.571.76-1.047 1.239-1.425 1.427a21.387 21.387 0 0 1-7.71 1.431c-2.667 0-5.901-1.334-9.707-4-3.805-2.666-7.754-6.328-11.847-10.992-4.093-4.665-8.709-11.184-13.85-19.558-5.137-8.374-10.467-18.271-15.987-29.691l-4.567-8.282c-2.855-5.328-6.755-13.086-11.704-23.267-4.952-10.185-9.329-20.037-13.134-29.554-1.521-3.997-3.806-7.04-6.851-9.134l-1.429-.859c-.95-.76-2.475-1.567-4.567-2.427a30.301 30.301 0 0 0-6.567-1.854l-78.229.568c-7.994 0-13.418 1.811-16.274 5.428l-1.143 1.711c-.571.953-.859 2.475-.859 4.57 0 2.094.571 4.664 1.714 7.707 11.42 26.84 23.839 52.725 37.257 77.659 13.418 24.934 25.078 45.019 34.973 60.237 9.897 15.229 19.985 29.602 30.264 43.112 10.279 13.515 17.083 22.176 20.412 25.981 3.333 3.812 5.951 6.662 7.854 8.565l7.139 6.851c4.568 4.569 11.276 10.041 20.127 16.416 8.853 6.379 18.654 12.659 29.408 18.85 10.756 6.181 23.269 11.225 37.546 15.126 14.275 3.905 28.169 5.472 41.684 4.716h32.834c6.659-.575 11.704-2.669 15.133-6.283l1.136-1.431c.764-1.136 1.479-2.901 2.139-5.276.668-2.379 1-5 1-7.851-.195-8.183.428-15.558 1.852-22.124 1.423-6.564 3.045-11.513 4.859-14.846 1.813-3.33 3.859-6.14 6.136-8.418 2.282-2.283 3.908-3.666 4.862-4.142.948-.479 1.705-.804 2.276-.999 4.568-1.522 9.944-.048 16.136 4.429 6.187 4.473 11.99 9.996 17.418 16.56 5.425 6.57 11.943 13.941 19.555 22.124 7.617 8.186 14.277 14.271 19.985 18.274l5.708 3.426c3.812 2.286 8.761 4.38 14.853 6.283 6.081 1.902 11.409 2.378 15.984 1.427l73.087-1.14c7.229 0 12.854-1.197 16.844-3.572 3.998-2.379 6.373-5 7.139-7.851.764-2.854.805-6.092.145-9.712-.677-3.611-1.344-6.136-2.008-7.563z">
		</path>
	</symbol>
	<symbol xmlns="http://www.w3.org/2000/svg" xmlns:xlink="http://www.w3.org/1999/xlink" viewBox="0,0,256,256" id="footer-wp">
		<g fill-rule="nonzero" stroke="none" stroke-width="1" stroke-linecap="butt" stroke-linejoin="miter" stroke-miterlimit="10" stroke-dasharray="" stroke-dashoffset="0" font-family="none" font-weight="none" font-size="none" text-anchor="none">
			<g transform="scale(10.66667,10.66667)">
				<path d="M12.01172,2c-5.506,0 -9.98823,4.47838 -9.99023,9.98438c-0.001,1.76 0.45998,3.47819 1.33398,4.99219l-1.35547,5.02344l5.23242,-1.23633c1.459,0.796 3.10144,1.21384 4.77344,1.21484h0.00391c5.505,0 9.98528,-4.47937 9.98828,-9.98437c0.002,-2.669 -1.03588,-5.17841 -2.92187,-7.06641c-1.886,-1.887 -4.39245,-2.92673 -7.06445,-2.92773zM12.00977,4c2.136,0.001 4.14334,0.8338 5.65234,2.3418c1.509,1.51 2.33794,3.51639 2.33594,5.65039c-0.002,4.404 -3.58423,7.98633 -7.99023,7.98633c-1.333,-0.001 -2.65341,-0.3357 -3.81641,-0.9707l-0.67383,-0.36719l-0.74414,0.17578l-1.96875,0.46484l0.48047,-1.78516l0.2168,-0.80078l-0.41406,-0.71875c-0.698,-1.208 -1.06741,-2.58919 -1.06641,-3.99219c0.002,-4.402 3.58528,-7.98437 7.98828,-7.98437zM8.47656,7.375c-0.167,0 -0.43702,0.0625 -0.66602,0.3125c-0.229,0.249 -0.875,0.85208 -0.875,2.08008c0,1.228 0.89453,2.41503 1.01953,2.58203c0.124,0.166 1.72667,2.76563 4.26367,3.76563c2.108,0.831 2.53614,0.667 2.99414,0.625c0.458,-0.041 1.47755,-0.60255 1.68555,-1.18555c0.208,-0.583 0.20848,-1.0845 0.14648,-1.1875c-0.062,-0.104 -0.22852,-0.16602 -0.47852,-0.29102c-0.249,-0.125 -1.47608,-0.72755 -1.70508,-0.81055c-0.229,-0.083 -0.3965,-0.125 -0.5625,0.125c-0.166,0.25 -0.64306,0.81056 -0.78906,0.97656c-0.146,0.167 -0.29102,0.18945 -0.54102,0.06445c-0.25,-0.126 -1.05381,-0.39024 -2.00781,-1.24024c-0.742,-0.661 -1.24267,-1.47656 -1.38867,-1.72656c-0.145,-0.249 -0.01367,-0.38577 0.11133,-0.50977c0.112,-0.112 0.24805,-0.2915 0.37305,-0.4375c0.124,-0.146 0.167,-0.25002 0.25,-0.41602c0.083,-0.166 0.04051,-0.3125 -0.02149,-0.4375c-0.062,-0.125 -0.54753,-1.35756 -0.76953,-1.85156c-0.187,-0.415 -0.3845,-0.42464 -0.5625,-0.43164c-0.145,-0.006 -0.31056,-0.00586 -0.47656,-0.00586z">
				</path>
			</g>
		</g>
	</symbol>
	<symbol xmlns="http://www.w3.org/2000/svg" viewBox="0 0 512 512" id="footer-fb">
		<path fill-rule="evenodd" clip-rule="evenodd" d="M312 32c-53.019 0-96 42.98-96 96v72h-80v64h80v216h64V264h80l16-64h-96v-72c0-17.673 14.327-32 32-32h64V32h-64Z">
		</path>
	</symbol>
	<symbol xmlns="http://www.w3.org/2000/svg" viewBox="0 0 21 14" id="mail">
		<path d="M10.5113 9.00651L7.45638 6.66196L0.807981 14H20.2205L13.5714 6.58902L10.5113 9.00651V9.00651ZM20.9475 0H0.080273L10.5143 8.20419L20.9475 0V0ZM14.0298 6.21942L21 13.993V0.701333L14.0298 6.21942V6.21942ZM0 0.701333V13.993L6.97024 6.21942L0 0.701333V0.701333Z">
		</path>
	</symbol>
	<symbol xmlns="http://www.w3.org/2000/svg" viewBox="0 0 64 64" id="stock">
		<path d="M43.998 48h-9.995a1 1 0 1 0 0 2h9.995a1 1 0 1 0 0-2zM47 49a1 1 0 1 0 2 0 1 1 0 1 0-2 0zm9.01-1h-4.02a1 1 0 0 0 0 2h4.02a1 1 0 0 0 0-2zM30 48H8a1 1 0 1 0 0 2h22a1 1 0 1 0 0-2zm-18.993-1h11.986A1 1 0 0 0 24 46.005v-8.01A1.008 1.008 0 0 0 22.993 37H11.007a1 1 0 0 0-1.007.995v8.01a1.008 1.008 0 0 0 1.007.995zM12 45v-6h10v6zm14.007-8a1 1 0 0 0-1.007.995v8.01a1.008 1.008 0 0 0 1.007.995h11.986A1 1 0 0 0 39 46.005v-8.01A1.008 1.008 0 0 0 37.993 37zM37 39v6H27v-6zm3-1.005v8.01a1.008 1.008 0 0 0 1.007.995h11.986A1 1 0 0 0 54 46.005v-8.01A1.008 1.008 0 0 0 52.993 37H41.007a1 1 0 0 0-1.007.995zM42 39h10v6H42zm-23.993-3h11.986A1 1 0 0 0 31 35.005v-8.01A1.008 1.008 0 0 0 29.993 26H18.007a1 1 0 0 0-1.007.995v8.01a1.008 1.008 0 0 0 1.007.995zM19 34v-6h10v6zm13-7.005v8.01a1.008 1.008 0 0 0 1.007.995h11.986A1 1 0 0 0 46 35.005v-8.01A1.008 1.008 0 0 0 44.993 26H33.007a1 1 0 0 0-1.007.995zM34 28h10v6H34zm-7.993-3h11.986A1 1 0 0 0 39 24.005v-8.01A1.008 1.008 0 0 0 37.993 15H26.007a1 1 0 0 0-1.007.995v8.01a1.008 1.008 0 0 0 1.007.995zM27 23v-6h10v6z">
		</path>
	</symbol>
	<symbol xmlns="http://www.w3.org/2000/svg" viewBox="0 0 64 64" id="contact">
		<path d="M48.932 33.808c-.47-.477-3.629-3.42-4.725-4.515-.418-.418-2.264-2.303-2.721-2.751a16.115 16.115 0 0 0-2.33-1.983c-2.284-1.52-4.57-1.51-8.515.008-6.025 2.317-6.51 2.317-7.213.562-.119-.299.483-1.323 1.796-2.635a28.302 28.302 0 0 1 1.877-1.697 50.23 50.23 0 0 1 2.722-2.103c.326-.235.628-.448.898-.634l.087-.06H40a4.378 4.378 0 0 1 .486.038 4.962 4.962 0 0 1 1.116.265 2.142 2.142 0 0 1 1.066.752c.081.122.448.694.55.85.262.397.5.73.763 1.056A7.82 7.82 0 0 0 50.5 24H52a1 1 0 0 0 0-2h-1.5a5.843 5.843 0 0 1-4.962-2.294c-.217-.27-.42-.554-.65-.902-.092-.14-.462-.718-.556-.859a4.066 4.066 0 0 0-2.028-1.515A6.76 6.76 0 0 0 40 16H24.5c-2.709 0-4.887 1.195-6.982 3.329-.45.458-1.463 1.617-1.958 2.171H13a1 1 0 0 0 0 2h3.414l.293-.293c.26-.26 1.735-1.964 2.238-2.477C20.699 18.944 22.419 18 24.5 18h2.91c-.542.413-1.076.834-1.589 1.26a30.217 30.217 0 0 0-2.012 1.82c-1.887 1.887-2.787 3.417-2.238 4.791 1.298 3.245 2.813 3.245 9.788.562 3.396-1.306 5.03-1.314 6.69-.209a14.375 14.375 0 0 1 2.036 1.744c.44.433 2.277 2.308 2.708 2.74 1.131 1.13 4.284 4.066 4.715 4.504 1.054 1.07 1.43 1.693 1.387 2.12a1.759 1.759 0 0 1-.602.961c-.42.42-1.047 1.032-1.836 1.795a.949.949 0 0 0-.09-.136l-4.248-4.247a1 1 0 0 0-1.414 1.414l4.247 4.247a.924.924 0 0 0 .105.07 979.51 979.51 0 0 1-2.091 1.998l-.087.083-1.51 1.438-.003-.003-4.247-4.247a1 1 0 0 0-1.414 1.414l4.213 4.213-1.21 1.148a2134.16 2134.16 0 0 1-1.895 1.793 1.518 1.518 0 0 1-.328.226 2.527 2.527 0 0 1-2.747-.327 2.621 2.621 0 0 0 .722-2.452 11.183 11.183 0 0 0-1.639-2.688l-.256-.348a76.904 76.904 0 0 0-1.787-2.312l-.367-.435a1144.003 1144.003 0 0 1-3.752-4.464l-.08-.096a282.151 282.151 0 0 1-3.298-4.002c-1.482-1.852-3.253-2.017-4.78-1.115a3.632 3.632 0 0 0-.708.533l-4 4a5.83 5.83 0 0 0-1.22 1.707H7v2h5.298a3.095 3.095 0 0 0 .505 1.163 2.845 2.845 0 0 0 .597.637l.633.462a4394.566 4394.566 0 0 0 6.64 4.84l.06.042c3.977 2.891 6.573 4.762 7.212 5.188a2.533 2.533 0 0 0 2.589.093 6.983 6.983 0 0 0 1.792-1.31 4.618 4.618 0 0 0 5.111.643 3.388 3.388 0 0 0 .77-.551l.502-.473a2142.003 2142.003 0 0 0 5.55-5.269l.087-.083c2.55-2.432 4.426-4.24 5.361-5.175a4.498 4.498 0 0 0 .886-1.207H57v-2h-6.209a6.637 6.637 0 0 0-1.859-2.692zm-33.72 6.34-.622-.455a1.176 1.176 0 0 1-.15-.18c-.385-.547-.323-1.216.767-2.306l4-4a1.778 1.778 0 0 1 .311-.225c.727-.429 1.393-.367 2.201.643.497.621 1.235 1.52 2.152 2.625a.945.945 0 0 0-.132.082l-5.963 5.686-.921-.672-1.643-1.199zm6.638 4.836-2.431-1.77 5.684-5.42c.01-.01.014-.024.025-.035a1047.414 1047.414 0 0 0 3.272 3.896l-4.838 4.572-1.654-1.2zm7.838 5.128c-.316.148-.491.15-.633.056-.413-.275-1.78-1.253-3.844-2.747l4.465-4.22.087.11c.408.52.816 1.052 1.195 1.564q.127.171.247.336a12.861 12.861 0 0 1 1.335 2.069.856.856 0 0 1-.247.513c-.109.109-.875.918-1.126 1.166a5.833 5.833 0 0 1-1.479 1.153zM55 23a1 1 0 1 0 2 0 1 1 0 1 0-2 0zm-47 .5h1a1 1 0 0 0 0-2H8a1 1 0 0 0 0 2z">
		</path>
	</symbol>
	<symbol xmlns="http://www.w3.org/2000/svg" viewBox="0 0 50 50" id="delivery">
		<path d="M46 37h-2v-2h2c.6 0 1-.5 1-1v-6.8c0-.8-.3-1.2-1-1.2h-1.6l-3.7-6.6c-.1-.2-.4-.4-.8-.4H32v-2h7.9c1 0 1.9.5 2.5 1.3l3.2 5.7h.4c1.8 0 3 1.3 3 3.2V34c0 1.7-1.3 3-3 3Z">
		</path>
		<path d="M33 37H16v-2h15V11H18V9h15v28ZM8 35H3v2h5v-2ZM40 41c-2.8 0-5-2.2-5-5s2.2-5 5-5 5 2.2 5 5-2.2 5-5 5Zm0-8c-1.7 0-3 1.3-3 3s1.3 3 3 3 3-1.3 3-3-1.3-3-3-3Z">
		</path>
		<path d="M12 41c-2.8 0-5-2.2-5-5s2.2-5 5-5 5 2.2 5 5-2.2 5-5 5Zm0-8c-1.7 0-3 1.3-3 3s1.3 3 3 3 3-1.3 3-3-1.3-3-3-3ZM36 35h-4v2h4v-2ZM41.2 27H34v-2h6.8l2-1H45v2h-1.8l-2 1ZM18 24H1v2h17v-2ZM27 14H4v2h23v-2ZM25 19H10v2h15v-2ZM8 19H6v2h2v-2ZM16 9h-2v2h2V9Z">
		</path>
	</symbol>
	<symbol xmlns="http://www.w3.org/2000/svg" viewBox="0 0 64 64" id="experience">
		<path d="M38.001 55h-1.998A1 1 0 0 1 35 54.007V14.993A.991.991 0 0 1 36.003 14h4.994a1 1 0 0 1 1.003.993V35a1 1 0 0 0 2 0V14.993A3 3 0 0 0 40.997 12h-4.994A2.991 2.991 0 0 0 33 14.993v39.014A3 3 0 0 0 36.003 57H38a1 1 0 0 0 0-2zM27.997 16h-4.994A2.999 2.999 0 0 0 20 19.009V53.99A3 3 0 0 0 23.003 57h4.994A2.999 2.999 0 0 0 31 53.991V19.01A3 3 0 0 0 27.997 16zM29 53.991A.999.999 0 0 1 27.997 55h-4.994A1 1 0 0 1 22 53.991V19.01A.999.999 0 0 1 23.003 18h4.994A1 1 0 0 1 29 19.009zM14.997 22h-4.994A2.993 2.993 0 0 0 7 24.996V41a1 1 0 0 0 2 0V24.996A.993.993 0 0 1 10.003 24h4.994a.995.995 0 0 1 1.003.996v29.008a.993.993 0 0 1-1.003.996h-4.994A.995.995 0 0 1 9 54.004V49a1 1 0 0 0-2 0v5.004A2.995 2.995 0 0 0 10.003 57h4.994A2.993 2.993 0 0 0 18 54.004V24.996A2.995 2.995 0 0 0 14.997 22zM47 37a10 10 0 1 0 10 10 10 10 0 0 0-10-10zm0 18a8 8 0 1 1 8-8 8 8 0 0 1-8 8zm3.01-12h-4.02a1 1 0 0 0 0 2h1.596l-3.881 3.88a1 1 0 0 0 1.414 1.415L49 46.415v1.594a1 1 0 0 0 2 0v-4.018a.973.973 0 0 0-.296-.701.985.985 0 0 0-.695-.29zM7 45a1 1 0 1 0 2 0 1 1 0 1 0-2 0z">
		</path>
	</symbol>
	<symbol xmlns="http://www.w3.org/2000/svg" viewBox="0 0 64 64" id="price">
		<path d="M19 34a2 2 0 1 0 4 0 2 2 0 1 0-4 0zm38.006-.863a3.056 3.056 0 0 0-.007-.09L57 33a1 1 0 0 0-2 0 1.015 1.015 0 0 0 .019.196h-.013l.004.05a3.357 3.357 0 0 1-.255 1.535 2.002 2.002 0 0 1-1.845 1.173 15.037 15.037 0 0 0-5.515-9.7 1.03 1.03 0 0 0-.088-.08l-.635-.514a1.03 1.03 0 0 0-.158-.105l-.035-.027-.003.007a1 1 0 0 0-1.063 1.68l.21.168-.004.006A12.943 12.943 0 0 1 51 37.5c0 4.579-2.781 8.662-7.125 11.32L45.291 55h-5l-.944-4.124q-.9.288-1.845.507a24.849 24.849 0 0 1-10.69.07L26 55h-5l1.167-5.09A16.47 16.47 0 0 1 14.44 43H17a1 1 0 0 0 0-2H9.996A.992.992 0 0 1 9 39.997v-4.994A.999.999 0 0 1 9.996 34h3.561A14.295 14.295 0 0 1 19 26.925v-5.939l4.182 3.667a22.518 22.518 0 0 1 3.264-1.024 1.02 1.02 0 0 0 .137-.027l.105-.028.312-.067v-.016l.373-.1a1 1 0 1 0-.518-1.932l-.79.211a1.03 1.03 0 0 0-.139.048c-.784.21-1.57.468-2.265.695l-3.343-2.93L17 16.572v9.37A16.417 16.417 0 0 0 12.197 32H9.996A2.999 2.999 0 0 0 7 35.003v4.994A2.992 2.992 0 0 0 9.996 43h2.203a17.53 17.53 0 0 0 7.672 7.973L18.49 57h9.104l.746-3.258A26.86 26.86 0 0 0 32 54a26.523 26.523 0 0 0 5.896-.657c.218 1.04.802 3.657.802 3.657h9.104l-1.67-7.284c4.169-2.974 6.71-7.178 6.86-11.778a4.287 4.287 0 0 0 3.628-2.511 4.896 4.896 0 0 0 .386-2.29zM39 8a1 1 0 1 0 2 0 1 1 0 1 0-2 0zm-2 21a8.001 8.001 0 0 0 3.998-14.931L41 14v-3a1 1 0 0 0-2 0v2.252a8.062 8.062 0 0 0-4 0V9.991a1 1 0 0 0-2 0v4.018c0 .02 0 .04.002.06A8.001 8.001 0 0 0 37 29zm0-14a6 6 0 1 1-6 6 6 6 0 0 1 6-6zm-1.293 9.21h1.211v-1H39v-1h-2.082v-1.03h.52a2.464 2.464 0 0 0 1.638-.489 1.746 1.746 0 0 0 .576-1.41 1.63 1.63 0 0 0-.54-1.334 2.426 2.426 0 0 0-1.58-.447h-1.825v4.71H34v1h1.707zm1.211-5.718h.55a1.089 1.089 0 0 1 .73.203.792.792 0 0 1 .232.63.772.772 0 0 1-.278.642 1.327 1.327 0 0 1-.836.22h-.398z">
		</path>
	</symbol>
	<symbol xmlns="http://www.w3.org/2000/svg" viewBox="0 0 64 64" id="b-search">
		<path d="M11.993 36.007a1 1-45.001 1 0 1.414-1.414 1 1-45.001 1 0-1.414 1.414zM24 14c4.4 0 8.1 2.8 9.4 6.7l.3 1c.2.5.7.8 1.2.7.5-.2.8-.7.7-1.2v-.1l-.3-.9v-.1s0-.1-.1-.1c-1.6-4.8-6-8-11.2-8-6.6 0-12 5.4-12 12s5.4 12 12 12c5.2 0 9.6-3.3 11.3-7.8 0 0 0-.1.1-.2v-.1c0-.1.1-.2.1-.3l.2-.5c.2-.5-.1-1.1-.7-1.2-.5-.2-1.1.1-1.2.7l-.2.8C32.1 31.2 28.4 34 24 34c-5.5 0-10-4.5-10-10s4.5-10 10-10zm18.9 23.2-2.2 2.2-4.1-4.1c5.9-6.7 5.7-16.9-.7-23.3-6.6-6.6-17.4-6.6-24 0-5.1 5.1-6.3 12.7-3.5 18.9 0 .1 0 .1.1.2l.5.8c.2.5.8.7 1.3.5.5-.2.7-.8.5-1.3l-.3-.6C7.8 24.9 8.8 18 13.4 13.4c5.9-5.9 15.4-5.9 21.2 0 5.9 5.9 5.9 15.4 0 21.2-4.6 4.6-11.5 5.6-17.1 2.9 0 0-.1 0-.1-.1l-.9-.4c-.5-.3-1.1-.1-1.4.4-.3.5-.1 1.1.4 1.4l.5.2c.1.1.3.2.4.2 6.1 3 13.5 2.1 18.8-2.6l4.1 4.1-2.1 2.1 1.4 1.4L50 55.5l1.4 1.4 1.4-1.4 2.8-2.8 1.4-1.4-14.1-14.1zm8.5 16.9L40.1 42.8l2.8-2.8 11.3 11.3-2.8 2.8z">
		</path>
	</symbol>
</svg>
