<svg width="800" height="600" xmlns="http://www.w3.org/2000/svg">
 <g>
  <title>Layer 1</title>
  <g>
   <g fill="url(#svg_20)">
    <path d="m176.35001,296.1l5.6,0c0.3,0 0.5,-0.2 0.5,-0.5l0,-30.9c0,-3.4 2.8,-6.2 6.2,-6.2l30.9,0c0.3,0 0.5,-0.2 0.5,-0.5l0,-5.6c0,-4 -3.2,-7.2 -7.2,-7.2l-36.5,0c-4,0 -7.2,3.2 -7.2,7.2l0,36.6c0,3.9 3.2,7.1 7.2,7.1zm17.5,11.9l0,5.6c0,4 3.2,7.2 7.2,7.2l36.6,0c4,0 7.2,-3.2 7.2,-7.2l0,-36.6c0,-4 -3.2,-7.2 -7.2,-7.2l-5.7,0c-0.3,0 -0.5,0.2 -0.5,0.5l0,30.9c0,3.4 -2.8,6.2 -6.2,6.2l-30.9,0c-0.3,0.1 -0.5,0.3 -0.5,0.6z"/>
    <path d="m194.35001,296.1l18.6,0c4,0 7.2,-3.2 7.2,-7.2l0,-18.5c0,-0.3 -0.2,-0.5 -0.5,-0.5l-18.7,0c-4,0 -7.2,3.2 -7.2,7.2l0,18.6c0.1,0.2 0.3,0.4 0.6,0.4z"/>
   </g>

  </g>
  <g>
   <g fill="#242424">
    <path d="m274.815,258.05999c-1.36,-0.54 -2.9,-0.82 -4.64,-0.82c-2.43,0 -4.57,0.6 -6.44,1.8c-1.86,1.2 -3.33,2.98 -4.4,5.33c-1.06,2.36 -1.6,5.21 -1.6,8.56c0,3.44 0.52,6.35 1.56,8.72c1.04,2.37 2.49,4.14 4.36,5.33c1.86,1.18 4.05,1.78 6.57,1.78c1.79,0 3.43,-0.36 4.92,-1.09c1.48,-0.72 2.76,-1.64 3.83,-2.77l-3.12,-3.82c-0.95,0.76 -1.81,1.33 -2.58,1.72c-0.76,0.39 -1.64,0.58 -2.62,0.58c-3.79,0 -5.68,-3.48 -5.68,-10.45c0,-7.02 1.88,-10.53 5.64,-10.53c0.86,0 1.68,0.17 2.44,0.5c0.77,0.33 1.54,0.83 2.32,1.49l3.3,-3.85c-1.22,-1.1 -2.5,-1.93 -3.86,-2.48zm45.43,3.19c-2.14,-2.67 -5.19,-4.01 -9.15,-4.01c-3.93,0 -6.97,1.36 -9.13,4.08c-2.15,2.71 -3.23,6.6 -3.23,11.66c0,5.14 1.08,9.06 3.23,11.75c2.16,2.68 5.2,4.03 9.13,4.03c3.93,0 6.97,-1.36 9.13,-4.08c2.15,-2.71 3.22,-6.62 3.22,-11.7c0,-5.15 -1.06,-9.06 -3.2,-11.73zm-13.03,3.53c0.82,-1.64 2.12,-2.47 3.88,-2.47c1.76,0 3.06,0.83 3.88,2.47c0.82,1.65 1.24,4.38 1.24,8.2c0,3.87 -0.42,6.62 -1.24,8.26c-0.82,1.63 -2.12,2.44 -3.88,2.44c-1.73,0 -3.02,-0.81 -3.86,-2.44c-0.84,-1.64 -1.26,-4.39 -1.26,-8.26c0,-3.82 0.42,-6.55 1.24,-8.2zm59.1,-6.8l-17.77,0l-1.6,15.3c-0.29,2.75 -0.58,4.77 -0.85,6.07c-0.27,1.3 -0.64,2.28 -1.08,2.93c-0.45,0.65 -1.11,1.17 -1.98,1.58l1.65,4.9c2.02,-0.55 3.58,-1.35 4.68,-2.39c1.1,-1.04 1.95,-2.53 2.56,-4.46c0.61,-1.94 1.1,-4.68 1.47,-8.24l1.09,-10.4l4.9,0l0,24.75l6.93,0l0,-30.04zm44.35,3.27c-2.14,-2.67 -5.19,-4.01 -9.15,-4.01c-3.93,0 -6.97,1.36 -9.13,4.08c-2.15,2.71 -3.23,6.6 -3.23,11.66c0,5.14 1.08,9.06 3.23,11.75c2.16,2.68 5.2,4.03 9.13,4.03c3.93,0 6.97,-1.36 9.12,-4.08c2.16,-2.71 3.23,-6.62 3.23,-11.7c0,-5.15 -1.07,-9.06 -3.2,-11.73zm-13.03,3.53c0.82,-1.64 2.12,-2.47 3.88,-2.47c1.76,0 3.05,0.83 3.88,2.47c0.82,1.65 1.23,4.38 1.23,8.2c0,3.87 -0.41,6.62 -1.23,8.26c-0.83,1.63 -2.12,2.44 -3.88,2.44c-1.74,0 -3.02,-0.81 -3.86,-2.44c-0.84,-1.64 -1.26,-4.39 -1.26,-8.26c0,-3.82 0.42,-6.55 1.24,-8.2zm60.4,-6.8l-21.33,0l0,30.04l6.94,0l0,-24.71l7.41,0l0,24.71l6.98,0l0,-30.04zm41.33,2.47c-2.06,-1.65 -5.02,-2.47 -8.86,-2.47l-8.59,0l0,30.04l6.94,0l0,-10.06l2.3,0c3.52,0 6.29,-0.86 8.3,-2.58c2.01,-1.72 3.01,-4.27 3.01,-7.65c0,-3.21 -1.03,-5.63 -3.1,-7.28zm-5.18,11.29c-0.78,0.8 -1.98,1.19 -3.6,1.19l-1.73,0l0,-10.01l1.73,0c1.65,0 2.86,0.4 3.62,1.19c0.77,0.8 1.15,2.02 1.15,3.67c0,1.84 -0.39,3.17 -1.17,3.96zm50.89,-10.49c-2.14,-2.67 -5.19,-4.01 -9.15,-4.01c-3.93,0 -6.97,1.36 -9.12,4.08c-2.16,2.71 -3.23,6.6 -3.23,11.66c0,5.14 1.07,9.06 3.23,11.75c2.15,2.68 5.19,4.03 9.12,4.03c3.93,0 6.98,-1.36 9.13,-4.08c2.15,-2.71 3.23,-6.62 3.23,-11.7c0,-5.15 -1.07,-9.06 -3.21,-11.73zm-13.03,3.53c0.83,-1.64 2.12,-2.47 3.88,-2.47c1.77,0 3.06,0.83 3.88,2.47c0.83,1.65 1.24,4.38 1.24,8.2c0,3.87 -0.41,6.62 -1.24,8.26c-0.82,1.63 -2.11,2.44 -3.88,2.44c-1.73,0 -3.02,-0.81 -3.86,-2.44c-0.83,-1.64 -1.25,-4.39 -1.25,-8.26c0,-3.82 0.41,-6.55 1.23,-8.2zm66.22,23.24l-2,-30.04l-8.71,0l-3.47,20.46l-3.77,-20.46l-8.67,0l-2,30.04l6.59,0l0.39,-11.75c0.06,-2.43 0.09,-4.19 0.09,-5.29c0,-2.45 -0.06,-4.78 -0.17,-6.98l4.16,20.86l6.5,0l3.95,-20.86c-0.06,0.96 -0.09,2.45 -0.09,4.47c0,1.65 0.06,4.2 0.17,7.67l0.39,11.88l6.64,0z"/>
   </g>
  </g>
  <g>
   <g fill="#3b3b3b">
    <path d="m265.83001,310.94501l0,-11.98l-2.7,0l-3.5,9.67c0.09,-0.81 0.16,-1.52 0.21,-2.15c0.06,-0.62 0.08,-1.4 0.08,-2.32l0,-5.2l-2.18,0l0,11.98l2.74,0l3.46,-9.68c-0.19,1.47 -0.29,2.98 -0.29,4.53l0,5.15l2.18,0zm7.13,0l2.17,0l0,-9.17l-2.17,0l0,3.67l-2.62,0l0,-3.67l-2.16,0l0,9.17l2.16,0l0,-3.85l2.62,0l0,3.85zm10.67,-9.17l-7.3,0l0,1.64l2.51,0l0,7.53l2.17,0l0,-7.53l2.34,0l0.28,-1.64zm7.56,5.25c0.03,-0.48 0.05,-0.78 0.05,-0.88c0,-1.49 -0.33,-2.64 -0.97,-3.44c-0.65,-0.79 -1.55,-1.19 -2.71,-1.19c-1.19,0 -2.12,0.44 -2.78,1.34c-0.67,0.9 -1,2.08 -1,3.56c0,1.51 0.35,2.68 1.04,3.52c0.7,0.85 1.68,1.27 2.97,1.27c1.18,0 2.22,-0.4 3.14,-1.2l-0.91,-1.23c-0.37,0.27 -0.71,0.46 -1.04,0.59c-0.32,0.13 -0.67,0.19 -1.04,0.19c-0.57,0 -1.03,-0.19 -1.35,-0.57c-0.32,-0.38 -0.52,-1.03 -0.59,-1.96l5.19,0zm-2.09,-1.51l0,0.11l-3.1,0c0.05,-0.93 0.2,-1.59 0.46,-1.99c0.26,-0.4 0.63,-0.6 1.12,-0.6c0.53,0 0.92,0.21 1.16,0.62c0.24,0.41 0.36,1.03 0.36,1.86zm10.59,-2.75c-0.5,-0.83 -1.26,-1.25 -2.28,-1.25c-0.98,0 -1.8,0.45 -2.44,1.37l-0.11,-1.11l-1.91,0l0,12.93l2.17,-0.24l0,-4.25c0.53,0.66 1.22,0.99 2.07,0.99c1.01,0 1.81,-0.44 2.39,-1.33c0.58,-0.88 0.87,-2.06 0.87,-3.54c0,-1.54 -0.26,-2.73 -0.76,-3.57zm-1.92,6.02c-0.27,0.5 -0.67,0.76 -1.19,0.76c-0.58,0 -1.07,-0.31 -1.46,-0.92l0,-4.27c0.45,-0.8 0.99,-1.2 1.61,-1.2c0.49,0 0.85,0.25 1.1,0.73c0.24,0.49 0.36,1.31 0.36,2.46c0,1.13 -0.14,1.94 -0.42,2.44zm9.32,2.16l2.16,0l0,-9.17l-2.16,0l0,3.67l-2.62,0l0,-3.67l-2.17,0l0,9.17l2.17,0l0,-3.85l2.62,0l0,3.85zm11.37,-3.92c0.04,-0.48 0.05,-0.78 0.05,-0.88c0,-1.49 -0.32,-2.64 -0.97,-3.44c-0.64,-0.79 -1.55,-1.19 -2.7,-1.19c-1.19,0 -2.12,0.44 -2.79,1.34c-0.66,0.9 -0.99,2.08 -0.99,3.56c0,1.51 0.34,2.68 1.04,3.52c0.69,0.85 1.68,1.27 2.96,1.27c1.18,0 2.23,-0.4 3.14,-1.2l-0.9,-1.23c-0.37,0.27 -0.72,0.46 -1.04,0.59c-0.32,0.13 -0.67,0.19 -1.04,0.19c-0.58,0 -1.03,-0.19 -1.35,-0.57c-0.33,-0.38 -0.52,-1.03 -0.59,-1.96l5.18,0zm-2.08,-1.51l0,0.11l-3.1,0c0.04,-0.93 0.2,-1.59 0.46,-1.99c0.26,-0.4 0.63,-0.6 1.12,-0.6c0.53,0 0.91,0.21 1.16,0.62c0.24,0.41 0.36,1.03 0.36,1.86zm9.66,-3.74l-7.3,0l0,1.64l2.51,0l0,7.53l2.17,0l0,-7.53l2.34,0l0.28,-1.64zm0.4,4.61l4.8,0l0,-1.73l-4.8,0l0,1.73zm15.59,4.56l-0.73,-9.17l-2.64,0l-1.35,6.24l-1.28,-6.24l-2.6,0l-0.71,9.17l2.04,0l0.19,-3.83c0.03,-0.38 0.04,-0.94 0.04,-1.67c0,-0.74 -0.01,-1.3 -0.04,-1.7l1.44,6.23l1.84,0l1.51,-6.24c-0.04,0.66 -0.05,1.27 -0.05,1.83c0,0.49 0.01,1 0.05,1.55l0.22,3.83l2.07,0zm8.22,-1.59c-0.1,-0.15 -0.14,-0.39 -0.14,-0.72l0,-4.02c0,-2.07 -1.09,-3.1 -3.26,-3.1c-1,0 -2.02,0.22 -3.07,0.66l0.5,1.44c0.88,-0.32 1.62,-0.47 2.22,-0.47c0.52,0 0.9,0.12 1.13,0.36c0.23,0.24 0.34,0.65 0.34,1.23l0,0.57l-0.91,0c-1.25,0 -2.21,0.27 -2.87,0.79c-0.65,0.53 -0.98,1.29 -0.98,2.28c0,0.85 0.24,1.53 0.72,2.05c0.49,0.52 1.14,0.78 1.96,0.78c1.08,0 1.9,-0.44 2.47,-1.34c0.15,0.42 0.37,0.73 0.68,0.92c0.31,0.2 0.71,0.33 1.21,0.39l0.45,-1.44c-0.21,-0.1 -0.36,-0.22 -0.45,-0.38zm-2.28,-0.85c-0.35,0.75 -0.85,1.12 -1.49,1.12c-0.34,0 -0.61,-0.12 -0.81,-0.35c-0.2,-0.24 -0.3,-0.59 -0.3,-1.05c0,-1.09 0.64,-1.63 1.91,-1.63l0.69,0l0,1.91zm6.61,2.44l0,-7.49l3.23,0l0.26,-1.68l-5.66,0l0,9.17l2.17,0zm10.41,-1.59c-0.1,-0.15 -0.14,-0.39 -0.14,-0.72l0,-4.02c0,-2.07 -1.09,-3.1 -3.26,-3.1c-1,0 -2.02,0.22 -3.07,0.66l0.5,1.44c0.88,-0.32 1.62,-0.47 2.22,-0.47c0.52,0 0.9,0.12 1.13,0.36c0.23,0.24 0.34,0.65 0.34,1.23l0,0.57l-0.92,0c-1.24,0 -2.2,0.27 -2.86,0.79c-0.66,0.53 -0.98,1.29 -0.98,2.28c0,0.85 0.24,1.53 0.72,2.05c0.49,0.52 1.14,0.78 1.96,0.78c1.08,0 1.9,-0.44 2.47,-1.34c0.15,0.42 0.37,0.73 0.68,0.92c0.31,0.2 0.71,0.33 1.21,0.39l0.45,-1.44c-0.21,-0.1 -0.36,-0.22 -0.45,-0.38zm-2.28,-0.85c-0.35,0.75 -0.85,1.12 -1.49,1.12c-0.34,0 -0.62,-0.12 -0.81,-0.35c-0.2,-0.24 -0.3,-0.59 -0.3,-1.05c0,-1.09 0.64,-1.63 1.91,-1.63l0.69,0l0,1.91zm9.13,-6.31c-0.6,-0.45 -1.35,-0.68 -2.24,-0.68c-0.66,0 -1.25,0.08 -1.77,0.26c-0.52,0.17 -1.01,0.44 -1.46,0.79l1.01,1.17c0.32,-0.22 0.63,-0.39 0.92,-0.49c0.29,-0.1 0.61,-0.16 0.97,-0.16c0.39,0 0.7,0.09 0.93,0.27c0.24,0.18 0.35,0.46 0.35,0.84c0,0.84 -0.52,1.25 -1.56,1.25l-0.83,0l-0.12,1.49l1.12,0c0.58,0 1.02,0.1 1.31,0.29c0.28,0.19 0.43,0.52 0.43,0.98c0,0.93 -0.53,1.39 -1.58,1.39c-0.42,0 -0.79,-0.06 -1.11,-0.18c-0.32,-0.11 -0.68,-0.3 -1.06,-0.57l-1.04,1.23c0.93,0.75 2.03,1.13 3.31,1.13c1.13,0 2.03,-0.25 2.72,-0.75c0.69,-0.51 1.03,-1.23 1.03,-2.18c0,-0.66 -0.19,-1.17 -0.56,-1.52c-0.38,-0.35 -0.95,-0.59 -1.71,-0.72c0.63,-0.17 1.1,-0.42 1.4,-0.74c0.3,-0.33 0.45,-0.75 0.45,-1.27c0,-0.76 -0.3,-1.37 -0.91,-1.83zm10.16,8.75l0,-9.17l-2.29,0l-3,6.95c0.09,-0.33 0.17,-0.79 0.22,-1.35c0.06,-0.57 0.09,-1.19 0.09,-1.87l0,-3.73l-2.05,0l0,9.17l2.28,0l3.03,-6.97c-0.21,0.94 -0.31,2.02 -0.31,3.24l0,3.73l2.03,0zm7.07,0l2.17,0l0,-9.17l-2.17,0l0,3.67l-2.62,0l0,-3.67l-2.16,0l0,9.17l2.16,0l0,-3.85l2.62,0l0,3.85zm12.98,-8.75c-0.61,-0.45 -1.36,-0.68 -2.25,-0.68c-0.65,0 -1.24,0.08 -1.76,0.26c-0.52,0.17 -1.01,0.44 -1.46,0.79l1.01,1.17c0.32,-0.22 0.63,-0.39 0.91,-0.49c0.29,-0.1 0.62,-0.16 0.98,-0.16c0.39,0 0.7,0.09 0.93,0.27c0.23,0.18 0.35,0.46 0.35,0.84c0,0.84 -0.52,1.25 -1.56,1.25l-0.83,0l-0.13,1.49l1.13,0c0.58,0 1.01,0.1 1.3,0.29c0.29,0.19 0.44,0.52 0.44,0.98c0,0.93 -0.53,1.39 -1.58,1.39c-0.42,0 -0.79,-0.06 -1.11,-0.18c-0.33,-0.11 -0.68,-0.3 -1.06,-0.57l-1.04,1.23c0.92,0.75 2.03,1.13 3.31,1.13c1.12,0 2.03,-0.25 2.72,-0.75c0.68,-0.51 1.03,-1.23 1.03,-2.18c0,-0.66 -0.19,-1.17 -0.57,-1.52c-0.37,-0.35 -0.94,-0.59 -1.7,-0.72c0.63,-0.17 1.1,-0.42 1.4,-0.74c0.3,-0.33 0.45,-0.75 0.45,-1.27c0,-0.76 -0.3,-1.37 -0.91,-1.83zm9.37,7.16c-0.09,-0.15 -0.14,-0.39 -0.14,-0.72l0,-4.02c0,-2.07 -1.08,-3.1 -3.26,-3.1c-0.99,0 -2.01,0.22 -3.07,0.66l0.51,1.44c0.88,-0.32 1.62,-0.47 2.22,-0.47c0.52,0 0.89,0.12 1.12,0.36c0.24,0.24 0.35,0.65 0.35,1.23l0,0.57l-0.92,0c-1.25,0 -2.2,0.27 -2.86,0.79c-0.66,0.53 -0.99,1.29 -0.99,2.28c0,0.85 0.25,1.53 0.73,2.05c0.49,0.52 1.14,0.78 1.96,0.78c1.08,0 1.9,-0.44 2.46,-1.34c0.15,0.42 0.38,0.73 0.69,0.92c0.3,0.2 0.71,0.33 1.2,0.39l0.45,-1.44c-0.2,-0.1 -0.35,-0.22 -0.45,-0.38zm-2.27,-0.85c-0.36,0.75 -0.85,1.12 -1.49,1.12c-0.35,0 -0.62,-0.12 -0.82,-0.35c-0.19,-0.24 -0.29,-0.59 -0.29,-1.05c0,-1.09 0.64,-1.63 1.91,-1.63l0.69,0l0,1.91zm9.17,2.44l2.17,0l0,-9.17l-6.9,0l0,9.17l2.17,0l0,-7.53l2.56,0l0,7.53zm10.82,-9.17l-2.16,0l0,4.05c-0.19,0.24 -0.43,0.42 -0.73,0.57c-0.3,0.14 -0.59,0.21 -0.87,0.21c-0.33,0 -0.58,-0.09 -0.74,-0.27c-0.17,-0.19 -0.25,-0.49 -0.25,-0.92l0,-3.64l-2.16,0l0,3.86c0,0.82 0.2,1.47 0.62,1.93c0.42,0.46 1.02,0.69 1.8,0.69c0.92,0 1.69,-0.32 2.33,-0.95l0,3.64l2.16,0l0,-9.17zm8.71,7.58c-0.09,-0.15 -0.14,-0.39 -0.14,-0.72l0,-4.02c0,-2.07 -1.09,-3.1 -3.26,-3.1c-0.99,0 -2.02,0.22 -3.07,0.66l0.5,1.44c0.88,-0.32 1.62,-0.47 2.22,-0.47c0.52,0 0.9,0.12 1.13,0.36c0.23,0.24 0.35,0.65 0.35,1.23l0,0.57l-0.92,0c-1.25,0 -2.2,0.27 -2.86,0.79c-0.66,0.53 -0.99,1.29 -0.99,2.28c0,0.85 0.24,1.53 0.73,2.05c0.48,0.52 1.14,0.78 1.96,0.78c1.07,0 1.89,-0.44 2.46,-1.34c0.15,0.42 0.38,0.73 0.68,0.92c0.31,0.2 0.71,0.33 1.21,0.39l0.45,-1.44c-0.21,-0.1 -0.36,-0.22 -0.45,-0.38zm-2.27,-0.85c-0.36,0.75 -0.86,1.12 -1.49,1.12c-0.35,0 -0.62,-0.12 -0.82,-0.35c-0.2,-0.24 -0.29,-0.59 -0.29,-1.05c0,-1.09 0.63,-1.63 1.9,-1.63l0.7,0l0,1.91zm9.38,-6.73c-0.44,-0.18 -0.93,-0.26 -1.48,-0.26c-0.79,0 -1.49,0.2 -2.08,0.6c-0.6,0.39 -1.06,0.97 -1.38,1.71c-0.33,0.75 -0.49,1.62 -0.49,2.61c0,1.53 0.35,2.7 1.06,3.53c0.7,0.83 1.68,1.24 2.93,1.24c0.99,0 1.89,-0.35 2.69,-1.06l-0.97,-1.3c-0.3,0.21 -0.58,0.36 -0.82,0.46c-0.24,0.1 -0.51,0.15 -0.8,0.15c-0.59,0 -1.03,-0.23 -1.34,-0.69c-0.31,-0.47 -0.46,-1.25 -0.46,-2.36c0,-1.12 0.15,-1.94 0.46,-2.44c0.31,-0.5 0.75,-0.75 1.34,-0.75c0.57,0 1.11,0.2 1.63,0.62l0.96,-1.27c-0.4,-0.35 -0.81,-0.62 -1.25,-0.79zm8.77,0l-7.3,0l0,1.64l2.52,0l0,7.53l2.16,0l0,-7.53l2.35,0l0.27,-1.64zm7.56,5.25c0.04,-0.48 0.06,-0.78 0.06,-0.88c0,-1.49 -0.33,-2.64 -0.98,-3.44c-0.64,-0.79 -1.55,-1.19 -2.7,-1.19c-1.19,0 -2.12,0.44 -2.78,1.34c-0.67,0.9 -1,2.08 -1,3.56c0,1.51 0.35,2.68 1.04,3.52c0.69,0.85 1.68,1.27 2.96,1.27c1.18,0 2.23,-0.4 3.14,-1.2l-0.9,-1.23c-0.37,0.27 -0.72,0.46 -1.04,0.59c-0.32,0.13 -0.67,0.19 -1.04,0.19c-0.58,0 -1.03,-0.19 -1.35,-0.57c-0.33,-0.38 -0.52,-1.03 -0.59,-1.96l5.18,0zm-2.08,-1.51l0,0.11l-3.1,0c0.04,-0.93 0.2,-1.59 0.46,-1.99c0.26,-0.4 0.63,-0.6 1.12,-0.6c0.53,0 0.92,0.21 1.16,0.62c0.24,0.41 0.36,1.03 0.36,1.86zm10.87,5.43l0,-9.17l-2.28,0l-3,6.95c0.09,-0.33 0.16,-0.79 0.22,-1.35c0.06,-0.57 0.09,-1.19 0.09,-1.87l0,-3.73l-2.05,0l0,9.17l2.27,0l3.04,-6.97c-0.21,0.94 -0.31,2.02 -0.31,3.24l0,3.73l2.02,0zm-5.32,-11.69c0.45,0.42 1.05,0.63 1.8,0.63c0.76,0 1.36,-0.21 1.82,-0.64c0.45,-0.42 0.72,-0.99 0.79,-1.7l-1.25,-0.25c-0.1,0.36 -0.25,0.62 -0.47,0.78c-0.22,0.17 -0.52,0.25 -0.89,0.25c-0.37,0 -0.66,-0.08 -0.87,-0.24c-0.22,-0.15 -0.37,-0.42 -0.48,-0.79l-1.23,0.25c0.07,0.72 0.33,1.3 0.78,1.71zm18.69,10.04l-0.86,0l0,-7.52l-5.64,0l-0.24,3.55c-0.07,0.97 -0.15,1.72 -0.25,2.26c-0.1,0.53 -0.21,0.91 -0.34,1.13c-0.13,0.23 -0.3,0.42 -0.5,0.58l-0.58,0l0,4.39l1.55,0l0.26,-2.74l4.8,0l0.26,2.74l1.54,0l0,-4.39zm-2.91,-6l0,6l-3.28,0c0.32,-0.22 0.56,-0.48 0.75,-0.79c0.18,-0.3 0.33,-0.72 0.43,-1.24c0.11,-0.53 0.19,-1.24 0.26,-2.15l0.12,-1.82l1.72,0zm11.27,-1.52l-5.96,0l-0.28,4.33c-0.07,0.93 -0.14,1.59 -0.21,2c-0.07,0.42 -0.18,0.72 -0.33,0.92c-0.15,0.19 -0.39,0.37 -0.71,0.52l0.54,1.61c0.7,-0.21 1.23,-0.48 1.58,-0.8c0.34,-0.32 0.59,-0.79 0.75,-1.39c0.16,-0.6 0.28,-1.51 0.37,-2.72l0.21,-2.83l1.87,0l0,7.53l2.17,0l0,-9.17zm8.71,0l-2.99,0c-1.22,0 -2.15,0.25 -2.8,0.74c-0.64,0.5 -0.96,1.22 -0.96,2.17c0,1.1 0.45,1.88 1.35,2.36l-1.92,3.9l2.27,0l1.56,-3.36l1.32,0l0,3.36l2.17,0l0,-9.17zm-2.17,4.4l-0.89,0c-0.52,0 -0.89,-0.12 -1.13,-0.35c-0.24,-0.24 -0.36,-0.62 -0.36,-1.14c0,-0.49 0.13,-0.84 0.38,-1.07c0.26,-0.24 0.65,-0.35 1.17,-0.35l0.83,0l0,2.91zm13.23,-4.4c-0.44,-0.18 -0.93,-0.26 -1.47,-0.26c-0.8,0 -1.5,0.2 -2.09,0.6c-0.6,0.39 -1.06,0.97 -1.38,1.71c-0.33,0.75 -0.49,1.62 -0.49,2.61c0,1.53 0.35,2.7 1.06,3.53c0.71,0.83 1.68,1.24 2.93,1.24c0.99,0 1.89,-0.35 2.69,-1.06l-0.97,-1.3c-0.3,0.21 -0.58,0.36 -0.82,0.46c-0.24,0.1 -0.51,0.15 -0.8,0.15c-0.59,0 -1.03,-0.23 -1.34,-0.69c-0.31,-0.47 -0.46,-1.25 -0.46,-2.36c0,-1.12 0.15,-1.94 0.46,-2.44c0.31,-0.5 0.75,-0.75 1.34,-0.75c0.57,0 1.11,0.2 1.63,0.62l0.96,-1.27c-0.39,-0.35 -0.81,-0.62 -1.25,-0.79zm7.3,9.17l2.17,0l0,-9.17l-6.9,0l0,9.17l2.16,0l0,-7.53l2.57,0l0,7.53zm11.37,-3.92c0.04,-0.48 0.06,-0.78 0.06,-0.88c0,-1.49 -0.33,-2.64 -0.97,-3.44c-0.65,-0.79 -1.55,-1.19 -2.71,-1.19c-1.19,0 -2.12,0.44 -2.78,1.34c-0.67,0.9 -1,2.08 -1,3.56c0,1.51 0.35,2.68 1.04,3.52c0.69,0.85 1.68,1.27 2.97,1.27c1.18,0 2.22,-0.4 3.13,-1.2l-0.9,-1.23c-0.37,0.27 -0.71,0.46 -1.04,0.59c-0.32,0.13 -0.67,0.19 -1.04,0.19c-0.58,0 -1.03,-0.19 -1.35,-0.57c-0.32,-0.38 -0.52,-1.03 -0.59,-1.96l5.18,0zm-2.08,-1.51l0,0.11l-3.1,0c0.05,-0.93 0.2,-1.59 0.46,-1.99c0.26,-0.4 0.63,-0.6 1.12,-0.6c0.53,0 0.92,0.21 1.16,0.62c0.24,0.41 0.36,1.03 0.36,1.86zm10.67,3.78l0,-7.52l-2.17,0l0,7.51l-2.48,0l0,-7.51l-2.17,0l0,9.17l6.26,0l0.26,2.74l1.55,0l0,-4.39l-1.25,0zm8.34,-7.52l-7.3,0l0,1.64l2.51,0l0,7.53l2.17,0l0,-7.53l2.34,0l0.28,-1.64zm7.56,5.25c0.03,-0.48 0.05,-0.78 0.05,-0.88c0,-1.49 -0.32,-2.64 -0.97,-3.44c-0.65,-0.79 -1.55,-1.19 -2.7,-1.19c-1.2,0 -2.12,0.44 -2.79,1.34c-0.66,0.9 -0.99,2.08 -0.99,3.56c0,1.51 0.34,2.68 1.04,3.52c0.69,0.85 1.68,1.27 2.96,1.27c1.18,0 2.23,-0.4 3.14,-1.2l-0.9,-1.23c-0.37,0.27 -0.72,0.46 -1.04,0.59c-0.33,0.13 -0.67,0.19 -1.04,0.19c-0.58,0 -1.03,-0.19 -1.36,-0.57c-0.32,-0.38 -0.52,-1.03 -0.59,-1.96l5.19,0zm-2.08,-1.51l0,0.11l-3.11,0c0.05,-0.93 0.2,-1.59 0.46,-1.99c0.26,-0.4 0.64,-0.6 1.12,-0.6c0.53,0 0.92,0.21 1.16,0.62c0.25,0.41 0.37,1.03 0.37,1.86zm7.75,0.52l2.36,-4.26l-2.26,0l-1.37,3.15l-1.4,-3.15l-2.34,0l2.44,4.33l-2.72,4.84l2.31,0l1.64,-3.68l1.7,3.68l2.4,0l-2.76,-4.91zm8.62,4.91l2.17,0l0,-9.17l-2.17,0l0,3.67l-2.62,0l0,-3.67l-2.17,0l0,9.17l2.17,0l0,-3.85l2.62,0l0,3.85zm11.48,0l0,-9.17l-2.29,0l-3,6.95c0.09,-0.33 0.17,-0.79 0.22,-1.35c0.06,-0.57 0.09,-1.19 0.09,-1.87l0,-3.73l-2.05,0l0,9.17l2.28,0l3.03,-6.97c-0.21,0.94 -0.31,2.02 -0.31,3.24l0,3.73l2.03,0zm9.34,-9.17l-2.08,0l-1.91,3.64l-0.9,0l0,-3.64l-2.16,0l0,9.17l2.16,0l0,-4.07l0.85,0l2,4.07l2.27,0l-2.5,-4.92l2.27,-4.25zm8.41,9.17l0,-9.17l-2.29,0l-3,6.95c0.1,-0.33 0.17,-0.79 0.23,-1.35c0.06,-0.57 0.09,-1.19 0.09,-1.87l0,-3.73l-2.05,0l0,9.17l2.27,0l3.04,-6.97c-0.21,0.94 -0.32,2.02 -0.32,3.24l0,3.73l2.03,0z"/>
   </g>
  </g>
 </g>
 <defs>
  <linearGradient y2="12.175" x2="87.875" y1="87.825" x1="12.225" id="svg_20" gradientUnits="userSpaceOnUse">
   <stop offset="0.05" stop-color="#646464"/>
   <stop offset="0.95" stop-color="#242424"/>
  </linearGradient>
 </defs>
</svg>