<svg width="19" height="18" viewBox="0 0 19 18" fill="none" xmlns="http://www.w3.org/2000/svg">
<path d="M14.1944 6.90533C14.4873 6.61244 14.4873 6.13756 14.1944 5.84467C13.9015 5.55178 13.4266 5.55178 13.1337 5.84467L8.03906 10.9393L5.56939 8.46967C5.2765 8.17678 4.80163 8.17678 4.50873 8.46967C4.21584 8.76256 4.21584 9.23744 4.50873 9.53033L7.50873 12.5303C7.80163 12.8232 8.2765 12.8232 8.56939 12.5303L14.1944 6.90533Z" fill="#25D366"/>
<path fill-rule="evenodd" clip-rule="evenodd" d="M18.5391 9C18.5391 13.9706 14.5096 18 9.53906 18C4.5685 18 0.539062 13.9706 0.539062 9C0.539062 4.02944 4.5685 0 9.53906 0C14.5096 0 18.5391 4.02944 18.5391 9ZM17.0391 9C17.0391 13.1421 13.6812 16.5 9.53906 16.5C5.39693 16.5 2.03906 13.1421 2.03906 9C2.03906 4.85786 5.39693 1.5 9.53906 1.5C13.6812 1.5 17.0391 4.85786 17.0391 9Z" fill="#25D366"/>
</svg>
