<svg fill="#fff" xmlns="http://www.w3.org/2000/svg" viewBox="0 0 64 64"><g data-name="19-shipping day"><path d="M9 40h2v2H9zM9 46h2v2H9z"/><path d="m63.781 46.375-4-5A1 1 0 0 0 59 41H49v-1.978c8.7-2.229 14.5-9.79 14.5-19.088A19.982 19.982 0 0 0 28.272 7H15v2h11.774a19.894 19.894 0 0 0-2.633 6H4v2h19.74a19.988 19.988 0 0 0-.24 2.934A20.552 20.552 0 0 0 24.421 26H9v2h16.161a19.678 19.678 0 0 0 2.3 4H10a1 1 0 0 0-1 1v3h2v-2h36v19.413q-.171.285-.315.587h-20.37a6.985 6.985 0 0 0-12.63 0H11v-2H9v3a1 1 0 0 0 1 1h3.08a7 7 0 1 0 13.84 0h19.16a7 7 0 1 0 13.84 0H63a1 1 0 0 0 1-1v-8a1 1 0 0 0-.219-.625ZM20 62a5 5 0 1 1 5-5 5.006 5.006 0 0 1-5 5Zm5.5-42.066a18 18 0 0 1 36 0A17.244 17.244 0 0 1 49 36.958v-.922a16.474 16.474 0 0 0 11.5-16.1 17 17 0 0 0-34 0A16.63 16.63 0 0 0 31.47 32h-1.424A18 18 0 0 1 25.5 19.934ZM34.6 32a14.542 14.542 0 0 1-6.1-12.066 15 15 0 0 1 30 0A14.539 14.539 0 0 1 49 33.941V33a1 1 0 0 0-1-1ZM53 62a5 5 0 1 1 5-5 5.006 5.006 0 0 1-5 5Zm9-8h-2.685A6.977 6.977 0 0 0 49 51.264V43h9.52L62 47.351Z"/><path d="M57 45h-2v3a1 1 0 0 0 1 1h4v-2h-3ZM53 53a4 4 0 1 0 4 4 4 4 0 0 0-4-4Zm0 6a2 2 0 1 1 2-2 2 2 0 0 1-2 2ZM20 53a4 4 0 1 0 4 4 4 4 0 0 0-4-4Zm0 6a2 2 0 1 1 2-2 2 2 0 0 1-2 2ZM54 21v-2h-7.184A3 3 0 0 0 45 17.184V7h-2v10.184A2.993 2.993 0 1 0 46.816 21Zm-10 0a1 1 0 1 1 1-1 1 1 0 0 1-1 1ZM4 37h11v2H4zM0 43h19v2H0zM2 49h13v2H2z"/></g></svg>