<?xml version="1.0" encoding="UTF-8"?>
<!DOCTYPE svg PUBLIC "-//W3C//DTD SVG 1.1//EN" "http://www.w3.org/Graphics/SVG/1.1/DTD/svg11.dtd">
<!-- Creator: CorelDRAW -->
<svg xmlns="http://www.w3.org/2000/svg" xml:space="preserve" width="2.66666in" height="2.66666in" version="1.1" style="shape-rendering:geometricPrecision; text-rendering:geometricPrecision; image-rendering:optimizeQuality; fill-rule:evenodd; clip-rule:evenodd"
viewBox="0 0 2666.66 2666.66"
 xmlns:xlink="http://www.w3.org/1999/xlink"
 xmlns:xodm="http://www.corel.com/coreldraw/odm/2003">
 <defs>
  <style type="text/css">
   <![CDATA[
    .fil1 {fill:#FEFEFE}
    .fil0 {fill:#3695a7}
   ]]>
  </style>
 </defs>
 <g id="Layer_x0020_1">
  <metadata id="CorelCorpID_0Corel-Layer"/>
  <circle class="fil0" cx="1333.33" cy="1333.33" r="1333.33"/>
  <path class="fil1" d="M1875.48 872.58c-22.78,0 -166.44,3.11 -176.43,-2.3 -3.35,-1.78 -5.85,-4.48 -7.5,-7.63 -169.23,-261.06 -548.2,-260.82 -716.99,0.78 -3.68,5.7 -10.02,9.15 -16.8,9.15l-166.56 -0c-14.45,0 -24.3,-14.94 -18.14,-28.44 223.42,-489.91 906.31,-478.62 1120.67,0.26 5.08,11.34 -1.26,27.88 -18.24,28.18z"/>
  <path class="fil1" d="M1869.08 1199.15c-51.8,0 -36.46,-72.6 -38.08,-124.19 -2.51,-79.91 -22.79,-152.2 -58.73,-223.61 -22.3,-44.31 45.04,-78.52 67.48,-33.98 63.49,126.03 67.12,207.78 67.12,344.01 0,20.86 -16.93,37.77 -37.79,37.77zm-1071.51 0c-20.85,0 -37.77,-16.93 -37.77,-37.77 0,-136.6 2.88,-218.04 67.19,-344.17 22.54,-44.2 89.97,-10.12 67.28,34.33 -99.37,194.67 -32.74,306.23 -73.15,339.83 -6.72,5.59 -14.94,7.79 -23.56,7.79zm338.33 916.39c-5.58,0 -11.07,-1.26 -16.12,-3.64 -218.78,-103.39 -360,-326.44 -360,-568.41 0,-49.74 75.54,-49.73 75.54,0 0,212.81 124.22,409.24 316.7,500.11 36.27,17.12 23.93,71.94 -16.13,71.94z"/>
  <path class="fil1" d="M1199.93 2039.64c-47.18,0 -58.71,66.17 -14.29,81.99 16.2,5.77 64.57,25.06 77.63,25.06 47.2,0 58.72,-66.17 14.29,-81.99 -16.17,-5.76 -64.61,-25.05 -77.63,-25.05z"/>
  <path class="fil1" d="M1263.27 2186.65c-22.76,0 -66.33,-18.59 -91.04,-27.37 -102.58,-36.5 -46.45,-191.06 55.09,-154.91l63.63 22.62c86.54,30.78 64,159.66 -27.69,159.66z"/>
  <path class="fil1" d="M723.39 1190.01c-25.83,0 -46.86,21.03 -46.86,46.86l0 237.22c0,25.83 21.01,46.85 46.86,46.85l69.85 0 0 -330.93 -69.85 0z"/>
  <path class="fil1" d="M813.25 1560.95l-89.85 0c-47.89,0 -86.85,-38.97 -86.85,-86.86l0 -237.22c0,-47.89 38.96,-86.86 86.85,-86.86l89.85 0c11.04,0 20,8.96 20,20l0 370.93c0,11.04 -8.96,20.02 -20,20.02z"/>
  <path class="fil1" d="M1873.41 1520.93l69.83 0c25.83,0 46.85,-21.01 46.85,-46.85l0 -237.22c0,-25.83 -21.01,-46.86 -46.85,-46.86l-69.83 0 0 330.93z"/>
  <path class="fil1" d="M1943.24 1560.95l-89.85 0c-11.04,0 -20,-8.97 -20,-20l0 -370.94c0,-11.04 8.97,-20 20,-20l89.85 0c47.89,0 86.86,38.97 86.86,86.86l0 237.22c0,47.89 -38.97,86.86 -86.86,86.86z"/>
  <path class="fil1" d="M1228.56 947.64c-136.33,37.06 -243.9,144.65 -280.95,280.98 42.81,-38.46 109.11,-69.87 191.61,-89.39 19.5,-82.5 50.89,-148.79 89.34,-191.59z"/>
  <path class="fil1" d="M1333.33 933.72c-61.57,0 -119.11,77.68 -150.68,196.63 30.96,-5.42 9.87,-3.56 30.93,-9.58 7.96,-2.77 16.55,-2.98 25.38,1.66 29.15,-5.3 79.26,-4.77 94.35,-4.77 52.82,0 103.19,4.35 149.72,12.37 -29.45,-112.4 -82.39,-196.31 -149.7,-196.31z"/>
  <path class="fil1" d="M1440.39 948.28c38.95,44.55 67.96,112.72 86.09,190.56 81.92,19.2 149.02,50.43 192.4,89.3 -36.96,-135.33 -143.43,-242.26 -278.5,-279.86z"/>
  <path class="fil1" d="M1719.01 1438.1c-42.81,38.45 -109.1,69.84 -191.59,89.34 -19.51,82.48 -50.91,148.78 -89.37,191.59 136.32,-37.05 243.89,-144.62 280.96,-280.93z"/>
  <path class="fil1" d="M1333.31 1549c-52.96,0 -103.46,-4.37 -150.11,-12.44 70.49,265.61 232.41,257.19 300.79,-0.24 -32.39,5.66 -16.17,5.13 -36.25,9.82 -9.32,2.52 -19.35,2.51 -30.56,-0.98 -27.51,2.55 -55.7,3.84 -83.87,3.84z"/>
  <path class="fil1" d="M947.74 1438.52c36.98,135.4 143.55,242.37 278.72,279.92 -38.98,-44.52 -68.16,-112.65 -86.4,-190.63 -81.88,-19.21 -148.95,-50.43 -192.32,-89.29z"/>
  <path class="fil1" d="M1130.34 1182.67c-257.86,68.48 -265.87,230.8 0.74,300.97 -13.17,-75.54 -16.67,-157.4 -9.56,-234.46 -5.64,-18.19 -2.29,-32.86 5.5,-45.9 1.03,-6.96 2.14,-13.83 3.32,-20.61z"/>
  <path class="fil1" d="M1157.97 1309.69c-1.7,63.6 3.88,126.54 15.24,183.66 57.31,11.39 120.49,16.99 184.35,15.33 -78.52,-57 -145.41,-123.69 -199.6,-198.98z"/>
  <path class="fil1" d="M1535.48 1183.99c13.69,78.95 16.86,164.63 8.65,244.13 7.66,14.11 2.95,27.43 -4.91,38.63 -0.92,6.05 -1.89,12.04 -2.93,17.96 255.98,-67.93 268.16,-230.64 -0.81,-300.72z"/>
  <path class="fil1" d="M1329.75 1226.52c0.16,16.9 -14.93,28.59 -27.76,41.42l95.01 95.03c17.47,-17.48 39.71,-43.19 70.86,-15.47l39.19 39.19c4.43,-71.62 -0.9,-146.57 -14.3,-214.49 -67.95,-13.42 -142.91,-18.75 -214.45,-14.25 14.32,14.33 54.35,44.14 51.45,68.58z"/>
  <path class="fil1" d="M1171.21 1251.74c62.42,96.98 145.85,180.4 247.98,247.93 10.44,6.9 24.49,11.45 33.39,2.55l58.32 -58.28 -66.26 -66.26c-19.14,19.14 -38.77,47.57 -57.31,29.01l-123.29 -123.31c-18.9,-18.9 10.63,-38.92 29.01,-57.29l-66.25 -66.25c-9,9 -60.92,65.29 -71.39,67.83 10.26,5.33 8.52,12.78 15.79,24.06z"/>
 </g>
</svg>
