<!-- icon666.com - MILLIONS vector ICONS FREE -->
<svg xmlns="http://www.w3.org/2000/svg" viewBox="0 0 64 64" fill="#EF4B4B">
	<g id="Disount">
		<circle cx="37" cy="37" r="2">
		</circle>
		<circle cx="27" cy="27" r="2">
		</circle>
		<path d="M32,14A18,18,0,1,0,50,32,18.02,18.02,0,0,0,32,14Zm-5,9a4,4,0,1,1-4,4A4.0045,4.0045,0,0,1,27,23ZM25.707,39.707a1,1,0,0,1-1.414-1.414l14-14a1,1,0,0,1,1.414,1.414ZM37,41a4,4,0,1,1,4-4A4.0045,4.0045,0,0,1,37,41Z">
		</path>
		<path d="M60.2144,26.019A5.85,5.85,0,0,1,58.33,20.1606,7.787,7.787,0,0,0,51.3242,10.5a5.7959,5.7959,0,0,1-4.9458-3.6133A7.7449,7.7449,0,0,0,35.0566,3.1938a5.7672,5.7672,0,0,1-6.1147-.0009,7.7454,7.7454,0,0,0-11.32,3.6933,5.8014,5.8014,0,0,1-4.9575,3.6153,7.7864,7.7864,0,0,0-6.99,9.6743,5.8523,5.8523,0,0,1-1.9028,5.8555,7.8133,7.8133,0,0,0,.0141,11.95A5.85,5.85,0,0,1,5.67,43.8394,7.787,7.787,0,0,0,12.6758,53.5a5.7959,5.7959,0,0,1,4.9458,3.6133,7.7449,7.7449,0,0,0,11.3218,3.6929,5.7665,5.7665,0,0,1,6.1132,0l.5342-.8453-.5327.8462a7.7454,7.7454,0,0,0,11.32-3.6933,5.8014,5.8014,0,0,1,4.9575-3.6153,7.7864,7.7864,0,0,0,6.99-9.6743,5.852,5.852,0,0,1,1.9028-5.8554,7.8134,7.8134,0,0,0-.0141-11.95ZM32,52A20,20,0,1,1,52,32,20.023,20.023,0,0,1,32,52Z">
		</path>
	</g>
</svg>
