<svg xmlns="http://www.w3.org/2000/svg" width="24" height="24" viewBox="0 0 24 24">
	<path d="M5.5 11.5C5.08333 11.5 4.72933 11.354 4.438 11.062C4.146 10.7707 4 10.4167 4 10V5.5C4 5.08333 4.146 4.72933 4.438 4.438C4.72933 4.146 5.08333 4 5.5 4H10C10.4167 4 10.7707 4.146 11.062 4.438C11.354 4.72933 11.5 5.08333 11.5 5.5V10C11.5 10.4167 11.354 10.7707 11.062 11.062C10.7707 11.354 10.4167 11.5 10 11.5H5.5ZM5.5 21C5.08333 21 4.72933 20.854 4.438 20.562C4.146 20.2707 4 19.9167 4 19.5V15C4 14.5833 4.146 14.2293 4.438 13.938C4.72933 13.646 5.08333 13.5 5.5 13.5H10C10.4167 13.5 10.7707 13.646 11.062 13.938C11.354 14.2293 11.5 14.5833 11.5 15V19.5C11.5 19.9167 11.354 20.2707 11.062 20.562C10.7707 20.854 10.4167 21 10 21H5.5ZM15 11.5C14.5833 11.5 14.2293 11.354 13.938 11.062C13.646 10.7707 13.5 10.4167 13.5 10V5.5C13.5 5.08333 13.646 4.72933 13.938 4.438C14.2293 4.146 14.5833 4 15 4H19.5C19.9167 4 20.2707 4.146 20.562 4.438C20.854 4.72933 21 5.08333 21 5.5V10C21 10.4167 20.854 10.7707 20.562 11.062C20.2707 11.354 19.9167 11.5 19.5 11.5H15ZM15 21C14.5833 21 14.2293 20.854 13.938 20.562C13.646 20.2707 13.5 19.9167 13.5 19.5V15C13.5 14.5833 13.646 14.2293 13.938 13.938C14.2293 13.646 14.5833 13.5 15 13.5H19.5C19.9167 13.5 20.2707 13.646 20.562 13.938C20.854 14.2293 21 14.5833 21 15V19.5C21 19.9167 20.854 20.2707 20.562 20.562C20.2707 20.854 19.9167 21 19.5 21H15Z" />
</svg>
