<!-- icon666.com - MILLIONS vector ICONS FREE --><svg id="Layer_1" enable-background="new 0 0 500 500" viewBox="0 0 500 500" xmlns="http://www.w3.org/2000/svg"><path clip-rule="evenodd" d="m371.9 94.06c-31.2-31.19-74.3-50.49-121.9-50.49s-90.7 19.3-121.9 50.49c-31.2 31.2-50.49 74.29-50.49 121.9 0 47.6 19.3 90.7 50.49 121.9 31.2 31.2 74.29 50.49 121.9 50.49s90.7-19.3 121.9-50.49c31.2-31.2 50.49-74.29 50.49-121.9 0-47.6-19.3-90.7-50.49-121.9zm-121.9-61.06c50.52 0 96.26 20.48 129.37 53.59s53.59 78.85 53.59 129.38c0 50.52-20.48 96.26-53.59 129.37s-78.85 53.59-129.37 53.59-96.26-20.48-129.37-53.59-53.59-78.85-53.59-129.37 20.48-96.26 53.59-129.38c33.11-33.12 78.85-53.59 129.37-53.59zm-6.36-29.62c.59-.89 1.32-1.6 2.12-2.14 1.25-.82 2.73-1.24 4.24-1.24s2.99.41 4.23 1.24c.8.54 1.53 1.25 2.12 2.14l14.73 22.09c1.62 2.42 4.89 3.07 7.31 1.45.23-.15.44-.32.64-.5l19.84-17.44c.79-.7 1.68-1.19 2.6-1.51 1.44-.49 2.98-.51 4.42-.12 1.45.39 2.77 1.17 3.76 2.3.63.72 1.14 1.59 1.49 2.61l8.51 25.15c.94 2.76 3.93 4.24 6.69 3.31.29-.1.56-.22.81-.35l23.63-11.68c.95-.47 1.92-.72 2.88-.78 1.54-.1 3.04.27 4.33 1.02 1.28.74 2.34 1.84 3.02 3.22.42.86.69 1.83.76 2.88l1.71 26.49c.18 2.91 2.69 5.12 5.6 4.94.24-.01.47-.05.7-.09v.01l26.03-5.2c1.04-.21 2.05-.2 2.99-.01 1.49.3 2.83 1.05 3.88 2.1s1.8 2.4 2.1 3.88c.19.94.2 1.95-.01 2.99l-5.2 26.03c-.57 2.86 1.29 5.65 4.15 6.22.34.07.67.1 1.01.1l26.19 1.69c1.06.07 2.03.34 2.88.76 1.36.67 2.47 1.75 3.22 3.04.74 1.28 1.11 2.78 1.02 4.31-.06.96-.31 1.93-.78 2.88l-11.77 23.8c-1.29 2.61-.22 5.78 2.4 7.07.21.1.42.19.64.27l25.15 8.51c1.02.34 1.89.86 2.61 1.49 1.13.99 1.91 2.31 2.3 3.76.39 1.44.36 2.99-.12 4.42-.31.92-.81 1.81-1.51 2.6l-17.52 19.94c-1.92 2.19-1.69 5.52.5 7.44.17.15.35.29.54.41l22.09 14.73c.89.59 1.6 1.31 2.13 2.11l-.01.01c.84 1.26 1.26 2.75 1.26 4.23 0 1.49-.42 2.97-1.26 4.23-.06.09-.12.18-.17.27-.51.7-1.16 1.33-1.95 1.85l-22.09 14.73c-2.42 1.62-3.07 4.89-1.45 7.31.15.23.32.44.5.64l17.44 19.85c.7.79 1.19 1.67 1.51 2.6.49 1.44.51 2.98.12 4.42-.39 1.45-1.17 2.77-2.3 3.76-.72.63-1.59 1.14-2.61 1.49l-25.15 8.51c-2.76.94-4.24 3.93-3.31 6.69.1.29.22.56.35.81l11.68 23.63c.47.95.72 1.92.78 2.88.1 1.53-.28 3.02-1.02 4.31l-.13.23c-.73 1.18-1.79 2.17-3.09 2.81-.86.42-1.83.69-2.88.76l-26.49 1.71c-2.91.18-5.12 2.69-4.94 5.6.02.24.05.47.09.7h-.01l5.2 26.03c.21 1.04.2 2.05.01 2.99-.3 1.49-1.05 2.83-2.1 3.88s-2.4 1.8-3.88 2.1c-.94.19-1.95.2-2.99-.01l-26.03-5.2c-2.86-.57-5.65 1.29-6.22 4.15-.07.34-.1.67-.1 1.01l-1.69 26.19c-.07 1.06-.34 2.03-.76 2.88-.68 1.37-1.75 2.48-3.02 3.22-1.29.74-2.79 1.12-4.33 1.02-.96-.06-1.93-.31-2.88-.78l-23.8-11.76c-2.61-1.29-5.78-.22-7.07 2.4-.1.21-.19.42-.27.64l-8.51 25.15c-.35 1.02-.86 1.89-1.49 2.61-.99 1.13-2.31 1.91-3.76 2.3-1.44.39-2.99.36-4.42-.12-.92-.31-1.81-.81-2.6-1.5l-19.94-17.52c-2.19-1.92-5.52-1.69-7.44.5-.15.17-.29.35-.41.54l-14.73 22.09c-.59.89-1.32 1.6-2.12 2.14-1.24.83-2.73 1.24-4.23 1.24-1.49 0-2.97-.42-4.23-1.26-.09-.06-.18-.11-.27-.17-.7-.51-1.33-1.16-1.85-1.95l-14.73-22.09c-1.62-2.42-4.89-3.07-7.31-1.45-.23.15-.44.32-.64.5l-19.86 17.45-.01-.01c-.8.7-1.68 1.2-2.58 1.51-1.44.49-2.98.51-4.42.12-1.43-.38-2.76-1.18-3.76-2.32l-.19-.2c-.54-.67-.99-1.47-1.3-2.39l-8.51-25.15c-.94-2.76-3.93-4.24-6.69-3.31-.29.1-.56.22-.81.35l-23.63 11.68c-.95.47-1.92.72-2.88.78-1.53.1-3.03-.27-4.31-1.01l.01-.01c-1.29-.75-2.37-1.86-3.04-3.22-.42-.86-.69-1.83-.76-2.88l-1.71-26.49c-.18-2.91-2.69-5.12-5.6-4.94-.24.02-.47.05-.7.09v-.01l-26.03 5.2c-1.04.21-2.05.2-2.99.01-1.49-.3-2.83-1.05-3.88-2.1s-1.8-2.4-2.1-3.88c-.19-.94-.2-1.95.01-2.99l5.2-26.03c.57-2.86-1.29-5.65-4.15-6.22-.34-.07-.67-.1-1.01-.1l-26.19-1.69c-1.06-.07-2.03-.34-2.88-.76-1.36-.67-2.47-1.75-3.22-3.04-.74-1.28-1.11-2.78-1.02-4.31.06-.96.31-1.93.78-2.88l11.77-23.8c1.29-2.61.22-5.78-2.4-7.07-.21-.1-.42-.19-.64-.27l-25.15-8.51c-1.02-.34-1.89-.86-2.61-1.49-1.13-.99-1.91-2.31-2.3-3.76-.39-1.44-.36-2.99.12-4.42.31-.92.81-1.81 1.51-2.6l17.52-19.94c1.92-2.19 1.69-5.52-.5-7.44-.17-.15-.35-.29-.54-.41l-22.09-14.73c-.89-.59-1.6-1.31-2.13-2.11l.01-.01c-.84-1.26-1.26-2.75-1.26-4.23h-.02c0-1.47.43-2.95 1.29-4.23.06-.09.12-.18.17-.27.51-.7 1.16-1.33 1.95-1.85l22.09-14.73c2.42-1.62 3.07-4.89 1.45-7.31-.15-.23-.32-.44-.5-.64l-17.44-19.85c-.7-.79-1.19-1.68-1.51-2.6-.49-1.44-.51-2.98-.12-4.42.39-1.45 1.17-2.77 2.3-3.76.72-.63 1.59-1.14 2.61-1.49l25.15-8.51c2.76-.94 4.24-3.93 3.31-6.69-.1-.29-.22-.56-.35-.81l-11.68-23.63c-.47-.95-.72-1.92-.78-2.88-.1-1.53.28-3.02 1.02-4.31l.13-.23c.73-1.18 1.79-2.17 3.09-2.81.86-.42 1.83-.69 2.88-.76l26.49-1.71c2.91-.18 5.12-2.69 4.94-5.6-.01-.24-.05-.47-.09-.7h.01l-5.2-26.03c-.21-1.04-.2-2.05-.01-2.99.3-1.49 1.05-2.83 2.1-3.88s2.4-1.8 3.88-2.1c.94-.19 1.95-.2 2.99.01l26.03 5.2c2.86.57 5.65-1.29 6.22-4.15.07-.34.1-.67.1-1.01l1.69-26.19c.07-1.06.34-2.03.76-2.88.68-1.37 1.75-2.48 3.02-3.22l.02-.01.01.01c1.28-.74 2.78-1.11 4.31-1.02.96.06 1.93.31 2.88.78l23.8 11.76c2.61 1.29 5.78.22 7.07-2.4.1-.21.19-.42.27-.64l8.51-25.15c.35-1.02.86-1.89 1.49-2.61.99-1.13 2.31-1.91 3.76-2.3 1.44-.39 2.99-.36 4.42.12.92.31 1.81.81 2.6 1.51l19.94 17.52c2.19 1.92 5.52 1.69 7.44-.5.15-.17.29-.35.41-.54zm-66.65 414.15-51.97 82.47-38.41-43.2c-1.27-1.43-3.15-2-4.9-1.68l-66.53 9.68 71.25-113.06-1.6 7.99c-.49 2.45-.46 4.86-.01 7.12.72 3.59 2.5 6.8 4.99 9.3 2.49 2.49 5.71 4.27 9.3 4.99 2.27.45 4.67.48 7.12-.01l20.12-4.02 1.32 20.46c.16 2.5.81 4.82 1.84 6.89 1.62 3.28 4.17 5.92 7.22 7.68l.01-.01.02.01c3.06 1.76 6.61 2.66 10.24 2.42 2.31-.15 4.64-.75 6.89-1.86l18.4-9.09zm236.58-65.8 71.25 113.06-66.53-9.68c-1.75-.32-3.63.25-4.9 1.68l-38.41 43.21-51.97-82.47 4.71-13.93 18.4 9.09c2.24 1.11 4.58 1.71 6.89 1.86 3.62.23 7.18-.66 10.24-2.42 3.07-1.77 5.62-4.41 7.24-7.68 1.03-2.07 1.67-4.39 1.84-6.89l1.32-20.46 20.12 4.02c2.45.49 4.86.46 7.12.01 3.59-.72 6.8-2.5 9.3-4.99 2.49-2.49 4.27-5.71 4.99-9.3.45-2.27.48-4.67-.01-7.12zm-59.88-239.46c26.54 26.54 42.95 63.2 42.95 103.69s-16.41 77.15-42.95 103.69-63.2 42.95-103.69 42.95-77.15-16.41-103.69-42.95-42.95-63.2-42.95-103.69 16.41-77.15 42.95-103.69 63.2-42.95 103.69-42.95 77.15 16.41 103.69 42.95zm-103.69-53.53c43.41 0 82.72 17.6 111.17 46.05s46.05 67.75 46.05 111.17c0 43.41-17.6 82.72-46.05 111.17s-67.75 46.05-111.17 46.05c-43.41 0-82.72-17.6-111.17-46.05s-46.05-67.75-46.05-111.17c0-43.41 17.6-82.72 46.05-111.17s67.76-46.05 111.17-46.05zm49.44 225.75h-100.57c-2.53 6.27-6.82 10.37-11.63 12.4-3.1 1.31-6.38 1.75-9.55 1.35-3.19-.4-6.29-1.63-8.98-3.66-5.06-3.82-8.67-10.42-8.67-19.49v-102.77c0-10.05 4.21-16.63 9.9-20.09 2.72-1.65 5.74-2.56 8.79-2.77 3.01-.2 6.05.27 8.87 1.37 5.01 1.96 9.31 5.88 11.39 11.49l.47.02c5.44.29 12.34.65 13.46-2.03l20.01-47.9c1.03-2.47 2.44-4.62 4.14-6.44 3.05-3.29 6.99-5.45 11.19-6.36s8.68-.57 12.81 1.16c2.29.96 4.47 2.34 6.43 4.16 16.92 15.72 12.29 30.33 2.85 57.24h43.49c1.78 0 3.56.19 5.34.56 6.03 1.24 11.22 4.52 14.9 9.03 3.68 4.52 5.86 10.25 5.86 16.39 0 1.7-.18 3.48-.56 5.33l-14.41 70.17c-1.26 6.11-4.52 11.32-9.03 15-4.53 3.69-10.28 5.84-16.5 5.84zm-109.66-6c-1.29 4.65-3.82 7.5-6.63 8.68-1.33.56-2.77.75-4.18.57-1.38-.17-2.72-.71-3.9-1.6-2.6-1.96-4.46-5.67-4.46-11.06v-102.76c0-5.83 2.05-9.4 4.82-11.09 1.21-.74 2.59-1.14 4-1.24 1.46-.1 2.95.13 4.33.67 2.86 1.12 5.23 3.62 5.84 7.27zm10.37-105.55c8.49.43 18.72.53 22.53-8.58l20.01-47.9c.53-1.28 1.25-2.38 2.11-3.3 1.54-1.66 3.55-2.76 5.7-3.22 2.15-.47 4.43-.29 6.53.58 1.16.49 2.28 1.19 3.29 2.13 12.26 11.39 7.81 24.04-.57 47.9l-1.67 4.77c-.29.65-.45 1.38-.45 2.14 0 2.92 2.37 5.29 5.29 5.29h50.93c1.17 0 2.25.11 3.23.31 3.57.73 6.64 2.68 8.82 5.35s3.46 6.08 3.46 9.74c0 1.11-.1 2.19-.31 3.23l-14.41 70.17c-.75 3.65-2.68 6.75-5.35 8.93-2.66 2.17-6.09 3.44-9.84 3.44h-99.13z" fill="#00aeef" fill-rule="evenodd"></path></svg>