<svg xmlns="http://www.w3.org/2000/svg" width="24" height="24" viewBox="0 0 24 24">
	<path d="M5.8 11.75C5.3 11.75 4.875 11.575 4.525 11.225C4.175 10.875 4 10.45 4 9.95V7.8C4 7.3 4.175 6.875 4.525 6.525C4.875 6.175 5.3 6 5.8 6H19.2C19.7 6 20.125 6.175 20.475 6.525C20.825 6.875 21 7.3 21 7.8V9.95C21 10.45 20.825 10.875 20.475 11.225C20.125 11.575 19.7 11.75 19.2 11.75H5.8ZM5.8 19C5.3 19 4.875 18.825 4.525 18.475C4.175 18.125 4 17.7 4 17.2V15.05C4 14.55 4.175 14.125 4.525 13.775C4.875 13.425 5.3 13.25 5.8 13.25H19.2C19.7 13.25 20.125 13.425 20.475 13.775C20.825 14.125 21 14.55 21 15.05V17.2C21 17.7 20.825 18.125 20.475 18.475C20.125 18.825 19.7 19 19.2 19H5.8Z" />
</svg>
