<!-- icon666.com - MILLIONS vector ICONS FREE --><svg id="Layer_1" viewBox="0 0 300 300" xmlns="http://www.w3.org/2000/svg" xmlns:xlink="http://www.w3.org/1999/xlink" data-name="Layer 1"><linearGradient id="linear-gradient" gradientUnits="userSpaceOnUse" x1="90.24" x2="215.49" y1="90.5" y2="239.77"><stop offset="0" stop-color="#ffe800"></stop><stop offset="1" stop-color="#ffb500"></stop></linearGradient><linearGradient id="linear-gradient-2" x1="53.58" x2="246.42" xlink:href="#linear-gradient" y1="35.09" y2="264.91"></linearGradient><path d="m162.05 61.73 17.54 35.53a26.17 26.17 0 0 0 19.68 14.3l39.21 5.69a13.45 13.45 0 0 1 7.45 22.93l-28.37 27.66a26.08 26.08 0 0 0 -7.56 23.16l6.7 39.05a13.45 13.45 0 0 1 -19.51 14.17l-35.07-18.44a26.14 26.14 0 0 0 -24.32 0l-35.07 18.44a13.45 13.45 0 0 1 -19.47-14.22l6.74-39a26.08 26.08 0 0 0 -7.52-23.13l-28.41-27.69a13.45 13.45 0 0 1 7.45-22.93l39.21-5.69a26.17 26.17 0 0 0 19.68-14.3l17.59-35.53a13.44 13.44 0 0 1 24.05 0z" fill="url(#linear-gradient)"></path><path d="m150 6.6a143.4 143.4 0 0 1 101.4 244.8 143.4 143.4 0 0 1 -202.8-202.8 142.5 142.5 0 0 1 101.4-42m0-6.6a150 150 0 1 0 150 150 150 150 0 0 0 -150-150z" fill="url(#linear-gradient-2)"></path></svg>