<?xml version="1.0" encoding="UTF-8"?>
<svg id="Layer_1" data-name="Layer 1" xmlns="http://www.w3.org/2000/svg" viewBox="0 0 48 48" fill="#FF4141">
	<path class="cls-1" d="M45.673,36.505L28.33,6.498c-.904-1.564-2.522-2.498-4.33-2.498s-3.426.934-4.33,2.498L2.327,36.506c-.903,1.563-.903,3.43,0,4.994.903,1.565,2.522,2.5,4.331,2.5h34.686c1.809,0,3.428-.935,4.331-2.5.902-1.564.902-3.431,0-4.995ZM22.564,15h2.871c.577,0,1.034.487.998,1.062l-.875,14c-.033.527-.47.938-.998.938h-1.121c-.528,0-.965-.411-.998-.938l-.875-14c-.036-.576.421-1.062.998-1.062ZM24,38c-1.381,0-2.5-1.119-2.5-2.5s1.119-2.5,2.5-2.5,2.5,1.119,2.5,2.5-1.119,2.5-2.5,2.5Z" />
</svg>
