<svg xmlns="http://www.w3.org/2000/svg" width="64" height="64"><path d="M11.993 36.007a1 1-45.001 1 0 1.414-1.414 1 1-45.001 1 0-1.414 1.414zM24 14c4.4 0 8.1 2.8 9.4 6.7l.3 1c.2.5.7.8 1.2.7.5-.2.8-.7.7-1.2v-.1l-.3-.9v-.1s0-.1-.1-.1c-1.6-4.8-6-8-11.2-8-6.6 0-12 5.4-12 12s5.4 12 12 12c5.2 0 9.6-3.3 11.3-7.8 0 0 0-.1.1-.2v-.1c0-.1.1-.2.1-.3l.2-.5c.2-.5-.1-1.1-.7-1.2-.5-.2-1.1.1-1.2.7l-.2.8C32.1 31.2 28.4 34 24 34c-5.5 0-10-4.5-10-10s4.5-10 10-10zm18.9 23.2-2.2 2.2-4.1-4.1c5.9-6.7 5.7-16.9-.7-23.3-6.6-6.6-17.4-6.6-24 0-5.1 5.1-6.3 12.7-3.5 18.9 0 .1 0 .1.1.2l.5.8c.2.5.8.7 1.3.5.5-.2.7-.8.5-1.3l-.3-.6C7.8 24.9 8.8 18 13.4 13.4c5.9-5.9 15.4-5.9 21.2 0 5.9 5.9 5.9 15.4 0 21.2-4.6 4.6-11.5 5.6-17.1 2.9 0 0-.1 0-.1-.1l-.9-.4c-.5-.3-1.1-.1-1.4.4-.3.5-.1 1.1.4 1.4l.5.2c.1.1.3.2.4.2 6.1 3 13.5 2.1 18.8-2.6l4.1 4.1-2.1 2.1 1.4 1.4L50 55.5l1.4 1.4 1.4-1.4 2.8-2.8 1.4-1.4-14.1-14.1zm8.5 16.9L40.1 42.8l2.8-2.8 11.3 11.3-2.8 2.8z"/></svg>