<svg width="50" height="50" fill="#e5e5e5" xmlns="http://www.w3.org/2000/svg">
	<path d="M46 37h-2v-2h2c.6 0 1-.5 1-1v-6.8c0-.8-.3-1.2-1-1.2h-1.6l-3.7-6.6c-.1-.2-.4-.4-.8-.4H32v-2h7.9c1 0 1.9.5 2.5 1.3l3.2 5.7h.4c1.8 0 3 1.3 3 3.2V34c0 1.7-1.3 3-3 3Z" />
	<path d="M33 37H16v-2h15V11H18V9h15v28ZM8 35H3v2h5v-2ZM40 41c-2.8 0-5-2.2-5-5s2.2-5 5-5 5 2.2 5 5-2.2 5-5 5Zm0-8c-1.7 0-3 1.3-3 3s1.3 3 3 3 3-1.3 3-3-1.3-3-3-3Z" />
	<path d="M12 41c-2.8 0-5-2.2-5-5s2.2-5 5-5 5 2.2 5 5-2.2 5-5 5Zm0-8c-1.7 0-3 1.3-3 3s1.3 3 3 3 3-1.3 3-3-1.3-3-3-3ZM36 35h-4v2h4v-2ZM41.2 27H34v-2h6.8l2-1H45v2h-1.8l-2 1ZM18 24H1v2h17v-2ZM27 14H4v2h23v-2ZM25 19H10v2h15v-2ZM8 19H6v2h2v-2ZM16 9h-2v2h2V9Z" />
</svg>
