<svg xmlns="http://www.w3.org/2000/svg" width="64" height="64"><path d="M38.001 55h-1.998A1 1 0 0 1 35 54.007V14.993A.991.991 0 0 1 36.003 14h4.994a1 1 0 0 1 1.003.993V35a1 1 0 0 0 2 0V14.993A3 3 0 0 0 40.997 12h-4.994A2.991 2.991 0 0 0 33 14.993v39.014A3 3 0 0 0 36.003 57H38a1 1 0 0 0 0-2zM27.997 16h-4.994A2.999 2.999 0 0 0 20 19.009V53.99A3 3 0 0 0 23.003 57h4.994A2.999 2.999 0 0 0 31 53.991V19.01A3 3 0 0 0 27.997 16zM29 53.991A.999.999 0 0 1 27.997 55h-4.994A1 1 0 0 1 22 53.991V19.01A.999.999 0 0 1 23.003 18h4.994A1 1 0 0 1 29 19.009zM14.997 22h-4.994A2.993 2.993 0 0 0 7 24.996V41a1 1 0 0 0 2 0V24.996A.993.993 0 0 1 10.003 24h4.994a.995.995 0 0 1 1.003.996v29.008a.993.993 0 0 1-1.003.996h-4.994A.995.995 0 0 1 9 54.004V49a1 1 0 0 0-2 0v5.004A2.995 2.995 0 0 0 10.003 57h4.994A2.993 2.993 0 0 0 18 54.004V24.996A2.995 2.995 0 0 0 14.997 22zM47 37a10 10 0 1 0 10 10 10 10 0 0 0-10-10zm0 18a8 8 0 1 1 8-8 8 8 0 0 1-8 8zm3.01-12h-4.02a1 1 0 0 0 0 2h1.596l-3.881 3.88a1 1 0 0 0 1.414 1.415L49 46.415v1.594a1 1 0 0 0 2 0v-4.018a.973.973 0 0 0-.296-.701.985.985 0 0 0-.695-.29zM7 45a1 1 0 1 0 2 0 1 1 0 1 0-2 0z"/></svg>