<svg xmlns="http://www.w3.org/2000/svg" fill="#e5e5e5" width="64" height="64">
	<path d="M19 34a2 2 0 1 0 4 0 2 2 0 1 0-4 0zm38.006-.863a3.056 3.056 0 0 0-.007-.09L57 33a1 1 0 0 0-2 0 1.015 1.015 0 0 0 .019.196h-.013l.004.05a3.357 3.357 0 0 1-.255 1.535 2.002 2.002 0 0 1-1.845 1.173 15.037 15.037 0 0 0-5.515-9.7 1.03 1.03 0 0 0-.088-.08l-.635-.514a1.03 1.03 0 0 0-.158-.105l-.035-.027-.003.007a1 1 0 0 0-1.063 1.68l.21.168-.004.006A12.943 12.943 0 0 1 51 37.5c0 4.579-2.781 8.662-7.125 11.32L45.291 55h-5l-.944-4.124q-.9.288-1.845.507a24.849 24.849 0 0 1-10.69.07L26 55h-5l1.167-5.09A16.47 16.47 0 0 1 14.44 43H17a1 1 0 0 0 0-2H9.996A.992.992 0 0 1 9 39.997v-4.994A.999.999 0 0 1 9.996 34h3.561A14.295 14.295 0 0 1 19 26.925v-5.939l4.182 3.667a22.518 22.518 0 0 1 3.264-1.024 1.02 1.02 0 0 0 .137-.027l.105-.028.312-.067v-.016l.373-.1a1 1 0 1 0-.518-1.932l-.79.211a1.03 1.03 0 0 0-.139.048c-.784.21-1.57.468-2.265.695l-3.343-2.93L17 16.572v9.37A16.417 16.417 0 0 0 12.197 32H9.996A2.999 2.999 0 0 0 7 35.003v4.994A2.992 2.992 0 0 0 9.996 43h2.203a17.53 17.53 0 0 0 7.672 7.973L18.49 57h9.104l.746-3.258A26.86 26.86 0 0 0 32 54a26.523 26.523 0 0 0 5.896-.657c.218 1.04.802 3.657.802 3.657h9.104l-1.67-7.284c4.169-2.974 6.71-7.178 6.86-11.778a4.287 4.287 0 0 0 3.628-2.511 4.896 4.896 0 0 0 .386-2.29zM39 8a1 1 0 1 0 2 0 1 1 0 1 0-2 0zm-2 21a8.001 8.001 0 0 0 3.998-14.931L41 14v-3a1 1 0 0 0-2 0v2.252a8.062 8.062 0 0 0-4 0V9.991a1 1 0 0 0-2 0v4.018c0 .02 0 .04.002.06A8.001 8.001 0 0 0 37 29zm0-14a6 6 0 1 1-6 6 6 6 0 0 1 6-6zm-1.293 9.21h1.211v-1H39v-1h-2.082v-1.03h.52a2.464 2.464 0 0 0 1.638-.489 1.746 1.746 0 0 0 .576-1.41 1.63 1.63 0 0 0-.54-1.334 2.426 2.426 0 0 0-1.58-.447h-1.825v4.71H34v1h1.707zm1.211-5.718h.55a1.089 1.089 0 0 1 .73.203.792.792 0 0 1 .232.63.772.772 0 0 1-.278.642 1.327 1.327 0 0 1-.836.22h-.398z" />
</svg>
