<svg xmlns="http://www.w3.org/2000/svg" width="64" height="64"><path d="M43.998 48h-9.995a1 1 0 1 0 0 2h9.995a1 1 0 1 0 0-2zM47 49a1 1 0 1 0 2 0 1 1 0 1 0-2 0zm9.01-1h-4.02a1 1 0 0 0 0 2h4.02a1 1 0 0 0 0-2zM30 48H8a1 1 0 1 0 0 2h22a1 1 0 1 0 0-2zm-18.993-1h11.986A1 1 0 0 0 24 46.005v-8.01A1.008 1.008 0 0 0 22.993 37H11.007a1 1 0 0 0-1.007.995v8.01a1.008 1.008 0 0 0 1.007.995zM12 45v-6h10v6zm14.007-8a1 1 0 0 0-1.007.995v8.01a1.008 1.008 0 0 0 1.007.995h11.986A1 1 0 0 0 39 46.005v-8.01A1.008 1.008 0 0 0 37.993 37zM37 39v6H27v-6zm3-1.005v8.01a1.008 1.008 0 0 0 1.007.995h11.986A1 1 0 0 0 54 46.005v-8.01A1.008 1.008 0 0 0 52.993 37H41.007a1 1 0 0 0-1.007.995zM42 39h10v6H42zm-23.993-3h11.986A1 1 0 0 0 31 35.005v-8.01A1.008 1.008 0 0 0 29.993 26H18.007a1 1 0 0 0-1.007.995v8.01a1.008 1.008 0 0 0 1.007.995zM19 34v-6h10v6zm13-7.005v8.01a1.008 1.008 0 0 0 1.007.995h11.986A1 1 0 0 0 46 35.005v-8.01A1.008 1.008 0 0 0 44.993 26H33.007a1 1 0 0 0-1.007.995zM34 28h10v6H34zm-7.993-3h11.986A1 1 0 0 0 39 24.005v-8.01A1.008 1.008 0 0 0 37.993 15H26.007a1 1 0 0 0-1.007.995v8.01a1.008 1.008 0 0 0 1.007.995zM27 23v-6h10v6z"/></svg>