<?xml version="1.0" encoding="utf-8"?>
<!DOCTYPE svg PUBLIC "-//W3C//DTD SVG 20010904//EN" "http://www.w3.org/TR/2001/REC-SVG-20010904/DTD/svg10.dtd">
<svg version="1.0" xmlns="http://www.w3.org/2000/svg" width="514pt" height="514pt" viewBox="0 0 514 514" style="" preserveAspectRatio="xMidYMid meet">
<g fill="#A2A2A2FF" stroke="#A2A2A2FF">
<path d="M 112.500 90.426 C 110.300 91.750 107.600 94.333 106.500 96.166 C 104.578 99.370 104.481 101.755 104.000 157.500 L 103.500 215.500 96.025 215.798 C 87.455 216.140 84.992 217.618 85.015 222.405 C 85.051 229.558 86.776 229.999 114.684 230.004 C 148.786 230.009 147.373 228.728 147.773 260.000 C 147.924 271.825 148.268 282.504 148.538 283.732 C 149.248 286.962 154.942 293.078 158.702 294.649 C 161.133 295.664 168.215 295.996 187.218 295.984 C 211.598 295.968 212.642 295.887 216.484 293.711 C 219.527 291.988 224.399 286.053 237.110 268.586 C 246.263 256.009 254.468 245.318 255.343 244.828 C 256.218 244.338 262.461 244.064 269.217 244.219 L 281.500 244.500 272.205 250.408 C 260.931 257.575 258.500 260.618 258.500 267.561 C 258.500 272.003 259.161 273.630 263.903 280.852 C 269.836 289.889 272.760 292.489 278.122 293.495 C 282.971 294.405 286.035 292.965 303.398 281.617 C 311.491 276.328 318.468 272.000 318.902 272.000 C 319.335 272.000 320.435 272.823 321.345 273.829 C 322.727 275.355 323.000 278.080 323.000 290.329 C 323.000 298.398 322.663 305.000 322.250 304.999 C 321.838 304.999 319.250 304.146 316.500 303.102 C 282.410 290.171 242.677 311.433 233.810 347.350 L 231.675 356.000 181.837 356.000 L 132.000 356.000 132.000 353.426 C 132.000 352.011 130.842 347.403 129.426 343.186 C 122.787 323.406 108.571 309.254 88.490 302.433 C 81.857 300.180 78.717 299.711 70.000 299.675 C 50.941 299.597 37.852 305.026 24.250 318.650 L 16.000 326.914 16.000 290.692 L 16.000 254.470 28.264 242.235 L 40.529 230.000 49.810 230.000 C 58.330 230.000 59.292 229.799 61.545 227.545 C 62.895 226.195 64.000 224.366 64.000 223.480 C 64.000 221.516 62.102 217.768 60.600 216.765 C 58.896 215.627 38.474 215.869 35.330 217.065 C 32.016 218.325 5.580 244.164 3.168 248.500 C 1.702 251.137 1.463 256.429 1.198 292.202 C 0.879 335.310 1.156 338.654 5.462 343.773 C 7.572 346.280 7.758 347.124 6.960 350.568 C 5.560 356.602 5.859 370.775 7.535 377.886 C 11.460 394.537 24.196 410.762 39.614 418.754 C 49.597 423.929 57.912 425.970 69.000 425.970 C 86.862 425.970 100.786 420.211 113.603 407.522 C 122.665 398.552 127.811 389.587 130.880 377.423 L 132.627 370.500 182.203 370.241 L 231.779 369.981 233.349 376.936 C 238.538 399.914 257.490 419.130 280.255 424.498 C 288.333 426.403 301.767 426.378 310.000 424.443 C 327.588 420.310 344.097 407.072 351.775 390.944 C 356.911 380.157 358.404 373.695 358.347 362.500 C 358.294 352.037 356.328 343.583 351.899 334.775 C 348.582 328.180 339.493 316.000 337.888 316.000 C 337.331 316.000 337.060 309.856 337.224 300.909 L 337.500 285.818 353.240 297.956 C 361.897 304.632 369.434 310.943 369.990 311.981 C 370.577 313.077 371.000 322.530 371.000 334.530 C 371.000 353.662 371.150 355.401 373.022 358.030 C 374.364 359.916 380.774 363.830 392.108 369.685 C 408.642 378.226 409.249 378.650 411.647 383.338 C 418.691 397.103 435.879 405.768 450.750 403.050 C 457.692 401.782 462.613 399.387 488.433 384.716 C 499.396 378.487 509.259 372.195 510.350 370.733 C 512.796 367.457 512.997 360.171 510.737 356.721 C 509.180 354.346 448.940 301.035 444.027 297.686 C 439.856 294.842 433.925 295.513 428.000 299.500 C 425.139 301.425 422.489 303.000 422.110 303.000 C 421.732 303.000 418.998 297.064 416.037 289.810 C 412.600 281.392 409.414 275.250 407.231 272.834 C 402.997 268.148 387.472 259.002 383.750 259.001 C 377.718 258.999 374.777 266.638 379.250 270.689 C 380.488 271.810 384.767 274.611 388.759 276.913 C 392.752 279.216 396.662 282.089 397.448 283.300 C 398.234 284.510 401.426 291.773 404.540 299.441 C 409.775 312.329 410.119 313.659 409.101 317.057 C 408.458 319.204 408.000 329.102 408.000 340.866 C 408.000 351.940 407.627 361.000 407.170 361.000 C 406.714 361.000 401.564 358.505 395.726 355.457 L 385.112 349.913 384.806 329.207 C 384.543 311.388 384.239 307.975 382.630 304.737 C 381.151 301.760 371.855 294.163 338.130 268.366 C 314.683 250.432 294.600 234.887 293.500 233.823 C 291.504 231.892 291.507 231.881 294.766 228.944 C 296.562 227.325 298.929 226.000 300.026 226.000 C 301.123 226.000 313.137 232.525 326.722 240.500 C 352.504 255.634 355.917 256.960 359.345 253.171 C 361.728 250.538 361.439 245.746 358.750 243.313 C 357.513 242.194 345.475 234.826 332.000 226.939 C 308.900 213.420 307.152 212.578 301.406 212.194 C 296.992 211.899 294.374 212.259 291.906 213.501 C 287.713 215.611 279.352 223.533 277.396 227.250 C 276.028 229.849 275.565 230.000 268.974 230.000 L 262.000 230.000 262.000 221.961 C 262.000 191.770 253.125 159.653 237.346 132.737 L 232.789 124.964 234.516 121.325 C 238.480 112.971 242.000 103.567 242.000 101.330 C 242.000 97.162 239.236 92.114 235.810 90.026 C 232.590 88.062 230.919 88.008 174.500 88.013 L 116.500 88.019 112.500 90.426 M 315.295 318.235 C 342.821 331.333 352.487 364.370 336.176 389.607 C 319.232 415.822 282.211 419.478 260.190 397.112 C 240.745 377.363 241.511 345.544 261.882 326.846 C 272.203 317.373 281.933 313.887 297.000 314.264 C 306.776 314.508 308.038 314.782 315.295 318.235 M 84.282 316.078 C 92.364 318.779 98.594 322.812 104.669 329.278 C 114.135 339.353 118.000 348.923 118.000 362.287 C 118.000 375.807 113.912 386.576 105.161 396.110 C 86.385 416.567 54.365 417.148 34.609 397.391 C 8.676 371.459 19.005 328.200 53.977 316.276 C 62.818 313.261 75.602 313.178 84.282 316.078 M 223.039 136.750 C 231.827 150.469 240.884 173.080 244.368 190.000 C 246.196 198.874 247.998 216.807 247.999 226.135 C 248.000 232.040 247.735 232.943 245.594 234.347 C 244.270 235.214 235.882 245.953 226.954 258.212 C 218.026 270.470 210.221 280.831 209.610 281.235 C 209.000 281.639 207.038 281.976 205.250 281.985 L 202.000 282.000 202.000 254.178 C 202.000 231.274 201.715 225.485 200.386 221.428 C 199.006 217.216 196.463 214.226 182.886 200.853 L 167.000 185.205 167.000 158.603 L 167.000 132.000 193.498 132.000 L 219.996 132.000 223.039 136.750 M 153.022 159.750 C 153.042 184.506 153.242 187.936 154.879 191.540 C 156.064 194.149 161.729 200.352 170.860 209.040 C 178.640 216.443 185.679 223.918 186.503 225.651 C 187.716 228.205 188.000 233.847 188.000 255.401 L 188.000 282.000 176.200 282.000 C 168.356 282.000 163.998 281.598 163.200 280.800 C 162.346 279.946 162.000 273.796 162.000 259.482 C 162.000 236.361 161.124 231.841 155.328 225.070 C 153.275 222.672 149.348 219.674 146.556 218.374 C 142.155 216.324 139.978 216.018 129.750 216.010 L 118.000 216.000 118.000 174.000 L 118.000 132.000 135.500 132.000 L 153.000 132.000 153.022 159.750 M 467.341 336.595 C 483.379 350.672 496.609 362.485 496.742 362.845 C 496.876 363.205 486.999 369.103 474.794 375.951 C 454.965 387.076 451.996 388.445 446.907 388.813 C 439.690 389.335 434.805 387.720 429.713 383.129 C 422.421 376.556 422.047 374.793 422.022 346.937 L 422.000 322.374 424.750 319.815 C 428.429 316.391 436.068 311.000 437.241 311.000 C 437.759 311.000 451.304 322.518 467.341 336.595 M 227.000 102.434 C 227.000 104.012 221.387 115.733 220.145 116.750 C 218.968 117.713 207.075 118.000 168.309 118.000 L 118.000 118.000 118.000 111.200 C 118.000 107.244 118.502 103.898 119.200 103.200 C 120.103 102.297 133.578 102.000 173.700 102.000 C 203.015 102.000 227.000 102.195 227.000 102.434 M 301.336 258.000 C 303.867 259.925 305.952 261.774 305.969 262.110 C 306.011 262.928 281.685 279.008 280.461 278.972 C 279.553 278.945 273.000 268.924 273.000 267.562 C 273.000 266.214 294.429 253.142 295.553 253.805 C 296.202 254.187 298.804 256.075 301.336 258.000 "/></g>
<g fill="#A2A2A2FF" stroke="#A2A2A2FF">
<path d="M 283.218 339.579 C 267.737 347.293 264.232 368.217 276.307 380.838 C 280.889 385.627 286.520 388.192 293.721 388.770 C 299.304 389.218 300.710 388.925 306.387 386.130 C 316.363 381.219 321.016 373.773 320.978 362.782 C 320.925 347.676 310.175 337.032 294.946 337.010 C 289.893 337.002 287.208 337.590 283.218 339.579 M 301.033 352.517 C 310.183 357.248 307.798 372.005 297.465 374.598 C 293.643 375.557 287.853 372.902 285.180 368.964 C 278.443 359.041 290.153 346.891 301.033 352.517 "/></g>
<g fill="#A2A2A2FF" stroke="#A2A2A2FF">
<path d="M 59.242 338.494 C 53.112 341.159 49.059 345.134 45.870 351.613 C 43.073 357.294 42.782 358.693 43.231 364.295 C 44.309 377.725 53.542 387.375 66.602 388.723 C 82.217 390.334 95.031 378.744 94.978 363.054 C 94.926 347.564 84.353 336.980 69.000 337.049 C 65.425 337.065 61.034 337.715 59.242 338.494 M 75.033 352.517 C 78.631 354.378 81.000 358.724 81.000 363.465 C 81.000 366.129 80.135 367.973 77.577 370.765 C 74.595 374.019 73.573 374.500 69.650 374.500 C 64.119 374.500 60.057 371.744 58.131 366.686 C 56.351 362.008 57.296 358.504 61.459 354.341 C 65.258 350.542 69.986 349.907 75.033 352.517 "/></g>
<g fill="#A2A2A2FF" stroke="#A2A2A2FF">
<path d="M 51.655 245.829 C 49.378 248.345 49.555 253.555 52.000 256.000 C 53.837 257.837 55.333 258.000 70.326 258.000 C 86.098 258.000 86.725 257.922 88.826 255.686 C 91.543 252.793 91.618 248.618 89.000 246.000 C 87.158 244.158 85.667 244.000 70.155 244.000 C 55.106 244.000 53.134 244.195 51.655 245.829 "/></g>
<g fill="#A2A2A2FF" stroke="#A2A2A2FF">
<path d="M 51.655 272.829 C 49.378 275.345 49.555 280.555 52.000 283.000 C 53.832 284.832 55.333 285.000 69.865 285.000 C 84.401 285.000 85.951 284.826 88.365 282.927 C 91.589 280.392 91.878 275.878 89.000 273.000 C 87.158 271.158 85.667 271.000 70.155 271.000 C 55.106 271.000 53.134 271.195 51.655 272.829 "/></g>
<g fill="#A2A2A2BB" stroke="#A2A2A2BB">
<path d="M 103.246 159.000 L 103.000 215.000 96.500 215.219 L 90.000 215.438 96.750 215.469 L 103.500 215.500 103.496 159.250 L 103.491 103.000 103.246 159.000 "/></g>
<g fill="#A2A2A244" stroke="#A2A2A244">
<path d="M 182.000 355.014 L 132.500 355.528 181.750 355.764 C 208.838 355.894 231.113 355.663 231.250 355.250 C 231.388 354.838 209.225 354.731 182.000 355.014 "/></g>
<g fill="#A2A2A244" stroke="#A2A2A244">
<path d="M 187.241 255.500 L 187.000 281.000 176.000 281.230 L 165.000 281.460 176.250 281.480 L 187.500 281.500 187.491 255.750 L 187.481 230.000 187.241 255.500 "/></g>
<g fill="#A2A2A201" stroke="#A2A2A201">
<path d="M 16.500 232.481 L 4.500 244.531 16.500 232.481 L 28.500 220.430 16.500 232.481 "/></g>
<g fill="#A2A2A2BB" stroke="#A2A2A2BB">
<path d="M 17.000 232.980 L 5.500 244.532 17.000 232.980 L 28.500 221.427 17.000 232.980 "/></g>
<g fill="#A2A2A244" stroke="#A2A2A244">
<path d="M 268.752 244.931 C 274.391 245.244 279.004 245.163 279.002 244.750 C 279.001 244.338 274.388 244.081 268.750 244.181 L 258.500 244.362 268.752 244.931 "/></g>
<g fill="#A2A2A2BB" stroke="#A2A2A2BB">
<path d="M 247.132 224.500 C 246.945 230.000 247.083 233.787 247.439 232.916 C 247.795 232.045 247.948 227.545 247.779 222.916 L 247.471 214.500 247.132 224.500 "/></g>
<g fill="#A2A2A2BB" stroke="#A2A2A2BB">
<path d="M 269.000 229.070 L 261.500 229.640 268.750 229.820 C 272.738 229.919 276.113 229.663 276.250 229.250 C 276.388 228.838 273.125 228.756 269.000 229.070 "/></g>
<g fill="#A2A2A288" stroke="#A2A2A288">
<path d="M 33.000 237.966 L 26.500 244.547 33.000 237.966 L 39.500 231.385 33.000 237.966 "/></g>
<g fill="#A2A2A244" stroke="#A2A2A244">
<path d="M 167.500 206.500 L 174.000 213.000 167.500 206.500 L 161.000 200.000 167.500 206.500 "/></g>
<g fill="#A2A2A244" stroke="#A2A2A244">
<path d="M 185.000 202.000 L 191.000 208.000 185.000 202.000 L 179.000 196.000 185.000 202.000 "/></g>
<g fill="#A2A2A201" stroke="#A2A2A201">
<path d="M 179.500 218.500 L 185.000 224.000 179.500 218.500 L 174.000 213.000 179.500 218.500 "/></g>
<g fill="#A2A2A201" stroke="#A2A2A201">
<path d="M 173.500 190.500 L 179.000 196.000 173.500 190.500 L 168.000 185.000 173.500 190.500 "/></g>
<g fill="#A2A2A244" stroke="#A2A2A244">
<path d="M 21.500 249.449 L 17.500 253.559 21.500 249.449 L 25.500 245.338 21.500 249.449 "/></g>
<g fill="#A2A2A2BB" stroke="#A2A2A2BB">
<path d="M 180.500 218.500 L 185.000 223.000 180.500 218.500 L 176.000 214.000 180.500 218.500 "/></g>
<g fill="#A2A2A2BB" stroke="#A2A2A2BB">
<path d="M 172.500 190.500 L 177.000 195.000 172.500 190.500 L 168.000 186.000 172.500 190.500 "/></g>
<g fill="#A2A2A244" stroke="#A2A2A244">
<path d="M 24.000 408.000 L 28.000 412.000 24.000 408.000 L 20.000 404.000 24.000 408.000 "/></g>
<g fill="#A2A2A244" stroke="#A2A2A244">
<path d="M 329.500 328.500 L 333.000 332.000 329.500 328.500 L 326.000 325.000 329.500 328.500 "/></g>
<g fill="#A2A2A201" stroke="#A2A2A201">
<path d="M 114.500 408.435 L 111.500 411.564 114.500 408.435 L 117.500 405.305 114.500 408.435 "/></g>
<g fill="#A2A2A201" stroke="#A2A2A201">
<path d="M 249.500 317.435 L 246.500 320.564 249.500 317.435 L 252.500 314.305 249.500 317.435 "/></g>
</svg>
