<!-- icon666.com - MILLIONS vector ICONS FREE --><svg id="Capa_1" enable-background="new 0 0 511.557 511.557" viewBox="0 0 511.557 511.557" xmlns="http://www.w3.org/2000/svg"><g><path d="m390.623 290.84c-19.391-19.391-50.94-19.392-70.331 0l-28.412 28.411c-50.085-38.955-94.073-84.739-131.004-136.357l25.735-25.735c19.391-19.39 19.391-50.941 0-70.331l-43.528-43.528c-19.39-19.391-50.94-19.391-70.332 0l-49.388 49.388c-25.202 25.202-30.647 64.474-13.242 95.502 64.465 114.923 157.249 213.244 268.32 284.333 12.754 8.163 27.667 12.473 42.77 12.473 2.971 0 5.949-.167 8.92-.504 17.994-2.042 34.945-10.243 47.73-23.093l56.441-56.728c19.291-19.39 19.251-50.9-.09-70.242zm22.412 92.673-56.441 56.728c-16.441 16.526-42.51 19.477-61.981 7.016-106.936-68.444-196.264-163.102-258.327-273.744-10.859-19.359-7.451-43.872 8.29-59.613l49.388-49.388c3.847-3.847 8.9-5.77 13.953-5.77s10.106 1.923 13.953 5.77l43.527 43.527c7.693 7.693 7.693 20.211 0 27.905l-34.642 34.642c-5.113 5.113-5.851 13.145-1.755 19.104 42.671 62.073 94.901 116.395 155.239 161.456 5.972 4.459 14.312 3.859 19.582-1.412l37.683-37.682c7.692-7.693 20.211-7.694 27.905 0l43.59 43.59c7.674 7.675 7.69 20.177.036 27.871z"></path><path d="m458.553 51.334h-154.938c4.037-4.697 4.898-11.603 1.625-17.271-4.143-7.175-13.316-9.632-20.49-5.49l-42.904 24.77c-4.585 2.647-7.507 7.692-7.5 12.99.008 5.302 2.905 10.337 7.5 12.99l42.904 24.77c2.362 1.364 4.941 2.012 7.486 2.012 5.184 0 10.226-2.69 13.004-7.502 3.272-5.668 2.411-12.573-1.625-17.27h154.938c12.685 0 23.004 10.319 23.004 23.004s-10.319 23.004-23.004 23.004h-123.064c-8.284 0-15 6.716-15 15s6.716 15 15 15h123.064c29.227 0 53.004-23.777 53.004-53.004 0-29.226-23.777-53.003-53.004-53.003z"></path></g></svg>