<?xml version="1.0" encoding="utf-8"?>
<!-- Generator: Adobe Illustrator 28.1.0, SVG Export Plug-In . SVG Version: 6.00 Build 0)  -->
<svg version="1.1" id="Layer_1" xmlns="http://www.w3.org/2000/svg" xmlns:xlink="http://www.w3.org/1999/xlink" x="0px" y="0px"
	 viewBox="0 0 100 100" style="enable-background:new 0 0 100 100;" xml:space="preserve">
<style type="text/css">
	.st0{fill:url(#SVGID_1_);}
</style>
<linearGradient id="SVGID_1_" gradientUnits="userSpaceOnUse" x1="10" y1="50" x2="90" y2="50">
	<stop  offset="1.997224e-08" style="stop-color:#00943B"/>
	<stop  offset="0.999999" style="stop-color:#3FFF9C"/>
</linearGradient>
<path class="st0" d="M81.111145,24.1290894v23.8929443c0,8.3887939-6.4729004,15.1895142-14.4575195,15.1895142H47.3731689
	c-1.37854,0-2.6900024,0.5946045-3.5985107,1.6314087l-6.4865112,7.4025879h17.8406982
	c0.9502563,0,1.8572388,0.3978271,2.5009766,1.0969849L72.9648438,90l3.8865356-15.7553711
	c0.286499-1.1611328,1.2203369-2.0431519,2.3928833-2.2779541C85.3770752,70.7388916,90,65.3373413,90,58.8430176V36.7357178
	C90,30.9199829,86.2888184,25.9837646,81.111145,24.1290894z M45.1381836,58.9122314h18.1259766
	c7.4019165,0,13.4025269-6.0006104,13.4025269-13.4025269V23.4023438C76.666687,16.0004272,70.6662598,10,63.2642822,10H23.4023438
	C16.0004272,10,10,16.0004272,10,23.4023438v22.1073608c0,6.6193237,4.8026733,12.1033936,11.1115112,13.1899414
	c0.9613647,0.1654663,1.71698,0.9141846,1.9506836,1.8612061l3.9729614,16.1057739L42.18927,60.2056274
	C42.9482422,59.3812256,44.0175781,58.9122314,45.1381836,58.9122314z M37.4024658,29.9718018
	c-1.1162109,0.8041382-1.6949463,0.8199463-3.2719727,0.0623779l-0.0004272-0.0009766
	c-1.895874-0.947937-3.6641846-2.1313477-5.2637329-3.5218506c-1.1550293-1.1483765-0.897583-1.4063721-0.6731567-2.0426636
	c0.2733154-0.651123,0.6051025-1.2753906,0.9920044-1.8661499c0.5456543-0.9680786,1.369873-1.7487183,2.3657227-2.2416382
	c0.9608765-0.4439697,2.7546387-0.9570312,7.4194336,1.6662598c3.5745239,1.9385376,6.8450317,4.390686,9.7075195,7.2786865
	l0.0076294,0.0076294l0.0076904,0.0076904c2.8897705,2.861084,5.3423462,6.1317139,7.2784424,9.7077637
	c2.6270142,4.6707153,2.1106567,6.4587402,1.6661987,7.4196167c-0.4987183,0.9911499-1.2787476,1.8129883-2.2425537,2.3624878
	c-0.5906982,0.3869019-1.2154541,0.71875-1.8660889,0.9920654c-0.631958,0.2320557-0.8899536,0.4818726-2.038269-0.6665039
	c-1.3971558-1.5976562-2.5829468-3.3684082-3.5274658-5.269165c-0.7652588-1.5770264-0.7417603-2.1557617,0.0623169-3.2720337
	c0.6630859-0.934021,1.2873535-1.5353394,1.0620117-2.6002197c-0.2253418-1.0649414-1.8234253-3.1819458-3.8650513-5.2202759
	c-2.0411377-2.0377808-4.1503296-3.6306763-5.2200317-3.8651123C38.9329224,28.6757812,38.3321533,29.3052979,37.4024658,29.9718018
	z"/>
</svg>
