<svg xmlns="http://www.w3.org/2000/svg" viewBox="0 0 32 32"><path d="M29.574 11.215a1.985 1.985 0 0 0-.851-1.27l-11.248-7.5a2.652 2.652 0 0 0-2.948 0L3.272 9.948a2 2 0 0 0-.549 2.771l.737 1.105a1.983 1.983 0 0 0 1.271.852A2.043 2.043 0 0 0 5 14.7V25a3 3 0 0 0 3 3h5a1 1 0 0 0 1-1v-8h4v8a1 1 0 0 0 1 1h5a3 3 0 0 0 3-3V14.7a2.043 2.043 0 0 0 .269-.027 1.983 1.983 0 0 0 1.271-.852l.737-1.105a1.985 1.985 0 0 0 .297-1.501ZM24 26h-4v-8a1 1 0 0 0-1-1h-6a1 1 0 0 0-1 1v8H8a1 1 0 0 1-1-1V13.868l9-6 9 6V25a1 1 0 0 1-1 1Zm2.876-13.285L16.555 5.834a1 1 0 0 0-1.11 0L5.124 12.715l-.742-1.1 11.255-7.5a.658.658 0 0 1 .729 0l11.247 7.5Z" fill="#142f49"/></svg>