<svg width="48" height="48" fill="none" xmlns="http://www.w3.org/2000/svg"><path d="M35.99 43.069c-.5 0-.982-.192-1.347-.534L29.758 38H18.34a1 1 0 0 1 0-2h11.81a1 1 0 0 1 .681.268l5.17 4.8V37a1 1 0 0 1 1-1h4a3 3 0 0 0 3-3V16a3 3 0 0 0-1.5-2.593 1 1 0 1 1 1-1.734A5.001 5.001 0 0 1 46 16v17a5.006 5.006 0 0 1-5 5h-3v3.06a2.015 2.015 0 0 1-2.01 2.009Z" fill="#000"/><path d="M12.01 38.068a2.02 2.02 0 0 1-.81-.171 1.976 1.976 0 0 1-1.2-1.834V33H7a5.006 5.006 0 0 1-5-5V11a5.006 5.006 0 0 1 5-5h28a5.006 5.006 0 0 1 5 5v17a5.006 5.006 0 0 1-5 5H18.238l-4.877 4.529a1.976 1.976 0 0 1-1.351.539ZM7 8a3 3 0 0 0-3 3v17a3 3 0 0 0 3 3h4a1 1 0 0 1 1 1v4.063l5.165-4.8a1 1 0 0 1 .681-.263H35a3 3 0 0 0 3-3V11a3 3 0 0 0-3-3H7Z" fill="#000"/><path d="M30 23a3.5 3.5 0 1 1 0-7 3.5 3.5 0 0 1 0 7Zm0-5a1.5 1.5 0 1 0 0 3 1.5 1.5 0 0 0 0-3ZM21 23a3.5 3.5 0 1 1 0-7 3.5 3.5 0 0 1 0 7Zm0-5a1.5 1.5 0 1 0 0 3 1.5 1.5 0 0 0 0-3ZM12 23a3.5 3.5 0 1 1 0-7 3.5 3.5 0 0 1 0 7Zm0-5a1.5 1.5 0 1 0 0 3 1.5 1.5 0 0 0 0-3Z" fill="#000"/></svg>