<svg width="13" height="12" viewBox="0 0 13 12" fill="none" xmlns="http://www.w3.org/2000/svg">
<path d="M7.28906 0.75C7.28906 0.335786 6.95328 0 6.53906 0C6.12485 0 5.78906 0.335786 5.78906 0.75V5.24993L1.28906 5.24993C0.874849 5.24993 0.539062 5.58572 0.539062 5.99993C0.539062 6.41414 0.874848 6.74993 1.28906 6.74993L5.78906 6.74993V11.25C5.78906 11.6642 6.12485 12 6.53906 12C6.95328 12 7.28906 11.6642 7.28906 11.25V6.74993L11.7891 6.74993C12.2033 6.74993 12.5391 6.41415 12.5391 5.99993C12.5391 5.58572 12.2033 5.24993 11.7891 5.24993L7.28906 5.24993V0.75Z" fill="#DD3824"/>
</svg>
