<svg width="24" height="24" viewBox="0 0 24 24" fill="none" xmlns="http://www.w3.org/2000/svg">
<g clip-path="url(#clip0_256_578)">
<path d="M20.4853 3.51469C18.2188 1.24823 15.2053 0 12 0C8.79469 0 5.78123 1.24823 3.51469 3.51469C1.24823 5.78123 0 8.79469 0 12C0 15.2053 1.24823 18.2188 3.51469 20.4853C5.78123 22.7518 8.79469 24 12 24C15.2053 24 18.2188 22.7518 20.4853 20.4853C22.7518 18.2188 24 15.2053 24 12C24 8.79469 22.7518 5.78123 20.4853 3.51469ZM12 22.5938C6.15858 22.5938 1.40625 17.8414 1.40625 12C1.40625 6.15858 6.15858 1.40625 12 1.40625C17.8414 1.40625 22.5938 6.15858 22.5938 12C22.5938 17.8414 17.8414 22.5938 12 22.5938Z" fill="#333333"/>
<path d="M8.95967 13.7553C8.59292 13.12 7.98092 12.7368 7.28061 12.7039L2.80273 12.7031L2.93947 13.522C3.12022 14.6047 3.49166 15.6382 4.04338 16.5938C4.59509 17.5493 5.30436 18.3877 6.15158 19.0856L6.79241 19.6135L9.01798 15.7587L9.03177 15.7285C9.32277 15.0924 9.29516 14.3363 8.95967 13.7553ZM7.76403 15.118L6.42781 17.4324C5.97791 16.9714 5.58711 16.4552 5.26114 15.8906C4.93517 15.326 4.68355 14.7295 4.50927 14.1094H7.22816C7.44369 14.1239 7.61647 14.2412 7.74181 14.4584C7.84442 14.636 7.85253 14.9033 7.76403 15.118Z" fill="#333333"/>
<path d="M13.7641 16.462L13.7448 16.4349C13.3395 15.8648 12.6709 15.5107 12 15.5107C11.2665 15.5107 10.6286 15.8491 10.25 16.4392L8.01038 20.3168L8.78794 20.6078C9.81581 20.9926 10.8965 21.1877 12 21.1877C13.1034 21.1877 14.1841 20.9926 15.2121 20.6078L15.9897 20.3168L13.7641 16.462ZM12 19.7814C11.348 19.7814 10.7056 19.7011 10.0815 19.5419L11.4409 17.1873C11.5613 17.0079 11.7493 16.917 12 16.917C12.205 16.917 12.4406 17.0436 12.5823 17.2276L13.9185 19.5419C13.2944 19.7011 12.6519 19.7814 12 19.7814Z" fill="#333333"/>
<path d="M16.7461 12.7031L16.713 12.7063C16.0166 12.7724 15.3756 13.1743 15.0402 13.7553C14.6734 14.3905 14.6475 15.1122 14.9692 15.7351L17.2075 19.6135L17.8483 19.0856C18.6955 18.3877 19.4049 17.5493 19.9565 16.5938C20.5083 15.6382 20.8796 14.6047 21.0604 13.522L21.1972 12.7031H16.7461ZM17.572 17.4324L16.2126 15.0778C16.1174 14.8839 16.1327 14.6756 16.258 14.4585C16.3606 14.2809 16.588 14.1401 16.8182 14.1095H19.4906C19.3163 14.7296 19.0647 15.3261 18.7387 15.8907C18.4128 16.4552 18.022 16.9714 17.572 17.4324Z" fill="#333333"/>
<path d="M21.0605 10.4781C20.8797 9.3955 20.5083 8.362 19.9566 7.40641C19.4049 6.45081 18.6956 5.61245 17.8484 4.91458L17.2076 4.38672L14.982 8.24148L14.9682 8.27167C14.6772 8.90772 14.7048 9.66381 15.0403 10.2449C15.407 10.8801 16.019 11.2633 16.7193 11.2962L21.1972 11.297L21.0605 10.4781ZM16.7718 9.89078C16.5563 9.87625 16.3835 9.75892 16.2581 9.54175C16.1555 9.36419 16.1474 9.09681 16.2359 8.88212L17.5721 6.56777C18.0221 7.02878 18.4128 7.54497 18.7388 8.10953C19.0648 8.67414 19.3164 9.27067 19.4907 9.89078H16.7718Z" fill="#333333"/>
<path d="M15.212 3.39234C14.1841 3.00759 13.1034 2.8125 11.9999 2.8125C10.8965 2.8125 9.81583 3.00759 8.78786 3.39234L8.01025 3.68339L10.2358 7.5382L10.2551 7.5653C10.6604 8.13534 11.3291 8.48944 11.9999 8.48944C12.7335 8.48944 13.3713 8.15105 13.75 7.56098L15.9896 3.68339L15.212 3.39234ZM12.559 6.81286C12.4387 6.99225 12.2507 7.08319 11.9999 7.08319C11.7949 7.08319 11.5593 6.95658 11.4176 6.77259L10.0814 4.45823C10.7056 4.29909 11.348 4.21875 11.9999 4.21875C12.6519 4.21875 13.2943 4.29909 13.9185 4.45823L12.559 6.81286Z" fill="#333333"/>
<path d="M9.03069 8.26506L6.79241 4.38672L6.15158 4.91463C5.30436 5.61245 4.59505 6.45081 4.04333 7.40641C3.49161 8.362 3.12022 9.3955 2.93942 10.4781L2.80273 11.297H7.25384L7.28694 11.2939C7.98327 11.2278 8.62428 10.8259 8.95972 10.2449C9.32652 9.60967 9.35239 8.88803 9.03069 8.26506ZM7.74186 9.54175C7.63934 9.71931 7.41191 9.86008 7.1817 9.89073H4.50931C4.68359 9.27062 4.93522 8.67414 5.26119 8.10953C5.58716 7.54497 5.97795 7.02878 6.42786 6.56777L7.78728 8.92239C7.88248 9.11631 7.86725 9.32458 7.74186 9.54175Z" fill="#333333"/>
<path d="M12 9.89062C10.8369 9.89062 9.89062 10.8369 9.89062 12C9.89062 13.1631 10.8369 14.1094 12 14.1094C13.1631 14.1094 14.1094 13.1631 14.1094 12C14.1094 10.8369 13.1631 9.89062 12 9.89062ZM12 12.7031C11.6123 12.7031 11.2969 12.3877 11.2969 12C11.2969 11.6123 11.6123 11.2969 12 11.2969C12.3877 11.2969 12.7031 11.6123 12.7031 12C12.7031 12.3877 12.3877 12.7031 12 12.7031Z" fill="#333333"/>
</g>
<defs>
<clipPath id="clip0_256_578">
<rect width="24" height="24" fill="white"/>
</clipPath>
</defs>
</svg>
