<svg width="26" height="26" viewBox="0 0 26 26" fill="none" xmlns="http://www.w3.org/2000/svg">
<path d="M13 11.314C12.0704 11.314 11.3141 12.0703 11.3141 12.9999C11.4067 15.2365 14.5937 15.2359 14.6859 12.9999C14.6859 12.0702 13.9297 11.314 13 11.314Z" fill="#333333"/>
<path d="M12.1534 19.5273C12.7129 19.5992 13.2869 19.5992 13.8464 19.5273C13.7362 17.6401 13.2648 16.5356 13 16.2544C12.735 16.5356 12.2636 17.6401 12.1534 19.5273Z" fill="#333333"/>
<path d="M10.1791 14.5298C9.18012 15.0389 8.13702 15.2291 6.85144 15.3468C7.51942 17.0909 8.90899 18.4805 10.6531 19.1485C10.7298 18.1819 10.899 17.2912 11.1463 16.5743C11.2472 16.2818 11.3561 16.0327 11.4701 15.8208C10.9255 15.5242 10.4757 15.0745 10.1791 14.5298Z" fill="#333333"/>
<path d="M13.8465 6.4728C13.2869 6.40099 12.713 6.40099 12.1534 6.4728C12.2636 8.36003 12.735 9.46458 12.9999 9.74575C13.2649 9.46458 13.7363 8.36003 13.8465 6.4728Z" fill="#333333"/>
<path d="M6.47279 12.1533C6.40083 12.7125 6.40083 13.2872 6.47279 13.8463C8.36008 13.7361 9.46458 13.2647 9.74575 12.9998C9.46458 12.7349 8.36008 12.2635 6.47279 12.1533Z" fill="#333333"/>
<path d="M10.1791 11.4703C10.4756 10.9255 10.9254 10.4758 11.4701 10.1792C11.3561 9.9674 11.2472 9.71821 11.1463 9.42571C10.899 8.70884 10.7298 7.81818 10.6531 6.85156C8.90899 7.51954 7.51942 8.90912 6.85144 10.6532C8.13702 10.7709 9.18022 10.9612 10.1791 11.4703Z" fill="#333333"/>
<path d="M25.2374 10.6056C25.2154 10.6056 25.1988 10.592 25.1951 10.5732C25.1913 10.5546 25.2015 10.5355 25.2192 10.5282C25.6139 10.3646 25.7937 9.91752 25.6339 9.53178L24.385 6.51665C24.2252 6.13091 23.7819 5.9419 23.3871 6.10532C23.3694 6.11263 23.3488 6.10638 23.3382 6.09054C23.3276 6.07465 23.3297 6.05327 23.3453 6.03773C23.6427 5.74025 23.6427 5.25798 23.3453 4.96051L21.0376 2.65285C20.7401 2.35538 20.2579 2.35538 19.9604 2.65285C19.9448 2.66839 19.9235 2.67052 19.9076 2.65986C19.8917 2.6494 19.8855 2.62868 19.8928 2.61101C20.0562 2.21623 19.8672 1.77297 19.4815 1.61316L16.4664 0.364191C16.0806 0.204434 15.6335 0.38425 15.4699 0.778922C15.4626 0.796645 15.4435 0.806852 15.4249 0.803043C15.4062 0.799336 15.3926 0.782731 15.3926 0.760742C15.3926 0.34007 15.0515 -0.000976562 14.6308 -0.000976562H11.3673C10.9466 -0.000976562 10.6056 0.34007 10.6056 0.760742C10.6056 0.782731 10.5919 0.799336 10.5732 0.803043C10.5546 0.806852 10.5355 0.796645 10.5282 0.778922C10.3646 0.384199 9.91747 0.204434 9.53173 0.364191L6.5166 1.61311C6.13086 1.77291 5.94185 2.21618 6.10527 2.61096C6.11258 2.62868 6.10633 2.64935 6.09049 2.65981C6.07459 2.67047 6.05322 2.66834 6.03768 2.6528C5.7402 2.35532 5.25793 2.35532 4.96045 2.6528L2.65285 4.96051C2.35538 5.25798 2.35538 5.74025 2.65285 6.03773C2.66839 6.05327 2.67052 6.07465 2.65986 6.09054C2.6494 6.10638 2.62868 6.11263 2.61096 6.10532C2.21618 5.94185 1.77291 6.13091 1.61311 6.51665L0.364191 9.53178C0.204434 9.91752 0.38425 10.3646 0.778922 10.5282C0.796645 10.5356 0.806852 10.5546 0.803043 10.5732C0.799336 10.592 0.782731 10.6056 0.760742 10.6056C0.34007 10.6056 -0.000976562 10.9467 -0.000976562 11.3673V14.6309C-0.000976562 15.0516 0.34007 15.3926 0.760742 15.3926C0.782731 15.3926 0.799336 15.4062 0.803043 15.425C0.806852 15.4436 0.796645 15.4627 0.778922 15.47C0.384199 15.6336 0.204434 16.0807 0.364191 16.4664L1.61311 19.4816C1.77291 19.8673 2.21618 20.0563 2.61096 19.8929C2.62868 19.8856 2.64935 19.8918 2.65986 19.9077C2.67052 19.9236 2.66839 19.9449 2.65285 19.9605C2.35538 20.258 2.35538 20.7402 2.65285 21.0377L4.96051 23.3454C5.25798 23.6428 5.74025 23.6428 6.03773 23.3454C6.05327 23.3298 6.07465 23.3277 6.09054 23.3383C6.10638 23.3488 6.11263 23.3695 6.10532 23.3872C5.94185 23.782 6.13091 24.2253 6.51665 24.3851L9.53178 25.634C9.91752 25.7938 10.3646 25.614 10.5282 25.2193C10.5356 25.2016 10.5546 25.1914 10.5732 25.1952C10.592 25.1989 10.6056 25.2155 10.6056 25.2375C10.6056 25.6581 10.9467 25.9992 11.3673 25.9992H14.6309C15.0516 25.9992 15.3926 25.6581 15.3926 25.2375C15.3926 25.2155 15.4062 25.1989 15.425 25.1952C15.4436 25.1914 15.4627 25.2016 15.47 25.2193C15.6336 25.614 16.0807 25.7938 16.4664 25.634L19.4816 24.3851C19.8673 24.2253 20.0563 23.782 19.8929 23.3872C19.8856 23.3695 19.8918 23.3489 19.9077 23.3383C19.9236 23.3277 19.9449 23.3298 19.9605 23.3454C20.258 23.6428 20.7402 23.6428 21.0377 23.3454L23.3454 21.0377C23.6428 20.7402 23.6428 20.258 23.3454 19.9605C23.3298 19.9449 23.3277 19.9236 23.3383 19.9077C23.3488 19.8918 23.3695 19.8856 23.3872 19.8929C23.782 20.0564 24.2253 19.8673 24.3851 19.4816L25.634 16.4664C25.7938 16.0807 25.614 15.6336 25.2193 15.47C25.2016 15.4626 25.1914 15.4436 25.1952 15.425C25.1989 15.4062 25.2155 15.3926 25.2375 15.3926C25.6581 15.3926 25.9992 15.0516 25.9992 14.6309V11.3673C25.9991 10.9467 25.658 10.6056 25.2374 10.6056ZM12.9991 21.1038C8.53012 21.1038 4.89439 17.468 4.89439 12.9991C5.33959 2.24711 20.6602 2.25021 21.1038 12.9991C21.1038 17.468 17.468 21.1038 12.9991 21.1038Z" fill="#333333"/>
<path d="M15.8208 14.5298C15.5243 15.0745 15.0745 15.5242 14.5298 15.8208C14.6438 16.0327 14.7527 16.2818 14.8536 16.5743C15.1009 17.2912 15.2702 18.1819 15.3468 19.1485C17.0909 18.4805 18.4805 17.0909 19.1485 15.3468C17.8629 15.2291 16.8197 15.0388 15.8208 14.5298Z" fill="#333333"/>
<path d="M15.3468 6.85156C15.2702 7.81818 15.1009 8.70884 14.8536 9.42571C14.7527 9.71821 14.6438 9.9674 14.5298 10.1792C15.0745 10.4758 15.5242 10.9255 15.8208 11.4703C16.8198 10.9612 17.8629 10.771 19.1485 10.6532C18.4805 8.90912 17.0909 7.51954 15.3468 6.85156Z" fill="#333333"/>
<path d="M19.5274 13.8463C19.5993 13.2872 19.5993 12.7125 19.5274 12.1533C17.6401 12.2635 16.5356 12.7349 16.2544 12.9998C16.5356 13.2648 17.6401 13.7361 19.5274 13.8463Z" fill="#333333"/>
</svg>
