<svg width="29" height="30" viewBox="0 0 29 30" fill="none" xmlns="http://www.w3.org/2000/svg">
<path d="M14.1665 22.2909C18.4456 22.2909 21.9145 18.822 21.9145 14.5429C21.9145 10.2638 18.4456 6.79492 14.1665 6.79492C9.88736 6.79492 6.41846 10.2638 6.41846 14.5429C6.41846 18.822 9.88736 22.2909 14.1665 22.2909Z" fill="#FFC107"/>
<path d="M14.1665 5.30259C14.8955 5.30259 15.4865 4.90856 15.4865 4.42254V0.90251C15.4865 0.416491 14.8955 0.0224609 14.1665 0.0224609C13.4375 0.0224609 12.8464 0.416491 12.8464 0.90251V4.42263C12.8466 4.90856 13.4375 5.30259 14.1665 5.30259Z" fill="#FFD54F"/>
<path d="M14.1665 23.8458C14.8955 23.8458 15.4865 24.2399 15.4865 24.7259V28.2459C15.4865 28.7319 14.8955 29.126 14.1665 29.126C13.4375 29.126 12.8464 28.7319 12.8464 28.2459V24.7258C12.8466 24.2399 13.4375 23.8458 14.1665 23.8458Z" fill="#FFD54F"/>
<path d="M19.2697 6.57552C19.9011 6.94002 20.6099 6.89429 20.8529 6.47339L22.6129 3.42495C22.856 3.00405 22.5411 2.36729 21.9098 2.00279C21.2784 1.63829 20.5696 1.68401 20.3266 2.10492L18.5665 5.15343C18.3237 5.57432 18.6384 6.21101 19.2697 6.57552Z" fill="#FFD54F"/>
<path d="M9.06329 6.57552C8.43195 6.94002 7.72309 6.89429 7.48008 6.47339L5.72007 3.42495C5.47706 3.00405 5.79189 2.36729 6.42323 2.00279C7.05456 1.63829 7.76342 1.68401 8.00643 2.10492L9.76649 5.15343C10.0093 5.57432 9.69463 6.21101 9.06329 6.57552Z" fill="#FFD54F"/>
<path d="M19.2697 22.5729C19.9011 22.2084 20.6099 22.2541 20.8529 22.675L22.6129 25.7235C22.856 26.1444 22.5411 26.7811 21.9098 27.1456C21.2784 27.5102 20.5696 27.4644 20.3266 27.0435L18.5665 23.995C18.3237 23.5741 18.6384 22.9374 19.2697 22.5729Z" fill="#FFD54F"/>
<path d="M9.06329 22.5729C8.43195 22.2084 7.72309 22.2541 7.48008 22.675L5.72007 25.7235C5.47706 26.1444 5.79189 26.7811 6.42323 27.1456C7.05456 27.5102 7.76342 27.4644 8.00643 27.0435L9.76649 23.995C10.0093 23.5741 9.69463 22.9374 9.06329 22.5729Z" fill="#FFD54F"/>
<path d="M22.1342 10.1534C22.4987 10.7847 23.1354 11.0995 23.5563 10.8565L26.6048 9.09651C27.0257 8.8535 27.0714 8.14464 26.7069 7.5133C26.3424 6.88196 25.7056 6.56713 25.2847 6.81014L22.2362 8.5702C21.8154 8.81327 21.7697 9.52203 22.1342 10.1534Z" fill="#FFD54F"/>
<path d="M6.19884 10.1534C5.83434 10.7847 5.19759 11.0995 4.77668 10.8565L1.72825 9.09651C1.30734 8.8535 1.26161 8.14464 1.62612 7.5133C1.99062 6.88196 2.62737 6.56713 3.04828 6.81014L6.09679 8.5702C6.51756 8.81327 6.56335 9.52203 6.19884 10.1534Z" fill="#FFD54F"/>
<path d="M22.1342 18.9951C22.4987 18.3637 23.1354 18.0489 23.5563 18.2919L26.6048 20.0519C27.0257 20.2949 27.0714 21.0038 26.7069 21.6351C26.3424 22.2665 25.7056 22.5813 25.2847 22.3383L22.2362 20.5782C21.8154 20.3352 21.7697 19.6264 22.1342 18.9951Z" fill="#FFD54F"/>
<path d="M6.19884 18.9951C5.83434 18.3637 5.19759 18.0489 4.77668 18.2919L1.72825 20.0519C1.30734 20.2949 1.26161 21.0038 1.62612 21.6351C1.99062 22.2665 2.62737 22.5813 3.04828 22.3383L6.09679 20.5782C6.51756 20.3352 6.56335 19.6264 6.19884 18.9951Z" fill="#FFD54F"/>
<path d="M23.0529 14.9802C23.0529 15.7092 23.4469 16.3002 23.9329 16.3002L27.453 16.3002C27.939 16.3002 28.333 15.7092 28.333 14.9802C28.333 14.2512 27.939 13.6602 27.453 13.6602L23.9328 13.6602C23.4469 13.6603 23.0529 14.2512 23.0529 14.9802Z" fill="#FFD54F"/>
<path d="M5.28013 14.9802C5.28013 15.7092 4.8861 16.3002 4.40008 16.3002L0.880049 16.3002C0.39403 16.3002 8.95663e-08 15.7092 5.77004e-08 14.9802C2.58345e-08 14.2512 0.39403 13.6602 0.880049 13.6602L4.40016 13.6602C4.8861 13.6603 5.28013 14.2512 5.28013 14.9802Z" fill="#FFD54F"/>
</svg>
